<svg width="40" height="40" viewBox="0 0 40 40" fill="none" xmlns="http://www.w3.org/2000/svg">
<rect x="2" y="2" width="36" height="36" rx="18" fill="#6B4892"/>
<rect x="2" y="2" width="36" height="36" rx="18" stroke="#F1EDF6" stroke-width="4"/>
<mask id="path-2-outside-1_984_14212" maskUnits="userSpaceOnUse" x="17" y="11" width="11" height="19" fill="black">
<rect fill="white" x="17" y="11" width="11" height="19"/>
<path d="M26.1511 26.8843V26.2768C26.1508 25.9924 26.0344 25.7197 25.8274 25.5185C25.6205 25.3174 25.34 25.2043 25.0473 25.204H24.6648C23.959 25.204 23.3462 24.6975 23.2394 24.026C23.1539 23.4875 23.1347 22.941 23.1822 22.3981H25.302C25.5272 22.3979 25.743 22.3108 25.9021 22.1561C26.0613 22.0014 26.1509 21.7916 26.1511 21.5728V18.602C26.1508 18.3832 26.0613 18.1734 25.9021 18.0187C25.743 17.864 25.5272 17.777 25.302 17.7767H22.7549V16.6215H25.0473C25.2274 16.6213 25.4001 16.5517 25.5274 16.4279C25.6547 16.3041 25.7264 16.1363 25.7266 15.9613V12.6602C25.7264 12.4852 25.6547 12.3174 25.5274 12.1936C25.4001 12.0698 25.2274 12.0002 25.0473 12H19.9531C19.773 12.0002 19.6004 12.0698 19.4731 12.1936C19.3457 12.3174 19.2741 12.4852 19.2739 12.6602V15.9612C19.2741 16.1362 19.3457 16.304 19.473 16.4278C19.6003 16.5516 19.7729 16.6213 19.953 16.6215H22.2454V17.7768H19.6983C19.4732 17.7771 19.2574 17.8641 19.0982 18.0188C18.939 18.1735 18.8495 18.3833 18.8492 18.6021V19.2623C18.8492 19.3279 18.8761 19.3909 18.9238 19.4373C18.9716 19.4837 19.0364 19.5098 19.1039 19.5098C19.1715 19.5098 19.2363 19.4837 19.284 19.4373C19.3318 19.3909 19.3587 19.3279 19.3587 19.2623V18.602C19.3587 18.5144 19.3945 18.4305 19.4582 18.3686C19.5219 18.3067 19.6082 18.2719 19.6983 18.2718H25.302C25.3921 18.2719 25.4784 18.3067 25.5421 18.3686C25.6058 18.4305 25.6416 18.5144 25.6417 18.602V21.5728C25.6416 21.6604 25.6058 21.7443 25.5421 21.8062C25.4785 21.868 25.3921 21.9029 25.3021 21.9029H19.6983C19.6082 21.9029 19.5219 21.8681 19.4582 21.8062C19.3945 21.7443 19.3587 21.6604 19.3587 21.5728V20.9126C19.3587 20.847 19.3318 20.784 19.284 20.7376C19.2363 20.6911 19.1715 20.6651 19.1039 20.6651C19.0364 20.6651 18.9716 20.6911 18.9238 20.7376C18.8761 20.784 18.8492 20.847 18.8492 20.9126V21.5728C18.8495 21.7916 18.939 22.0014 19.0982 22.1561C19.2574 22.3108 19.4732 22.3978 19.6983 22.3981H21.7961C21.8407 22.9372 21.8231 23.4794 21.7436 24.0147C21.6427 24.6927 21.0292 25.2038 20.3166 25.2038H19.9529C19.6603 25.2041 19.3797 25.3172 19.1728 25.5183C18.9658 25.7195 18.8494 25.9922 18.8491 26.2766V26.8843C18.658 26.9283 18.4824 27.0211 18.3405 27.153C18.1986 27.285 18.0955 27.4514 18.0419 27.6351C17.9883 27.8187 17.9861 28.0129 18.0355 28.1977C18.085 28.3824 18.1842 28.551 18.3231 28.6859C18.462 28.8209 18.6354 28.9174 18.8255 28.9655C19.0156 29.0135 19.2154 29.0114 19.4043 28.9593C19.5933 28.9072 19.7645 28.807 19.9003 28.669C20.036 28.5311 20.1315 28.3605 20.1767 28.1747H24.8233C24.8685 28.3605 24.964 28.5311 25.0997 28.669C25.2355 28.807 25.4067 28.9072 25.5957 28.9593C25.7846 29.0114 25.9844 29.0135 26.1745 28.9655C26.3646 28.9174 26.538 28.8209 26.6769 28.6859C26.8158 28.551 26.915 28.3824 26.9645 28.1977C27.0139 28.0129 27.0117 27.8187 26.9581 27.6351C26.9045 27.4514 26.8014 27.285 26.6595 27.153C26.5176 27.0211 26.3422 26.9283 26.1511 26.8843ZM19.7832 15.9612V12.6602C19.7832 12.6164 19.8012 12.5745 19.833 12.5436C19.8648 12.5126 19.908 12.4952 19.953 12.4952H25.0472C25.0922 12.4952 25.1354 12.5126 25.1672 12.5436C25.199 12.5745 25.2169 12.6164 25.217 12.6602V15.9612C25.2169 16.0049 25.199 16.0469 25.1672 16.0778C25.1354 16.1087 25.0922 16.1261 25.0472 16.1262H19.953C19.908 16.1261 19.8648 16.1087 19.833 16.0778C19.8012 16.0469 19.7832 16.0049 19.7832 15.9612ZM19.953 25.699H20.3167C21.2808 25.699 22.1111 25.0055 22.2479 24.0857C22.3309 23.5269 22.3506 22.961 22.3068 22.3981H22.6715C22.6249 22.9664 22.6466 23.5381 22.736 24.1017C22.8809 25.0124 23.71 25.6991 24.6648 25.6991H25.0473C25.1597 25.6993 25.2696 25.7304 25.3645 25.7888C25.4594 25.8472 25.5353 25.9306 25.5835 26.0292H19.4168C19.465 25.9306 19.5409 25.8472 19.6358 25.7888C19.7307 25.7303 19.8407 25.6992 19.953 25.699ZM19.1039 28.5048C18.9864 28.5048 18.8715 28.471 18.7737 28.4075C18.676 28.344 18.5998 28.2538 18.5548 28.1482C18.5099 28.0427 18.4981 27.9265 18.521 27.8145C18.544 27.7024 18.6006 27.5995 18.6837 27.5187C18.7668 27.4379 18.8727 27.3829 18.988 27.3606C19.1033 27.3383 19.2228 27.3497 19.3314 27.3935C19.44 27.4372 19.5328 27.5112 19.5981 27.6063C19.6634 27.7013 19.6983 27.8129 19.6983 27.9272C19.6981 28.0803 19.6354 28.2271 19.524 28.3354C19.4125 28.4437 19.2615 28.5046 19.1039 28.5048ZM24.8235 27.6796H20.1769C20.1293 27.4865 20.0277 27.3101 19.8833 27.1697C19.7388 27.0293 19.5573 26.9306 19.3586 26.8843V26.5242H25.6417V26.8843C25.443 26.9306 25.2615 27.0293 25.117 27.1697C24.9726 27.3101 24.871 27.4865 24.8235 27.6796ZM25.8964 28.5048C25.7788 28.5048 25.6639 28.471 25.5662 28.4075C25.4685 28.344 25.3923 28.2538 25.3473 28.1482C25.3023 28.0427 25.2905 27.9265 25.3135 27.8145C25.3364 27.7024 25.393 27.5995 25.4761 27.5187C25.5593 27.4379 25.6652 27.3829 25.7805 27.3606C25.8957 27.3383 26.0153 27.3497 26.1239 27.3935C26.2325 27.4372 26.3253 27.5112 26.3906 27.6063C26.4559 27.7013 26.4907 27.8129 26.4907 27.9272C26.4905 28.0803 26.4278 28.2271 26.3164 28.3354C26.205 28.4437 26.054 28.5046 25.8964 28.5048Z"/>
</mask>
<path d="M26.1511 26.8843V26.2768C26.1508 25.9924 26.0344 25.7197 25.8274 25.5185C25.6205 25.3174 25.34 25.2043 25.0473 25.204H24.6648C23.959 25.204 23.3462 24.6975 23.2394 24.026C23.1539 23.4875 23.1347 22.941 23.1822 22.3981H25.302C25.5272 22.3979 25.743 22.3108 25.9021 22.1561C26.0613 22.0014 26.1509 21.7916 26.1511 21.5728V18.602C26.1508 18.3832 26.0613 18.1734 25.9021 18.0187C25.743 17.864 25.5272 17.777 25.302 17.7767H22.7549V16.6215H25.0473C25.2274 16.6213 25.4001 16.5517 25.5274 16.4279C25.6547 16.3041 25.7264 16.1363 25.7266 15.9613V12.6602C25.7264 12.4852 25.6547 12.3174 25.5274 12.1936C25.4001 12.0698 25.2274 12.0002 25.0473 12H19.9531C19.773 12.0002 19.6004 12.0698 19.4731 12.1936C19.3457 12.3174 19.2741 12.4852 19.2739 12.6602V15.9612C19.2741 16.1362 19.3457 16.304 19.473 16.4278C19.6003 16.5516 19.7729 16.6213 19.953 16.6215H22.2454V17.7768H19.6983C19.4732 17.7771 19.2574 17.8641 19.0982 18.0188C18.939 18.1735 18.8495 18.3833 18.8492 18.6021V19.2623C18.8492 19.3279 18.8761 19.3909 18.9238 19.4373C18.9716 19.4837 19.0364 19.5098 19.1039 19.5098C19.1715 19.5098 19.2363 19.4837 19.284 19.4373C19.3318 19.3909 19.3587 19.3279 19.3587 19.2623V18.602C19.3587 18.5144 19.3945 18.4305 19.4582 18.3686C19.5219 18.3067 19.6082 18.2719 19.6983 18.2718H25.302C25.3921 18.2719 25.4784 18.3067 25.5421 18.3686C25.6058 18.4305 25.6416 18.5144 25.6417 18.602V21.5728C25.6416 21.6604 25.6058 21.7443 25.5421 21.8062C25.4785 21.868 25.3921 21.9029 25.3021 21.9029H19.6983C19.6082 21.9029 19.5219 21.8681 19.4582 21.8062C19.3945 21.7443 19.3587 21.6604 19.3587 21.5728V20.9126C19.3587 20.847 19.3318 20.784 19.284 20.7376C19.2363 20.6911 19.1715 20.6651 19.1039 20.6651C19.0364 20.6651 18.9716 20.6911 18.9238 20.7376C18.8761 20.784 18.8492 20.847 18.8492 20.9126V21.5728C18.8495 21.7916 18.939 22.0014 19.0982 22.1561C19.2574 22.3108 19.4732 22.3978 19.6983 22.3981H21.7961C21.8407 22.9372 21.8231 23.4794 21.7436 24.0147C21.6427 24.6927 21.0292 25.2038 20.3166 25.2038H19.9529C19.6603 25.2041 19.3797 25.3172 19.1728 25.5183C18.9658 25.7195 18.8494 25.9922 18.8491 26.2766V26.8843C18.658 26.9283 18.4824 27.0211 18.3405 27.153C18.1986 27.285 18.0955 27.4514 18.0419 27.6351C17.9883 27.8187 17.9861 28.0129 18.0355 28.1977C18.085 28.3824 18.1842 28.551 18.3231 28.6859C18.462 28.8209 18.6354 28.9174 18.8255 28.9655C19.0156 29.0135 19.2154 29.0114 19.4043 28.9593C19.5933 28.9072 19.7645 28.807 19.9003 28.669C20.036 28.5311 20.1315 28.3605 20.1767 28.1747H24.8233C24.8685 28.3605 24.964 28.5311 25.0997 28.669C25.2355 28.807 25.4067 28.9072 25.5957 28.9593C25.7846 29.0114 25.9844 29.0135 26.1745 28.9655C26.3646 28.9174 26.538 28.8209 26.6769 28.6859C26.8158 28.551 26.915 28.3824 26.9645 28.1977C27.0139 28.0129 27.0117 27.8187 26.9581 27.6351C26.9045 27.4514 26.8014 27.285 26.6595 27.153C26.5176 27.0211 26.3422 26.9283 26.1511 26.8843ZM19.7832 15.9612V12.6602C19.7832 12.6164 19.8012 12.5745 19.833 12.5436C19.8648 12.5126 19.908 12.4952 19.953 12.4952H25.0472C25.0922 12.4952 25.1354 12.5126 25.1672 12.5436C25.199 12.5745 25.2169 12.6164 25.217 12.6602V15.9612C25.2169 16.0049 25.199 16.0469 25.1672 16.0778C25.1354 16.1087 25.0922 16.1261 25.0472 16.1262H19.953C19.908 16.1261 19.8648 16.1087 19.833 16.0778C19.8012 16.0469 19.7832 16.0049 19.7832 15.9612ZM19.953 25.699H20.3167C21.2808 25.699 22.1111 25.0055 22.2479 24.0857C22.3309 23.5269 22.3506 22.961 22.3068 22.3981H22.6715C22.6249 22.9664 22.6466 23.5381 22.736 24.1017C22.8809 25.0124 23.71 25.6991 24.6648 25.6991H25.0473C25.1597 25.6993 25.2696 25.7304 25.3645 25.7888C25.4594 25.8472 25.5353 25.9306 25.5835 26.0292H19.4168C19.465 25.9306 19.5409 25.8472 19.6358 25.7888C19.7307 25.7303 19.8407 25.6992 19.953 25.699ZM19.1039 28.5048C18.9864 28.5048 18.8715 28.471 18.7737 28.4075C18.676 28.344 18.5998 28.2538 18.5548 28.1482C18.5099 28.0427 18.4981 27.9265 18.521 27.8145C18.544 27.7024 18.6006 27.5995 18.6837 27.5187C18.7668 27.4379 18.8727 27.3829 18.988 27.3606C19.1033 27.3383 19.2228 27.3497 19.3314 27.3935C19.44 27.4372 19.5328 27.5112 19.5981 27.6063C19.6634 27.7013 19.6983 27.8129 19.6983 27.9272C19.6981 28.0803 19.6354 28.2271 19.524 28.3354C19.4125 28.4437 19.2615 28.5046 19.1039 28.5048ZM24.8235 27.6796H20.1769C20.1293 27.4865 20.0277 27.3101 19.8833 27.1697C19.7388 27.0293 19.5573 26.9306 19.3586 26.8843V26.5242H25.6417V26.8843C25.443 26.9306 25.2615 27.0293 25.117 27.1697C24.9726 27.3101 24.871 27.4865 24.8235 27.6796ZM25.8964 28.5048C25.7788 28.5048 25.6639 28.471 25.5662 28.4075C25.4685 28.344 25.3923 28.2538 25.3473 28.1482C25.3023 28.0427 25.2905 27.9265 25.3135 27.8145C25.3364 27.7024 25.393 27.5995 25.4761 27.5187C25.5593 27.4379 25.6652 27.3829 25.7805 27.3606C25.8957 27.3383 26.0153 27.3497 26.1239 27.3935C26.2325 27.4372 26.3253 27.5112 26.3906 27.6063C26.4559 27.7013 26.4907 27.8129 26.4907 27.9272C26.4905 28.0803 26.4278 28.2271 26.3164 28.3354C26.205 28.4437 26.054 28.5046 25.8964 28.5048Z" fill="white"/>
<path d="M26.1511 26.8843V26.2768C26.1508 25.9924 26.0344 25.7197 25.8274 25.5185C25.6205 25.3174 25.34 25.2043 25.0473 25.204H24.6648C23.959 25.204 23.3462 24.6975 23.2394 24.026C23.1539 23.4875 23.1347 22.941 23.1822 22.3981H25.302C25.5272 22.3979 25.743 22.3108 25.9021 22.1561C26.0613 22.0014 26.1509 21.7916 26.1511 21.5728V18.602C26.1508 18.3832 26.0613 18.1734 25.9021 18.0187C25.743 17.864 25.5272 17.777 25.302 17.7767H22.7549V16.6215H25.0473C25.2274 16.6213 25.4001 16.5517 25.5274 16.4279C25.6547 16.3041 25.7264 16.1363 25.7266 15.9613V12.6602C25.7264 12.4852 25.6547 12.3174 25.5274 12.1936C25.4001 12.0698 25.2274 12.0002 25.0473 12H19.9531C19.773 12.0002 19.6004 12.0698 19.4731 12.1936C19.3457 12.3174 19.2741 12.4852 19.2739 12.6602V15.9612C19.2741 16.1362 19.3457 16.304 19.473 16.4278C19.6003 16.5516 19.7729 16.6213 19.953 16.6215H22.2454V17.7768H19.6983C19.4732 17.7771 19.2574 17.8641 19.0982 18.0188C18.939 18.1735 18.8495 18.3833 18.8492 18.6021V19.2623C18.8492 19.3279 18.8761 19.3909 18.9238 19.4373C18.9716 19.4837 19.0364 19.5098 19.1039 19.5098C19.1715 19.5098 19.2363 19.4837 19.284 19.4373C19.3318 19.3909 19.3587 19.3279 19.3587 19.2623V18.602C19.3587 18.5144 19.3945 18.4305 19.4582 18.3686C19.5219 18.3067 19.6082 18.2719 19.6983 18.2718H25.302C25.3921 18.2719 25.4784 18.3067 25.5421 18.3686C25.6058 18.4305 25.6416 18.5144 25.6417 18.602V21.5728C25.6416 21.6604 25.6058 21.7443 25.5421 21.8062C25.4785 21.868 25.3921 21.9029 25.3021 21.9029H19.6983C19.6082 21.9029 19.5219 21.8681 19.4582 21.8062C19.3945 21.7443 19.3587 21.6604 19.3587 21.5728V20.9126C19.3587 20.847 19.3318 20.784 19.284 20.7376C19.2363 20.6911 19.1715 20.6651 19.1039 20.6651C19.0364 20.6651 18.9716 20.6911 18.9238 20.7376C18.8761 20.784 18.8492 20.847 18.8492 20.9126V21.5728C18.8495 21.7916 18.939 22.0014 19.0982 22.1561C19.2574 22.3108 19.4732 22.3978 19.6983 22.3981H21.7961C21.8407 22.9372 21.8231 23.4794 21.7436 24.0147C21.6427 24.6927 21.0292 25.2038 20.3166 25.2038H19.9529C19.6603 25.2041 19.3797 25.3172 19.1728 25.5183C18.9658 25.7195 18.8494 25.9922 18.8491 26.2766V26.8843C18.658 26.9283 18.4824 27.0211 18.3405 27.153C18.1986 27.285 18.0955 27.4514 18.0419 27.6351C17.9883 27.8187 17.9861 28.0129 18.0355 28.1977C18.085 28.3824 18.1842 28.551 18.3231 28.6859C18.462 28.8209 18.6354 28.9174 18.8255 28.9655C19.0156 29.0135 19.2154 29.0114 19.4043 28.9593C19.5933 28.9072 19.7645 28.807 19.9003 28.669C20.036 28.5311 20.1315 28.3605 20.1767 28.1747H24.8233C24.8685 28.3605 24.964 28.5311 25.0997 28.669C25.2355 28.807 25.4067 28.9072 25.5957 28.9593C25.7846 29.0114 25.9844 29.0135 26.1745 28.9655C26.3646 28.9174 26.538 28.8209 26.6769 28.6859C26.8158 28.551 26.915 28.3824 26.9645 28.1977C27.0139 28.0129 27.0117 27.8187 26.9581 27.6351C26.9045 27.4514 26.8014 27.285 26.6595 27.153C26.5176 27.0211 26.3422 26.9283 26.1511 26.8843ZM19.7832 15.9612V12.6602C19.7832 12.6164 19.8012 12.5745 19.833 12.5436C19.8648 12.5126 19.908 12.4952 19.953 12.4952H25.0472C25.0922 12.4952 25.1354 12.5126 25.1672 12.5436C25.199 12.5745 25.2169 12.6164 25.217 12.6602V15.9612C25.2169 16.0049 25.199 16.0469 25.1672 16.0778C25.1354 16.1087 25.0922 16.1261 25.0472 16.1262H19.953C19.908 16.1261 19.8648 16.1087 19.833 16.0778C19.8012 16.0469 19.7832 16.0049 19.7832 15.9612ZM19.953 25.699H20.3167C21.2808 25.699 22.1111 25.0055 22.2479 24.0857C22.3309 23.5269 22.3506 22.961 22.3068 22.3981H22.6715C22.6249 22.9664 22.6466 23.5381 22.736 24.1017C22.8809 25.0124 23.71 25.6991 24.6648 25.6991H25.0473C25.1597 25.6993 25.2696 25.7304 25.3645 25.7888C25.4594 25.8472 25.5353 25.9306 25.5835 26.0292H19.4168C19.465 25.9306 19.5409 25.8472 19.6358 25.7888C19.7307 25.7303 19.8407 25.6992 19.953 25.699ZM19.1039 28.5048C18.9864 28.5048 18.8715 28.471 18.7737 28.4075C18.676 28.344 18.5998 28.2538 18.5548 28.1482C18.5099 28.0427 18.4981 27.9265 18.521 27.8145C18.544 27.7024 18.6006 27.5995 18.6837 27.5187C18.7668 27.4379 18.8727 27.3829 18.988 27.3606C19.1033 27.3383 19.2228 27.3497 19.3314 27.3935C19.44 27.4372 19.5328 27.5112 19.5981 27.6063C19.6634 27.7013 19.6983 27.8129 19.6983 27.9272C19.6981 28.0803 19.6354 28.2271 19.524 28.3354C19.4125 28.4437 19.2615 28.5046 19.1039 28.5048ZM24.8235 27.6796H20.1769C20.1293 27.4865 20.0277 27.3101 19.8833 27.1697C19.7388 27.0293 19.5573 26.9306 19.3586 26.8843V26.5242H25.6417V26.8843C25.443 26.9306 25.2615 27.0293 25.117 27.1697C24.9726 27.3101 24.871 27.4865 24.8235 27.6796ZM25.8964 28.5048C25.7788 28.5048 25.6639 28.471 25.5662 28.4075C25.4685 28.344 25.3923 28.2538 25.3473 28.1482C25.3023 28.0427 25.2905 27.9265 25.3135 27.8145C25.3364 27.7024 25.393 27.5995 25.4761 27.5187C25.5593 27.4379 25.6652 27.3829 25.7805 27.3606C25.8957 27.3383 26.0153 27.3497 26.1239 27.3935C26.2325 27.4372 26.3253 27.5112 26.3906 27.6063C26.4559 27.7013 26.4907 27.8129 26.4907 27.9272C26.4905 28.0803 26.4278 28.2271 26.3164 28.3354C26.205 28.4437 26.054 28.5046 25.8964 28.5048Z" stroke="white" stroke-width="0.4" mask="url(#path-2-outside-1_984_14212)"/>
<path d="M23.7214 14.2132H24.756C24.8215 14.2138 24.8839 14.2398 24.93 14.2852C24.976 14.3306 25.0019 14.392 25.0019 14.4559C25.0019 14.5199 24.976 14.5812 24.93 14.6266C24.8839 14.6721 24.8214 14.6979 24.756 14.6986H23.8748L23.5296 15.373C23.5073 15.4165 23.4722 15.4525 23.4288 15.4762C23.3854 15.5 23.3357 15.5105 23.2861 15.5063C23.2365 15.5021 23.1894 15.4835 23.1507 15.4528C23.1121 15.4221 23.0839 15.3808 23.0696 15.3343L22.7063 14.1517L22.3063 15.6907C22.2928 15.7429 22.2618 15.7893 22.2182 15.8224C22.1746 15.8556 22.121 15.8736 22.0658 15.8736H22.0611C22.005 15.8726 21.951 15.8531 21.9077 15.8183C21.8645 15.7835 21.8346 15.7354 21.8229 15.6818L21.5413 14.3971L21.4623 14.5598C21.4421 14.6013 21.4103 14.6364 21.3706 14.6609C21.3309 14.6854 21.2849 14.6985 21.2379 14.6985H20.617C20.5515 14.6978 20.489 14.672 20.443 14.6266C20.3969 14.5811 20.3711 14.5198 20.3711 14.4558C20.3711 14.3919 20.3969 14.3305 20.443 14.2851C20.489 14.2397 20.5515 14.2138 20.617 14.2132H21.0809L21.4065 13.543C21.4288 13.4972 21.4652 13.4594 21.5106 13.4348C21.556 13.4102 21.6081 13.4002 21.6597 13.4061C21.7112 13.4119 21.7596 13.4335 21.798 13.4676C21.8364 13.5017 21.8629 13.5467 21.8737 13.5963L22.0863 14.5662L22.4458 13.183C22.4592 13.1316 22.4894 13.0858 22.5319 13.0528C22.5744 13.0197 22.6269 13.0012 22.6812 13.0001C22.7356 12.9984 22.7891 13.0144 22.8331 13.0458C22.8772 13.0771 22.9093 13.1218 22.9243 13.173L23.3653 14.609L23.4992 14.3473C23.5198 14.307 23.5515 14.2731 23.5908 14.2494C23.63 14.2257 23.6752 14.2132 23.7214 14.2132Z" fill="white"/>
<path d="M23.7214 14.2132H24.756C24.8215 14.2138 24.8839 14.2398 24.93 14.2852C24.976 14.3306 25.0019 14.392 25.0019 14.4559C25.0019 14.5199 24.976 14.5812 24.93 14.6266C24.8839 14.6721 24.8214 14.6979 24.756 14.6986H23.8748L23.5296 15.373C23.5073 15.4165 23.4722 15.4525 23.4288 15.4762C23.3854 15.5 23.3357 15.5105 23.2861 15.5063C23.2365 15.5021 23.1894 15.4835 23.1507 15.4528C23.1121 15.4221 23.0839 15.3808 23.0696 15.3343L22.7063 14.1517L22.3063 15.6907C22.2928 15.7429 22.2618 15.7893 22.2182 15.8224C22.1746 15.8556 22.121 15.8736 22.0658 15.8736H22.0611C22.005 15.8726 21.951 15.8531 21.9077 15.8183C21.8645 15.7835 21.8346 15.7354 21.8229 15.6818L21.5413 14.3971L21.4623 14.5598C21.4421 14.6013 21.4103 14.6364 21.3706 14.6609C21.3309 14.6854 21.2849 14.6985 21.2379 14.6985H20.617C20.5515 14.6978 20.489 14.672 20.443 14.6266C20.3969 14.5811 20.3711 14.5198 20.3711 14.4558C20.3711 14.3919 20.3969 14.3305 20.443 14.2851C20.489 14.2397 20.5515 14.2138 20.617 14.2132H21.0809L21.4065 13.543C21.4288 13.4972 21.4652 13.4594 21.5106 13.4348C21.556 13.4102 21.6081 13.4002 21.6597 13.4061C21.7112 13.4119 21.7596 13.4335 21.798 13.4676C21.8364 13.5017 21.8629 13.5467 21.8737 13.5963L22.0863 14.5662L22.4458 13.183C22.4592 13.1316 22.4894 13.0858 22.5319 13.0528C22.5744 13.0197 22.6269 13.0012 22.6812 13.0001C22.7356 12.9984 22.7891 13.0144 22.8331 13.0458C22.8772 13.0771 22.9093 13.1218 22.9243 13.173L23.3653 14.609L23.4992 14.3473C23.5198 14.307 23.5515 14.2731 23.5908 14.2494C23.63 14.2257 23.6752 14.2132 23.7214 14.2132Z" stroke="white"/>
<path d="M22.8649 20.575L22.8572 20.575C22.7724 20.5743 22.6886 20.5593 22.6104 20.5308C22.53 20.5014 22.4573 20.4584 22.3964 20.4045L22.3963 20.4045C22.3717 20.3828 22.3428 20.3658 22.3114 20.3544C22.28 20.3429 22.2465 20.3371 22.2128 20.3371C22.1791 20.3371 22.1456 20.3429 22.1142 20.3544L22.1314 20.4013L22.1142 20.3544C22.0828 20.3658 22.0539 20.3828 22.0293 20.4045C22.0046 20.4262 21.9847 20.4523 21.971 20.4815C21.9572 20.5108 21.95 20.5424 21.95 20.5745C21.95 20.6067 21.9572 20.6383 21.971 20.6676C21.9847 20.6968 22.0046 20.7229 22.0293 20.7446L22.0623 20.7071L22.0293 20.7446C22.1953 20.8909 22.4062 20.99 22.6349 21.03C22.8636 21.0701 23.1007 21.0496 23.3165 20.9708C23.5322 20.8921 23.7176 20.7584 23.8485 20.5858C23.9796 20.413 24.05 20.2092 24.05 20C24.05 19.7908 23.9796 19.587 23.8485 19.4142C23.7176 19.2416 23.5322 19.1079 23.3165 19.0292C23.1007 18.9504 22.8636 18.9299 22.6349 18.97C22.4062 19.01 22.1953 19.1091 22.0293 19.2554L22.0293 19.2554L22.029 19.2556C21.9798 19.2997 21.9509 19.3605 21.9512 19.4254C21.9515 19.4902 21.9809 19.5508 22.0305 19.5945C22.0798 19.638 22.1455 19.6617 22.213 19.6619C22.2804 19.6621 22.3463 19.6389 22.396 19.5958L22.396 19.5958L22.3963 19.5955C22.4727 19.5282 22.5673 19.4781 22.6719 19.4502C22.7765 19.4222 22.8874 19.4174 22.9947 19.4362C23.102 19.455 23.202 19.4967 23.2857 19.5573C23.3695 19.6179 23.4343 19.6952 23.4752 19.782C23.516 19.8688 23.5317 19.9627 23.5213 20.0557C23.5109 20.1486 23.4746 20.2384 23.415 20.317C23.3554 20.3956 23.2741 20.4607 23.1781 20.506C23.082 20.5512 22.9745 20.575 22.8649 20.575Z" fill="white" stroke="white" stroke-width="0.1"/>
<path d="M17.4195 18.8235V18.8235V16.0736C17.4195 15.6154 17.2331 15.1756 16.9011 14.8512C16.569 14.5267 16.1184 14.3443 15.6483 14.3443C15.1782 14.3443 14.7275 14.5267 14.3954 14.8512C14.0634 15.1756 13.8771 15.6154 13.8771 16.0736V17.5784C14.1797 17.9169 15.2076 19.1793 15.2076 20.7243C15.2076 21.6129 14.8674 22.4076 14.5222 22.9856C14.1768 23.564 13.8242 23.9292 13.7938 23.9601C13.7938 23.9601 13.7938 23.9601 13.7938 23.9601L17.4195 18.8235ZM17.4195 18.8235C17.4199 19.2446 17.5913 19.648 17.8957 19.9454C18.2 20.2427 18.6124 20.4098 19.0422 20.4102H19.0423M17.4195 18.8235L19.0423 20.4102M19.0423 20.4102H22.6019C22.6806 20.4102 22.7564 20.3797 22.8124 20.3249M19.0423 20.4102L22.8124 20.3249M22.8124 20.3249C22.8685 20.2701 22.9002 20.1956 22.9002 20.1176M22.8124 20.3249L22.9002 20.1176M22.9002 20.1176C22.9002 20.0396 22.8685 19.965 22.8124 19.9103M22.9002 20.1176L22.8124 19.9103M22.8124 19.9103C22.7564 19.8555 22.6806 19.825 22.6019 19.825M22.8124 19.9103L22.6019 19.825M22.6019 19.825H19.0424M22.6019 19.825H19.0424M19.0424 19.825C18.7699 19.8247 18.5089 19.7188 18.3166 19.5309C18.1244 19.343 18.0164 19.0886 18.0161 18.8234V16.0737C18.0161 15.4594 17.7664 14.8705 17.3222 14.4365C16.878 14.0026 16.2759 13.759 15.6483 13.759C15.0206 13.759 14.4185 14.0026 13.9744 14.4365C13.5302 14.8705 13.2804 15.4594 13.2804 16.0737V17.5784C12.9778 17.9169 11.95 19.1793 11.95 20.7243C11.95 21.6129 12.2901 22.4076 12.6353 22.9856C12.9807 23.564 13.3334 23.9292 13.3636 23.9601L19.0424 19.825ZM12.5467 20.7241C12.5467 19.5932 13.2195 18.596 13.5787 18.1447C13.938 18.596 14.6109 19.5932 14.6109 20.7241C14.6109 21.855 13.9379 22.8524 13.5787 23.3036C13.2194 22.8523 12.5467 21.855 12.5467 20.7241Z" fill="white" stroke="white" stroke-width="0.1"/>
</svg>
