<svg width="40" height="40" viewBox="0 0 40 40" fill="none" xmlns="http://www.w3.org/2000/svg">
<rect x="2" y="2" width="36" height="36" rx="18" fill="#6B4892"/>
<rect x="2" y="2" width="36" height="36" rx="18" stroke="#F1EDF6" stroke-width="4"/>
<g clip-path="url(#clip0_984_15943)">
<mask id="path-2-outside-1_984_15943" maskUnits="userSpaceOnUse" x="12" y="9" width="18" height="22" fill="black">
<rect fill="white" x="12" y="9" width="18" height="22"/>
<path d="M17.9053 10.0242C16.8704 10.251 16.2687 11.197 16.6197 12.0609C16.7884 12.4714 17.226 12.8505 17.7001 12.9952L17.9417 13.0655L17.9873 13.3548C18.0466 13.6871 18.1286 13.8356 18.3475 14.0037C18.5799 14.1757 18.7623 14.207 19.6193 14.207C20.5994 14.207 20.563 14.1836 20.563 14.809V15.2508L20.2986 15.2742C19.9703 15.2977 19.7834 15.3759 19.6193 15.5635C19.5008 15.6964 19.4917 15.7355 19.478 16.1303L19.4598 16.5525H16.328H13.1916L13.0959 16.6424C12.9728 16.7558 12.9682 16.9043 13.0822 17.0255L13.1688 17.1193L20.3442 17.1389L27.515 17.1584L27.7064 17.2444C27.8067 17.2913 27.9571 17.3969 28.0346 17.479C28.331 17.7839 28.3173 17.4868 28.3036 23.3583L28.2899 28.6904L28.1577 28.8976C28.0848 29.0071 27.9571 29.1439 27.8751 29.1986C27.5332 29.4254 27.8022 29.4136 22.0126 29.4136H16.6835L16.5741 29.5114C16.4283 29.6325 16.4283 29.7811 16.5741 29.9062L16.6835 30L22.1448 29.9922L27.6061 29.9805L27.9116 29.8554C28.454 29.6364 28.8415 29.2104 28.9509 28.7139C29.0193 28.409 29.0148 18.0732 28.9464 17.7956C28.8324 17.3226 28.4221 16.8809 27.9116 16.6776C27.6654 16.576 27.6107 16.5721 26.8448 16.5603L26.0334 16.5447V16.189C26.0288 15.5791 25.7963 15.3172 25.2174 15.2742L24.9393 15.2508V14.809C24.9393 14.1836 24.9074 14.207 25.8784 14.207C26.7172 14.207 26.8995 14.1757 27.1548 13.9998C27.3782 13.8396 27.4922 13.6206 27.4922 13.3235V13.0812L27.7247 13.0186C28.5589 12.7841 29.1059 12.0257 28.9555 11.3064C28.8506 10.7826 28.4723 10.3565 27.9116 10.1298C27.6335 10.0164 27.5651 10.0047 27.1731 10.0047C26.781 10.0047 26.7126 10.0164 26.4345 10.1298C26.0106 10.3018 25.7462 10.5207 25.541 10.8764C25.3815 11.1579 25.3724 11.1931 25.3769 11.5253C25.3815 11.9319 25.4499 12.1273 25.7006 12.4401C25.8966 12.6864 26.2157 12.8935 26.544 12.9952L26.7856 13.0655L26.7992 13.2805C26.8175 13.5972 26.8129 13.5972 25.7827 13.6206C24.9211 13.6402 24.9074 13.6402 24.7205 13.7496C24.6156 13.8083 24.4743 13.9295 24.4059 14.0194C24.2829 14.1718 24.2783 14.207 24.2646 14.723L24.2464 15.2625H23.6583H23.0702V14.1718V13.0812L23.3027 13.0186C23.7677 12.8857 24.1734 12.5847 24.374 12.2173C24.8117 11.4315 24.447 10.5363 23.5352 10.1532C23.207 10.0125 23.166 10.0047 22.7557 10.0047C22.3591 10.0047 22.2907 10.0164 22.0126 10.1298C21.4565 10.3565 21.0918 10.7474 20.9733 11.2556C20.8 11.9788 21.306 12.7489 22.122 12.9952L22.3637 13.0655L22.3773 14.164L22.3864 15.2625H21.8166H21.2468V14.809C21.2468 14.2539 21.1921 14.078 20.9505 13.8747C20.6952 13.6558 20.5219 13.6206 19.6376 13.6206C18.7441 13.6206 18.6939 13.605 18.662 13.2805L18.6392 13.0851L18.8763 13.0186C19.3412 12.8896 19.747 12.5925 19.9521 12.229C20.5219 11.2322 19.7196 10.0555 18.4386 10.0047C18.238 9.99295 18.001 10.0047 17.9053 10.0242ZM18.8444 10.6849C19.3686 10.9038 19.6057 11.5097 19.3458 11.9593C19.2182 12.1782 18.858 12.4479 18.6939 12.4479C18.6666 12.4479 18.6483 12.2642 18.6483 11.928C18.6483 11.3572 18.6301 11.3103 18.3703 11.2556C18.2791 11.2361 18.2198 11.2556 18.1195 11.326C17.9873 11.4237 17.9873 11.4276 17.9736 11.9358C17.9645 12.2173 17.9463 12.4479 17.9372 12.4479C17.8688 12.4479 17.65 12.3189 17.5269 12.2055C17.2215 11.928 17.1303 11.6192 17.2534 11.2595C17.4494 10.6888 18.2016 10.419 18.8444 10.6849ZM23.1113 10.6301C23.3894 10.7122 23.5854 10.8569 23.7358 11.0875C23.8452 11.2595 23.868 11.3377 23.8635 11.5488C23.8589 11.8303 23.7814 11.9983 23.5535 12.2055C23.4121 12.3345 23.2116 12.4479 23.1158 12.4479C23.0885 12.4479 23.0702 12.2642 23.0702 11.928C23.0702 11.3572 23.052 11.3103 22.7922 11.2556C22.701 11.2361 22.6417 11.2556 22.5414 11.326C22.4092 11.4237 22.4092 11.4276 22.3956 11.9358C22.3864 12.2173 22.3682 12.4479 22.3591 12.4479C22.2907 12.4479 22.0719 12.3189 21.9488 12.2055C21.7163 11.9944 21.6388 11.8303 21.6343 11.5488C21.6297 10.8725 22.3773 10.4073 23.1113 10.6301ZM27.5332 10.6301C27.8113 10.7122 28.0073 10.8569 28.1532 11.0875C28.3127 11.3416 28.3355 11.7169 28.2033 11.9397C28.0574 12.1782 27.711 12.4479 27.5377 12.4479C27.5104 12.4479 27.4922 12.2642 27.4922 11.928C27.4922 11.3572 27.4739 11.3103 27.2141 11.2556C27.1229 11.2361 27.0636 11.2556 26.9634 11.326C26.8312 11.4237 26.8312 11.4276 26.8175 11.9358C26.8084 12.2173 26.7901 12.4479 26.781 12.4479C26.7126 12.4479 26.4938 12.3189 26.3707 12.2055C26.1382 11.9983 26.0607 11.8303 26.0562 11.5488C26.0516 10.8725 26.7992 10.4073 27.5332 10.6301ZM25.2766 15.8723C25.3359 15.8919 25.3496 15.9622 25.3496 16.2241V16.5525H22.7511H20.1527V16.2241C20.1527 15.9974 20.1709 15.888 20.212 15.8762C20.294 15.845 25.19 15.845 25.2766 15.8723Z"/>
</mask>
<path d="M17.9053 10.0242C16.8704 10.251 16.2687 11.197 16.6197 12.0609C16.7884 12.4714 17.226 12.8505 17.7001 12.9952L17.9417 13.0655L17.9873 13.3548C18.0466 13.6871 18.1286 13.8356 18.3475 14.0037C18.5799 14.1757 18.7623 14.207 19.6193 14.207C20.5994 14.207 20.563 14.1836 20.563 14.809V15.2508L20.2986 15.2742C19.9703 15.2977 19.7834 15.3759 19.6193 15.5635C19.5008 15.6964 19.4917 15.7355 19.478 16.1303L19.4598 16.5525H16.328H13.1916L13.0959 16.6424C12.9728 16.7558 12.9682 16.9043 13.0822 17.0255L13.1688 17.1193L20.3442 17.1389L27.515 17.1584L27.7064 17.2444C27.8067 17.2913 27.9571 17.3969 28.0346 17.479C28.331 17.7839 28.3173 17.4868 28.3036 23.3583L28.2899 28.6904L28.1577 28.8976C28.0848 29.0071 27.9571 29.1439 27.8751 29.1986C27.5332 29.4254 27.8022 29.4136 22.0126 29.4136H16.6835L16.5741 29.5114C16.4283 29.6325 16.4283 29.7811 16.5741 29.9062L16.6835 30L22.1448 29.9922L27.6061 29.9805L27.9116 29.8554C28.454 29.6364 28.8415 29.2104 28.9509 28.7139C29.0193 28.409 29.0148 18.0732 28.9464 17.7956C28.8324 17.3226 28.4221 16.8809 27.9116 16.6776C27.6654 16.576 27.6107 16.5721 26.8448 16.5603L26.0334 16.5447V16.189C26.0288 15.5791 25.7963 15.3172 25.2174 15.2742L24.9393 15.2508V14.809C24.9393 14.1836 24.9074 14.207 25.8784 14.207C26.7172 14.207 26.8995 14.1757 27.1548 13.9998C27.3782 13.8396 27.4922 13.6206 27.4922 13.3235V13.0812L27.7247 13.0186C28.5589 12.7841 29.1059 12.0257 28.9555 11.3064C28.8506 10.7826 28.4723 10.3565 27.9116 10.1298C27.6335 10.0164 27.5651 10.0047 27.1731 10.0047C26.781 10.0047 26.7126 10.0164 26.4345 10.1298C26.0106 10.3018 25.7462 10.5207 25.541 10.8764C25.3815 11.1579 25.3724 11.1931 25.3769 11.5253C25.3815 11.9319 25.4499 12.1273 25.7006 12.4401C25.8966 12.6864 26.2157 12.8935 26.544 12.9952L26.7856 13.0655L26.7992 13.2805C26.8175 13.5972 26.8129 13.5972 25.7827 13.6206C24.9211 13.6402 24.9074 13.6402 24.7205 13.7496C24.6156 13.8083 24.4743 13.9295 24.4059 14.0194C24.2829 14.1718 24.2783 14.207 24.2646 14.723L24.2464 15.2625H23.6583H23.0702V14.1718V13.0812L23.3027 13.0186C23.7677 12.8857 24.1734 12.5847 24.374 12.2173C24.8117 11.4315 24.447 10.5363 23.5352 10.1532C23.207 10.0125 23.166 10.0047 22.7557 10.0047C22.3591 10.0047 22.2907 10.0164 22.0126 10.1298C21.4565 10.3565 21.0918 10.7474 20.9733 11.2556C20.8 11.9788 21.306 12.7489 22.122 12.9952L22.3637 13.0655L22.3773 14.164L22.3864 15.2625H21.8166H21.2468V14.809C21.2468 14.2539 21.1921 14.078 20.9505 13.8747C20.6952 13.6558 20.5219 13.6206 19.6376 13.6206C18.7441 13.6206 18.6939 13.605 18.662 13.2805L18.6392 13.0851L18.8763 13.0186C19.3412 12.8896 19.747 12.5925 19.9521 12.229C20.5219 11.2322 19.7196 10.0555 18.4386 10.0047C18.238 9.99295 18.001 10.0047 17.9053 10.0242ZM18.8444 10.6849C19.3686 10.9038 19.6057 11.5097 19.3458 11.9593C19.2182 12.1782 18.858 12.4479 18.6939 12.4479C18.6666 12.4479 18.6483 12.2642 18.6483 11.928C18.6483 11.3572 18.6301 11.3103 18.3703 11.2556C18.2791 11.2361 18.2198 11.2556 18.1195 11.326C17.9873 11.4237 17.9873 11.4276 17.9736 11.9358C17.9645 12.2173 17.9463 12.4479 17.9372 12.4479C17.8688 12.4479 17.65 12.3189 17.5269 12.2055C17.2215 11.928 17.1303 11.6192 17.2534 11.2595C17.4494 10.6888 18.2016 10.419 18.8444 10.6849ZM23.1113 10.6301C23.3894 10.7122 23.5854 10.8569 23.7358 11.0875C23.8452 11.2595 23.868 11.3377 23.8635 11.5488C23.8589 11.8303 23.7814 11.9983 23.5535 12.2055C23.4121 12.3345 23.2116 12.4479 23.1158 12.4479C23.0885 12.4479 23.0702 12.2642 23.0702 11.928C23.0702 11.3572 23.052 11.3103 22.7922 11.2556C22.701 11.2361 22.6417 11.2556 22.5414 11.326C22.4092 11.4237 22.4092 11.4276 22.3956 11.9358C22.3864 12.2173 22.3682 12.4479 22.3591 12.4479C22.2907 12.4479 22.0719 12.3189 21.9488 12.2055C21.7163 11.9944 21.6388 11.8303 21.6343 11.5488C21.6297 10.8725 22.3773 10.4073 23.1113 10.6301ZM27.5332 10.6301C27.8113 10.7122 28.0073 10.8569 28.1532 11.0875C28.3127 11.3416 28.3355 11.7169 28.2033 11.9397C28.0574 12.1782 27.711 12.4479 27.5377 12.4479C27.5104 12.4479 27.4922 12.2642 27.4922 11.928C27.4922 11.3572 27.4739 11.3103 27.2141 11.2556C27.1229 11.2361 27.0636 11.2556 26.9634 11.326C26.8312 11.4237 26.8312 11.4276 26.8175 11.9358C26.8084 12.2173 26.7901 12.4479 26.781 12.4479C26.7126 12.4479 26.4938 12.3189 26.3707 12.2055C26.1382 11.9983 26.0607 11.8303 26.0562 11.5488C26.0516 10.8725 26.7992 10.4073 27.5332 10.6301ZM25.2766 15.8723C25.3359 15.8919 25.3496 15.9622 25.3496 16.2241V16.5525H22.7511H20.1527V16.2241C20.1527 15.9974 20.1709 15.888 20.212 15.8762C20.294 15.845 25.19 15.845 25.2766 15.8723Z" fill="white"/>
<path d="M17.9053 10.0242C16.8704 10.251 16.2687 11.197 16.6197 12.0609C16.7884 12.4714 17.226 12.8505 17.7001 12.9952L17.9417 13.0655L17.9873 13.3548C18.0466 13.6871 18.1286 13.8356 18.3475 14.0037C18.5799 14.1757 18.7623 14.207 19.6193 14.207C20.5994 14.207 20.563 14.1836 20.563 14.809V15.2508L20.2986 15.2742C19.9703 15.2977 19.7834 15.3759 19.6193 15.5635C19.5008 15.6964 19.4917 15.7355 19.478 16.1303L19.4598 16.5525H16.328H13.1916L13.0959 16.6424C12.9728 16.7558 12.9682 16.9043 13.0822 17.0255L13.1688 17.1193L20.3442 17.1389L27.515 17.1584L27.7064 17.2444C27.8067 17.2913 27.9571 17.3969 28.0346 17.479C28.331 17.7839 28.3173 17.4868 28.3036 23.3583L28.2899 28.6904L28.1577 28.8976C28.0848 29.0071 27.9571 29.1439 27.8751 29.1986C27.5332 29.4254 27.8022 29.4136 22.0126 29.4136H16.6835L16.5741 29.5114C16.4283 29.6325 16.4283 29.7811 16.5741 29.9062L16.6835 30L22.1448 29.9922L27.6061 29.9805L27.9116 29.8554C28.454 29.6364 28.8415 29.2104 28.9509 28.7139C29.0193 28.409 29.0148 18.0732 28.9464 17.7956C28.8324 17.3226 28.4221 16.8809 27.9116 16.6776C27.6654 16.576 27.6107 16.5721 26.8448 16.5603L26.0334 16.5447V16.189C26.0288 15.5791 25.7963 15.3172 25.2174 15.2742L24.9393 15.2508V14.809C24.9393 14.1836 24.9074 14.207 25.8784 14.207C26.7172 14.207 26.8995 14.1757 27.1548 13.9998C27.3782 13.8396 27.4922 13.6206 27.4922 13.3235V13.0812L27.7247 13.0186C28.5589 12.7841 29.1059 12.0257 28.9555 11.3064C28.8506 10.7826 28.4723 10.3565 27.9116 10.1298C27.6335 10.0164 27.5651 10.0047 27.1731 10.0047C26.781 10.0047 26.7126 10.0164 26.4345 10.1298C26.0106 10.3018 25.7462 10.5207 25.541 10.8764C25.3815 11.1579 25.3724 11.1931 25.3769 11.5253C25.3815 11.9319 25.4499 12.1273 25.7006 12.4401C25.8966 12.6864 26.2157 12.8935 26.544 12.9952L26.7856 13.0655L26.7992 13.2805C26.8175 13.5972 26.8129 13.5972 25.7827 13.6206C24.9211 13.6402 24.9074 13.6402 24.7205 13.7496C24.6156 13.8083 24.4743 13.9295 24.4059 14.0194C24.2829 14.1718 24.2783 14.207 24.2646 14.723L24.2464 15.2625H23.6583H23.0702V14.1718V13.0812L23.3027 13.0186C23.7677 12.8857 24.1734 12.5847 24.374 12.2173C24.8117 11.4315 24.447 10.5363 23.5352 10.1532C23.207 10.0125 23.166 10.0047 22.7557 10.0047C22.3591 10.0047 22.2907 10.0164 22.0126 10.1298C21.4565 10.3565 21.0918 10.7474 20.9733 11.2556C20.8 11.9788 21.306 12.7489 22.122 12.9952L22.3637 13.0655L22.3773 14.164L22.3864 15.2625H21.8166H21.2468V14.809C21.2468 14.2539 21.1921 14.078 20.9505 13.8747C20.6952 13.6558 20.5219 13.6206 19.6376 13.6206C18.7441 13.6206 18.6939 13.605 18.662 13.2805L18.6392 13.0851L18.8763 13.0186C19.3412 12.8896 19.747 12.5925 19.9521 12.229C20.5219 11.2322 19.7196 10.0555 18.4386 10.0047C18.238 9.99295 18.001 10.0047 17.9053 10.0242ZM18.8444 10.6849C19.3686 10.9038 19.6057 11.5097 19.3458 11.9593C19.2182 12.1782 18.858 12.4479 18.6939 12.4479C18.6666 12.4479 18.6483 12.2642 18.6483 11.928C18.6483 11.3572 18.6301 11.3103 18.3703 11.2556C18.2791 11.2361 18.2198 11.2556 18.1195 11.326C17.9873 11.4237 17.9873 11.4276 17.9736 11.9358C17.9645 12.2173 17.9463 12.4479 17.9372 12.4479C17.8688 12.4479 17.65 12.3189 17.5269 12.2055C17.2215 11.928 17.1303 11.6192 17.2534 11.2595C17.4494 10.6888 18.2016 10.419 18.8444 10.6849ZM23.1113 10.6301C23.3894 10.7122 23.5854 10.8569 23.7358 11.0875C23.8452 11.2595 23.868 11.3377 23.8635 11.5488C23.8589 11.8303 23.7814 11.9983 23.5535 12.2055C23.4121 12.3345 23.2116 12.4479 23.1158 12.4479C23.0885 12.4479 23.0702 12.2642 23.0702 11.928C23.0702 11.3572 23.052 11.3103 22.7922 11.2556C22.701 11.2361 22.6417 11.2556 22.5414 11.326C22.4092 11.4237 22.4092 11.4276 22.3956 11.9358C22.3864 12.2173 22.3682 12.4479 22.3591 12.4479C22.2907 12.4479 22.0719 12.3189 21.9488 12.2055C21.7163 11.9944 21.6388 11.8303 21.6343 11.5488C21.6297 10.8725 22.3773 10.4073 23.1113 10.6301ZM27.5332 10.6301C27.8113 10.7122 28.0073 10.8569 28.1532 11.0875C28.3127 11.3416 28.3355 11.7169 28.2033 11.9397C28.0574 12.1782 27.711 12.4479 27.5377 12.4479C27.5104 12.4479 27.4922 12.2642 27.4922 11.928C27.4922 11.3572 27.4739 11.3103 27.2141 11.2556C27.1229 11.2361 27.0636 11.2556 26.9634 11.326C26.8312 11.4237 26.8312 11.4276 26.8175 11.9358C26.8084 12.2173 26.7901 12.4479 26.781 12.4479C26.7126 12.4479 26.4938 12.3189 26.3707 12.2055C26.1382 11.9983 26.0607 11.8303 26.0562 11.5488C26.0516 10.8725 26.7992 10.4073 27.5332 10.6301ZM25.2766 15.8723C25.3359 15.8919 25.3496 15.9622 25.3496 16.2241V16.5525H22.7511H20.1527V16.2241C20.1527 15.9974 20.1709 15.888 20.212 15.8762C20.294 15.845 25.19 15.845 25.2766 15.8723Z" stroke="white" stroke-width="0.2" mask="url(#path-2-outside-1_984_15943)"/>
<path d="M12.1947 30.0304L12.2059 30.0305L14.7371 30.0422L17.2645 30.0539L17.2853 30.054L17.3001 30.0393L17.3977 29.9416C17.4672 29.8722 17.5061 29.7917 17.5061 29.7075C17.5061 29.6234 17.4673 29.544 17.3978 29.4765L17.3047 29.3794L17.2899 29.3641H17.2686H14.8506C13.9854 29.3641 13.3715 29.3611 12.9624 29.3538C12.7577 29.3502 12.6048 29.3454 12.4974 29.3394C12.4437 29.3364 12.4019 29.3331 12.3711 29.3296C12.3386 29.3259 12.3227 29.3223 12.3174 29.3204L12.3154 29.3196L12.3154 29.3197C12.0891 29.2455 11.8924 29.082 11.7814 28.8748L11.7809 28.8738L11.7809 28.8738L11.6701 28.6782L11.6584 23.3632C11.6584 23.3632 11.6584 23.3632 11.6584 23.3632C11.6581 23.171 11.6577 22.9854 11.6573 22.8063C11.6521 20.253 11.6495 18.9949 11.675 18.3438C11.6887 17.9941 11.7104 17.8252 11.7418 17.7259C11.7662 17.6489 11.795 17.6155 11.8398 17.5637C11.8501 17.5517 11.8613 17.5388 11.8735 17.5241L11.8741 17.5234L11.8741 17.5234C11.9309 17.4524 12.0689 17.3473 12.1771 17.295L12.1777 17.2947C12.2289 17.2691 12.2643 17.2518 12.3039 17.2388C12.343 17.226 12.3878 17.2171 12.4566 17.2109C12.5964 17.1985 12.8257 17.1984 13.2881 17.1984C13.6591 17.1984 13.8997 17.1955 14.0585 17.1866C14.2137 17.178 14.2999 17.1635 14.3543 17.1342C14.3545 17.134 14.3548 17.1339 14.355 17.1337L14.3311 17.0898C14.5108 17 14.542 16.832 14.4092 16.6641L12.1947 30.0304ZM12.1947 30.0304L12.1846 30.0256L11.9231 29.9007C11.9231 29.9007 11.923 29.9007 11.923 29.9006C11.444 29.6752 11.1014 29.2362 11.0046 28.7241L12.1947 30.0304ZM14.4484 16.6331C14.4485 16.6331 14.4486 16.6332 14.4487 16.6333L12.1202 16.6211C12.2374 16.582 12.5772 16.5664 13.3077 16.5664L13.3075 16.5164L13.3077 16.5164L14.3309 16.5125L14.3557 16.5124L14.3707 16.532L14.4484 16.6331Z" fill="white" stroke="white" stroke-width="0.1"/>
<path d="M12.8321 17.9063C12.6211 18.0039 12.4414 18.1836 12.3555 18.3867C12.3164 18.4883 12.3047 18.9609 12.3047 20.75C12.3047 23.25 12.2969 23.1523 12.5821 23.4258C12.8594 23.6875 12.6055 23.6719 16.8828 23.6719H20.7617L20.9649 23.5781C21.211 23.4609 21.3828 23.2383 21.4453 22.957C21.4766 22.8164 21.4844 22.0977 21.4766 20.625C21.4649 18.5273 21.4649 18.4922 21.3789 18.3398C21.3321 18.2539 21.2383 18.1289 21.1641 18.0586C20.8985 17.8008 21.0899 17.8125 16.8594 17.8125H13.0274L12.8321 17.9063ZM20.7696 18.4922L20.8789 18.5859L20.8906 19.6289L20.9024 20.668L20.7539 20.6563C20.6172 20.6445 20.586 20.6172 20.3477 20.2969C20.2031 20.1055 20.0547 19.9258 20.0156 19.8945C19.9141 19.8203 19.75 19.832 19.6641 19.9258C19.625 19.9688 19.4141 20.3242 19.1914 20.7148C18.8281 21.3594 18.7891 21.4141 18.7578 21.3281C18.7383 21.2734 18.6446 21.0195 18.5547 20.7617C18.3633 20.2109 18.3203 20.1367 18.1836 20.1016C18.0352 20.0625 17.9219 20.1445 17.6524 20.4844L17.4063 20.7891L17.2227 20.5898C16.8946 20.2461 16.711 20.2891 16.5274 20.75C16.4727 20.8906 16.4141 21.0195 16.4024 21.0313C16.3906 21.0469 16.2969 20.6484 16.1992 20.1523C16.086 19.6016 15.9922 19.2188 15.9531 19.1758C15.8594 19.0703 15.711 19.0508 15.5977 19.125C15.5313 19.168 15.3946 19.4063 15.1875 19.8398C15.0156 20.1953 14.8711 20.4961 14.8633 20.5C14.8555 20.5078 14.7305 20.418 14.586 20.2969C14.2227 20 14.1797 20 13.6953 20.3711C13.3281 20.6523 13.3008 20.6641 13.1016 20.6641H12.8906V19.6289V18.5898L12.9883 18.4961L13.0821 18.3984H16.8711H20.6602L20.7696 18.4922ZM15.8399 21.3281C15.9961 22.1367 16.0313 22.2578 16.1172 22.332C16.2344 22.4375 16.3672 22.4453 16.4805 22.3516C16.5235 22.3164 16.6524 22.043 16.7696 21.75L16.9766 21.2109L17.1289 21.3672C17.2422 21.4844 17.3125 21.5234 17.4024 21.5234C17.5469 21.5234 17.586 21.4922 17.8086 21.2188C17.9024 21.1094 17.9883 21.0156 18 21.0156C18.0156 21.0156 18.125 21.293 18.2422 21.6328C18.4649 22.2734 18.5586 22.4219 18.7305 22.4219C18.7852 22.4219 18.8711 22.3828 18.918 22.332C18.9649 22.2852 19.1953 21.9023 19.4297 21.4844C19.6641 21.0664 19.8633 20.7148 19.875 20.7031C19.8828 20.6914 19.9375 20.7461 19.9922 20.8203C20.0508 20.8945 20.1602 21.0234 20.2383 21.1016C20.375 21.2422 20.3906 21.25 20.6406 21.25H20.8985V22.0352C20.8985 22.8242 20.8828 22.9297 20.7461 23.0352C20.6992 23.0742 19.8086 23.082 16.8906 23.0859C13.1094 23.0859 13.0977 23.0859 12.9922 23.0039L12.8906 22.9258V22.0859V21.25H13.1992H13.5117L13.8477 20.9922C14.1406 20.7695 14.1914 20.7422 14.25 20.7891C14.2852 20.8164 14.4258 20.9297 14.5625 21.043C15.0039 21.4102 15.1055 21.375 15.4024 20.7383C15.5235 20.4727 15.6094 20.3281 15.6289 20.3594C15.6446 20.3867 15.7383 20.8242 15.8399 21.3281Z" fill="white"/>
<path d="M22.6662 17.8789C22.4631 17.9492 22.1779 18.25 22.1154 18.4688C22.0451 18.7031 22.0529 22.8555 22.1232 23.0586C22.2052 23.2813 22.3654 23.4688 22.5763 23.5742L22.7677 23.6719H24.8888C27.256 23.6719 27.1779 23.6797 27.4474 23.3945C27.7013 23.1289 27.6935 23.1992 27.6935 20.7422C27.6935 18.9609 27.6818 18.4883 27.6427 18.3867C27.5568 18.1836 27.3771 18.0039 27.1662 17.9063L26.9709 17.8125L24.9006 17.8164C23.1662 17.8164 22.8029 17.8281 22.6662 17.8789ZM27.0334 18.5117C27.1037 18.5977 27.1076 18.6953 27.1076 20.75V22.8945L27.0099 22.9883L26.9162 23.0859H24.9045C23.799 23.0859 22.8654 23.0742 22.8302 23.0625C22.6584 22.9961 22.6545 22.9336 22.6545 20.7227V18.625L22.7677 18.5117L22.8849 18.3945L24.9201 18.4063L26.9591 18.418L27.0334 18.5117Z" fill="white"/>
<path d="M24.0423 19.4492C23.7532 19.5234 23.5228 19.7227 23.4056 20C23.3275 20.1875 23.3353 20.543 23.4212 20.7266C23.4993 20.8945 24.4368 21.875 24.64 22C24.7415 22.0625 24.8118 22.0742 24.9525 22.0586C25.1243 22.0391 25.1556 22.0156 25.7415 21.4219C26.4173 20.7344 26.4798 20.6289 26.4329 20.2344C26.3704 19.6992 25.8743 19.3398 25.3509 19.4453C25.2337 19.4727 25.0853 19.5273 25.0228 19.5742L24.9134 19.6562L24.722 19.5547C24.5189 19.4414 24.2337 19.3984 24.0423 19.4492ZM24.5892 20.1914C24.8509 20.4453 24.9446 20.4375 25.2611 20.1523C25.3665 20.0586 25.4642 20 25.5306 20C25.6751 20 25.8587 20.1953 25.8587 20.3555C25.8587 20.4648 25.7923 20.5469 25.3821 20.9648L24.9056 21.4453L24.4407 20.9883C24.1868 20.7344 23.9603 20.4883 23.9446 20.4414C23.8939 20.3203 23.972 20.1289 24.097 20.0586C24.2454 19.9727 24.4095 20.0195 24.5892 20.1914Z" fill="white"/>
<path d="M12.832 24.4492C12.7461 24.4883 12.6211 24.582 12.5508 24.6523C12.3047 24.9102 12.3047 24.9258 12.3047 26.5547V28.0312L12.4023 28.2305C12.5234 28.4727 12.7188 28.6289 12.9844 28.6992C13.2734 28.7734 26.7266 28.7734 27.0156 28.6992C27.2813 28.6289 27.4766 28.4727 27.5977 28.2305L27.6953 28.0312V26.5469C27.6953 24.8867 27.6914 24.8828 27.418 24.6211C27.1797 24.3945 27.0781 24.375 26.2148 24.375H25.4336L25.3555 24.4766C25.2461 24.6172 25.2539 24.7109 25.3867 24.8477L25.5 24.9609H26.2109C26.9102 24.9609 26.918 24.9609 27.0117 25.0586L27.1094 25.1523V26.5547V27.957L27.0078 28.0508L26.9063 28.1445H20H13.0938L12.9922 28.0508L12.8906 27.957V26.5586C12.8906 25.2461 12.8945 25.1602 12.9648 25.0742L13.0391 24.9805L18.6914 24.9609L25.9297 24.9414L26.0039 24.8477C26.1016 24.7305 26.0977 24.5508 26 24.4531C25.9219 24.375 24.2852 24.375 18.6641 24.375C13.2188 24.375 12.9805 24.3789 12.832 24.4492Z" fill="white"/>
</g>
<defs>
<clipPath id="clip0_984_15943">
<rect width="20" height="20" fill="white" transform="translate(10 10)"/>
</clipPath>
</defs>
</svg>
