<svg width="40" height="40" viewBox="0 0 40 40" fill="none" xmlns="http://www.w3.org/2000/svg">
<rect x="2" y="2" width="36" height="36" rx="18" fill="#6B4892"/>
<rect x="2" y="2" width="36" height="36" rx="18" stroke="#F1EDF6" stroke-width="4"/>
<g clip-path="url(#clip0_984_3720)">
<path d="M11.55 10.9805C11.4796 11.0547 11.1007 11.668 10.7101 12.3477C9.94449 13.6758 9.91715 13.75 10.0812 13.9609C10.2453 14.1719 10.4992 14.2344 10.6984 14.1172C10.8273 14.0391 10.7921 14.0977 11.4171 13.0078C11.6945 12.5234 11.9289 12.1211 11.9367 12.1133C11.9484 12.1016 12.3312 12.4688 12.7882 12.9258L13.6242 13.7617L13.4445 14.0352C13.0734 14.6133 12.882 15.2734 12.882 15.9961C12.8781 16.6328 12.9992 17.1406 13.2843 17.6953C13.4679 18.0469 13.7882 18.4805 13.964 18.6172C14.1281 18.7422 14.3586 18.75 14.5382 18.6406C14.6086 18.5938 15.089 18.1367 15.6007 17.6211L16.5382 16.6836L16.7648 16.8984C16.9718 17.0859 17.0148 17.1094 17.1671 17.1094C17.4757 17.1094 17.7218 16.7969 17.6359 16.5195C17.6203 16.4688 17.5109 16.3281 17.3976 16.207L17.1867 15.9883L18.2023 14.9883C19.2726 13.9258 19.3078 13.8789 19.2375 13.6055C19.1828 13.3789 18.5695 12.8984 18.0265 12.6523C17.5265 12.4258 17.1906 12.3633 16.5226 12.3672C16.0265 12.3672 15.8586 12.3867 15.6046 12.4531C15.257 12.5508 14.7414 12.7852 14.4679 12.9727L14.2882 13.0977L13.1828 11.9922L12.0773 10.8867L11.8781 10.8672C11.6945 10.8516 11.6711 10.8594 11.55 10.9805ZM17.3625 13.4141C17.6789 13.5156 18.0851 13.7227 18.0851 13.7852C18.0851 13.8008 17.2296 14.6563 16.1867 15.6836C14.6945 17.1563 14.2804 17.543 14.2531 17.4961C14.1515 17.3555 13.9406 16.8711 13.8859 16.6602C13.8039 16.3555 13.8039 15.7188 13.882 15.3867C14.1164 14.3828 14.9484 13.5664 15.9562 13.3438C16.3586 13.2539 16.964 13.2852 17.3625 13.4141Z" fill="white"/>
<mask id="path-3-inside-1_984_3720" fill="white">
<path d="M25.2773 11.2656C25.2227 11.2969 24.9141 11.7109 24.5938 12.1914L24.0039 13.0664L23.2031 13.0859C22.3477 13.1094 22.2461 13.1289 22.1211 13.3164C22.0547 13.4102 22.0508 13.6172 22.0391 16.2109C22.0312 18.1172 22.0391 19.0508 22.0703 19.1484C22.0938 19.2266 22.1641 19.3359 22.2305 19.3906L22.3516 19.4922H23.3047H24.2578V20.0977C24.2578 21.0391 24.3008 21.0938 25.0781 21.0938H25.5469V23.7695V26.4453H24.8047H24.0625L23.9492 26.5547C23.8711 26.6211 23.7109 26.9258 23.4844 27.4219L23.1367 28.1836L22.2695 28.1953L21.4062 28.2031V26.5039V24.8047H21.918C22.3125 24.8047 22.4609 24.7891 22.5625 24.7422C22.8086 24.625 22.8125 24.5938 22.8125 23.207V21.9609L22.7109 21.8398C22.6562 21.7734 22.5469 21.7031 22.4688 21.6797C22.2461 21.6211 10.4922 21.6289 10.3125 21.6914C10.2383 21.7188 10.1406 21.7969 10.0898 21.8711C10 22.0039 10 22.0195 10 23.2188C10 24.5469 10.0039 24.5625 10.2305 24.7148C10.3555 24.8008 10.4023 24.8047 10.9805 24.8047H11.6016V26.5039V28.2031H11.0938C10.3984 28.2031 10.2344 28.293 10.2344 28.6797C10.2344 28.832 10.2578 28.8906 10.3477 28.9922L10.4609 29.1211H20H29.5391L29.6523 28.9922C29.7422 28.8906 29.7656 28.832 29.7656 28.6797C29.7656 28.3516 29.582 28.2031 29.168 28.2031H28.918L28.5547 27.4219C28.3047 26.8828 28.1562 26.6094 28.0781 26.543C27.9648 26.4453 27.9531 26.4453 27.2227 26.4453H26.4844V23.7695V21.0938H26.9961H27.5078L27.6406 20.9609L27.7734 20.8281V20.1602V19.4922H28.7109C29.7617 19.4922 29.8242 19.4805 29.9375 19.2422C29.9922 19.125 30 18.8164 30 16.2812C30 13.5547 29.9961 13.4531 29.9219 13.332C29.793 13.1172 29.7422 13.1055 28.8555 13.0938L28.043 13.0781L27.4609 12.2031C27.0547 11.6016 26.8398 11.3125 26.7617 11.2695C26.6016 11.1914 25.4219 11.1875 25.2773 11.2656ZM26.5742 12.5664C26.7305 12.8008 26.875 13.0117 26.8906 13.0352C26.9141 13.0742 26.7266 13.0859 26.0156 13.0859H25.1172L25.4297 12.6172L25.7422 12.1484H26.0156H26.2852L26.5742 12.5664ZM29.0625 16.2891V18.5547H26.0156H22.9688V16.3164C22.9688 15.082 22.9805 14.0625 22.9961 14.0508C23.0078 14.0352 24.3789 14.0234 26.043 14.0234H29.0625V16.2891ZM26.8359 19.8242V20.1562H26.0156H25.1953V19.8242V19.4922H26.0156H26.8359V19.8242ZM21.875 23.2227V23.8672H16.4062H10.9375V23.2227V22.5781H16.4062H21.875V23.2227ZM15.3047 25.4375L15.293 26.0742H13.9258H12.5586L12.5469 25.4375L12.5391 24.8047H13.9258H15.3125L15.3047 25.4375ZM20.4688 26.5039V28.2031H16.5039H12.5391V27.6172V27.0352L14.2109 27.0234C16.0352 27.0117 16.0391 27.0117 16.1641 26.7812C16.2188 26.6797 16.2344 26.5117 16.2422 25.7305L16.2539 24.8047H18.3633H20.4688V26.5039ZM25.5469 27.793V28.2031H24.8594C24.0664 28.2031 24.1211 28.2617 24.3828 27.7109L24.5391 27.3828H25.043H25.5469V27.793ZM27.5586 27.5C27.5898 27.5625 27.6797 27.75 27.7539 27.9102L27.8867 28.2031H27.1836H26.4844V27.793V27.3828H26.9922H27.4961L27.5586 27.5Z"/>
</mask>
<path d="M25.2773 11.2656C25.2227 11.2969 24.9141 11.7109 24.5938 12.1914L24.0039 13.0664L23.2031 13.0859C22.3477 13.1094 22.2461 13.1289 22.1211 13.3164C22.0547 13.4102 22.0508 13.6172 22.0391 16.2109C22.0312 18.1172 22.0391 19.0508 22.0703 19.1484C22.0938 19.2266 22.1641 19.3359 22.2305 19.3906L22.3516 19.4922H23.3047H24.2578V20.0977C24.2578 21.0391 24.3008 21.0938 25.0781 21.0938H25.5469V23.7695V26.4453H24.8047H24.0625L23.9492 26.5547C23.8711 26.6211 23.7109 26.9258 23.4844 27.4219L23.1367 28.1836L22.2695 28.1953L21.4062 28.2031V26.5039V24.8047H21.918C22.3125 24.8047 22.4609 24.7891 22.5625 24.7422C22.8086 24.625 22.8125 24.5938 22.8125 23.207V21.9609L22.7109 21.8398C22.6562 21.7734 22.5469 21.7031 22.4688 21.6797C22.2461 21.6211 10.4922 21.6289 10.3125 21.6914C10.2383 21.7188 10.1406 21.7969 10.0898 21.8711C10 22.0039 10 22.0195 10 23.2188C10 24.5469 10.0039 24.5625 10.2305 24.7148C10.3555 24.8008 10.4023 24.8047 10.9805 24.8047H11.6016V26.5039V28.2031H11.0938C10.3984 28.2031 10.2344 28.293 10.2344 28.6797C10.2344 28.832 10.2578 28.8906 10.3477 28.9922L10.4609 29.1211H20H29.5391L29.6523 28.9922C29.7422 28.8906 29.7656 28.832 29.7656 28.6797C29.7656 28.3516 29.582 28.2031 29.168 28.2031H28.918L28.5547 27.4219C28.3047 26.8828 28.1562 26.6094 28.0781 26.543C27.9648 26.4453 27.9531 26.4453 27.2227 26.4453H26.4844V23.7695V21.0938H26.9961H27.5078L27.6406 20.9609L27.7734 20.8281V20.1602V19.4922H28.7109C29.7617 19.4922 29.8242 19.4805 29.9375 19.2422C29.9922 19.125 30 18.8164 30 16.2812C30 13.5547 29.9961 13.4531 29.9219 13.332C29.793 13.1172 29.7422 13.1055 28.8555 13.0938L28.043 13.0781L27.4609 12.2031C27.0547 11.6016 26.8398 11.3125 26.7617 11.2695C26.6016 11.1914 25.4219 11.1875 25.2773 11.2656ZM26.5742 12.5664C26.7305 12.8008 26.875 13.0117 26.8906 13.0352C26.9141 13.0742 26.7266 13.0859 26.0156 13.0859H25.1172L25.4297 12.6172L25.7422 12.1484H26.0156H26.2852L26.5742 12.5664ZM29.0625 16.2891V18.5547H26.0156H22.9688V16.3164C22.9688 15.082 22.9805 14.0625 22.9961 14.0508C23.0078 14.0352 24.3789 14.0234 26.043 14.0234H29.0625V16.2891ZM26.8359 19.8242V20.1562H26.0156H25.1953V19.8242V19.4922H26.0156H26.8359V19.8242ZM21.875 23.2227V23.8672H16.4062H10.9375V23.2227V22.5781H16.4062H21.875V23.2227ZM15.3047 25.4375L15.293 26.0742H13.9258H12.5586L12.5469 25.4375L12.5391 24.8047H13.9258H15.3125L15.3047 25.4375ZM20.4688 26.5039V28.2031H16.5039H12.5391V27.6172V27.0352L14.2109 27.0234C16.0352 27.0117 16.0391 27.0117 16.1641 26.7812C16.2188 26.6797 16.2344 26.5117 16.2422 25.7305L16.2539 24.8047H18.3633H20.4688V26.5039ZM25.5469 27.793V28.2031H24.8594C24.0664 28.2031 24.1211 28.2617 24.3828 27.7109L24.5391 27.3828H25.043H25.5469V27.793ZM27.5586 27.5C27.5898 27.5625 27.6797 27.75 27.7539 27.9102L27.8867 28.2031H27.1836H26.4844V27.793V27.3828H26.9922H27.4961L27.5586 27.5Z" fill="#F9F8F8" stroke="white" stroke-width="0.2" mask="url(#path-3-inside-1_984_3720)"/>
<path d="M24.7031 14.9609C24.6602 14.9766 24.5742 15.0469 24.5195 15.1172L24.4141 15.2422V16.3164V17.3906L24.5469 17.5234L24.6797 17.6562H25.9961C27.1367 17.6562 27.3281 17.6484 27.418 17.5938C27.6328 17.4688 27.6367 17.4453 27.6484 16.3477C27.6641 14.8281 27.7695 14.9219 26.0156 14.9258C25.3398 14.9258 24.75 14.9414 24.7031 14.9609ZM26.7188 16.2891V16.7188H26.0352H25.3516V16.2891V15.8594H26.0352H26.7188V16.2891Z" fill="white"/>
<path d="M19.1007 15.6484C18.55 15.8008 18.4367 15.8672 18.3703 16.0664C18.2765 16.3477 18.4875 16.6797 18.7609 16.6797C18.9289 16.6797 19.8625 16.4297 19.9796 16.3516C20.1906 16.2148 20.1906 15.8242 19.9835 15.6289C19.8351 15.4922 19.6476 15.4961 19.1007 15.6484Z" fill="white"/>
<path d="M18.175 17.4258C17.9367 17.543 17.8273 17.8125 17.9328 18.0195C17.9953 18.1445 18.6711 18.8242 18.7961 18.8906C19.1515 19.0781 19.5812 18.7266 19.4562 18.3477C19.4054 18.1953 18.6633 17.4453 18.5031 17.3867C18.3586 17.332 18.3664 17.332 18.175 17.4258Z" fill="white"/>
<path d="M16.4453 17.9219C16.3398 18.0117 16.3008 18.1055 16.1875 18.5352C16.1172 18.8164 16.0547 19.1016 16.0547 19.1719C16.0547 19.543 16.5234 19.75 16.8008 19.5C16.9023 19.4102 16.9453 19.3047 17.0742 18.8672C17.2461 18.2695 17.25 18.2422 17.168 18.0703C17.0391 17.8008 16.6641 17.7227 16.4453 17.9219Z" fill="white"/>
</g>
<defs>
<clipPath id="clip0_984_3720">
<rect width="20" height="20" fill="white" transform="translate(10 10)"/>
</clipPath>
</defs>
</svg>
