<svg width="40" height="40" viewBox="0 0 40 40" fill="none" xmlns="http://www.w3.org/2000/svg">
<rect x="2" y="2" width="36" height="36" rx="18" fill="#6B4892"/>
<rect x="2" y="2" width="36" height="36" rx="18" stroke="#F1EDF6" stroke-width="4"/>
<g clip-path="url(#clip0_1_60026)">
<path fill-rule="evenodd" clip-rule="evenodd" d="M22.0691 29.9883H17.2654C16.5272 29.9883 15.918 29.379 15.918 28.6409V16.1629C15.918 15.413 16.5272 14.8037 17.2654 14.8037H22.0691C22.819 14.8037 23.4282 15.413 23.4282 16.1629V18.9982C23.4282 19.0568 23.4048 19.1271 23.3579 19.174C23.3111 19.2091 23.2408 19.2326 23.1705 19.2326C23.1236 19.2208 23.065 19.2208 23.0064 19.2208C22.0574 19.2208 21.2958 19.9824 21.2958 20.9315C21.2958 21.8688 22.0574 22.6303 23.0064 22.6303C23.065 22.6303 23.1236 22.6303 23.1705 22.6303C23.2408 22.6186 23.3111 22.6421 23.3579 22.6889C23.4048 22.7358 23.4282 22.7944 23.4282 22.8647V28.6409C23.4282 29.379 22.819 29.9883 22.0691 29.9883ZM17.2654 15.2724C16.785 15.2724 16.3866 15.6708 16.3866 16.1629V28.6409C16.3866 29.1213 16.785 29.5196 17.2654 29.5196H22.0691C22.5612 29.5196 22.9596 29.1213 22.9596 28.6409V23.099C21.7762 23.0873 20.8272 22.1148 20.8272 20.9315C20.8272 19.7364 21.7762 18.7756 22.9596 18.7522V16.1629C22.9596 15.6708 22.5612 15.2724 22.0691 15.2724H17.2654Z" fill="white" stroke="white" stroke-width="0.18"/>
<path fill-rule="evenodd" clip-rule="evenodd" d="M23.1939 17.2525H16.1523C16.0234 17.2525 15.918 17.147 15.918 17.0182C15.918 16.8893 16.0234 16.7838 16.1523 16.7838H23.1939C23.3228 16.7838 23.4282 16.8893 23.4282 17.0182C23.4282 17.147 23.3228 17.2525 23.1939 17.2525Z" fill="white" stroke="white" stroke-width="0.18"/>
<path fill-rule="evenodd" clip-rule="evenodd" d="M23.1939 28.0199H16.1523C16.0234 28.0199 15.918 27.9145 15.918 27.7856C15.918 27.6567 16.0234 27.5513 16.1523 27.5513H23.1939C23.3228 27.5513 23.4282 27.6567 23.4282 27.7856C23.4282 27.9145 23.3228 28.0199 23.1939 28.0199Z" fill="white" stroke="white" stroke-width="0.18"/>
<path fill-rule="evenodd" clip-rule="evenodd" d="M21.7296 15.2724H17.6171C17.4883 15.2724 17.3828 15.167 17.3828 15.0381V14.2648C17.3828 13.7141 17.8398 13.2572 18.3904 13.2572H20.9563C21.507 13.2572 21.9639 13.7141 21.9639 14.2648V15.0381C21.9639 15.167 21.8585 15.2724 21.7296 15.2724ZM17.8515 14.8037H21.4953V14.2648C21.4953 13.9719 21.2492 13.7258 20.9563 13.7258H18.3904C18.0975 13.7258 17.8515 13.9719 17.8515 14.2648V14.8037Z" fill="white" stroke="white" stroke-width="0.18"/>
<path fill-rule="evenodd" clip-rule="evenodd" d="M20.4625 13.7258H18.8808C18.7519 13.7258 18.6465 13.6204 18.6465 13.4915V11.2771C18.6465 11.1482 18.7519 11.0428 18.8808 11.0428H20.4625C20.5914 11.0428 20.6969 11.1482 20.6969 11.2771V13.4915C20.6969 13.6204 20.5914 13.7258 20.4625 13.7258ZM19.1151 13.2572H20.2282V11.5114H19.1151V13.2572Z" fill="white" stroke="white" stroke-width="0.18"/>
<path fill-rule="evenodd" clip-rule="evenodd" d="M21.7062 11.5114H17.6406C17.5117 11.5114 17.4062 11.406 17.4062 11.2771V10.2343C17.4062 10.1054 17.5117 10 17.6406 10H21.7062C21.8351 10 21.9405 10.1054 21.9405 10.2343V11.2771C21.9405 11.406 21.8351 11.5114 21.7062 11.5114ZM17.8749 11.0428H21.4719V10.4687H17.8749V11.0428Z" fill="white" stroke="white" stroke-width="0.18"/>
<path fill-rule="evenodd" clip-rule="evenodd" d="M24.8679 20.6034C24.7742 20.6034 24.6922 20.5565 24.6453 20.4745C24.5985 20.3574 24.6453 20.2168 24.7625 20.1582C26.1333 19.5372 26.7894 18.5179 26.6137 17.2994C26.3442 15.4247 24.0829 13.1517 20.4274 12.6128C20.2985 12.5893 20.2048 12.4722 20.2282 12.3433C20.2516 12.2144 20.3688 12.1324 20.4977 12.1558C24.3758 12.7182 26.7777 15.1904 27.0706 17.2291C27.2815 18.6467 26.5082 19.877 24.9617 20.5917C24.9265 20.6034 24.8914 20.6034 24.8679 20.6034Z" fill="white" stroke="white" stroke-width="0.18"/>
<path fill-rule="evenodd" clip-rule="evenodd" d="M23.0054 23.099C21.7986 23.099 20.8262 22.1265 20.8262 20.9315C20.8262 19.7247 21.7986 18.7522 23.0054 18.7522C24.2005 18.7522 25.1847 19.7247 25.1847 20.9315C25.1847 22.1265 24.2005 23.099 23.0054 23.099ZM23.0054 19.2209C22.0564 19.2209 21.2948 19.9824 21.2948 20.9315C21.2948 21.8688 22.0564 22.6303 23.0054 22.6303C23.9428 22.6303 24.716 21.8688 24.716 20.9315C24.716 19.9824 23.9428 19.2209 23.0054 19.2209Z" fill="white" stroke="white" stroke-width="0.18"/>
<path fill-rule="evenodd" clip-rule="evenodd" d="M23.0056 22.1851C22.3026 22.1851 21.7402 21.6227 21.7402 20.9315C21.7402 20.2285 22.3026 19.6661 23.0056 19.6661C23.6969 19.6661 24.2593 20.2285 24.2593 20.9315C24.2593 21.6227 23.6969 22.1851 23.0056 22.1851ZM23.0056 20.1347C22.5604 20.1347 22.2089 20.4862 22.2089 20.9315C22.2089 21.365 22.5721 21.7165 23.0056 21.7165C23.4391 21.7165 23.7906 21.365 23.7906 20.9315C23.7906 20.4862 23.4391 20.1347 23.0056 20.1347Z" fill="white" stroke="white" stroke-width="0.18"/>
<path fill-rule="evenodd" clip-rule="evenodd" d="M18.8821 12.6128H15.707C15.5781 12.6128 15.4727 12.5073 15.4727 12.3784C15.4727 12.2496 15.5781 12.1441 15.707 12.1441H18.8821C19.011 12.1441 19.1165 12.2496 19.1165 12.3784C19.1165 12.5073 19.011 12.6128 18.8821 12.6128Z" fill="white" stroke="white" stroke-width="0.18"/>
<path fill-rule="evenodd" clip-rule="evenodd" d="M15.7068 14.1242H14.6757C14.5469 14.1242 14.4414 14.0187 14.4414 13.8899V10.867C14.4414 10.7381 14.5469 10.6327 14.6757 10.6327H15.7068C15.8357 10.6327 15.9411 10.7381 15.9411 10.867V13.8899C15.9411 14.0187 15.8357 14.1242 15.7068 14.1242ZM14.9101 13.6555H15.4725V11.1013H14.9101V13.6555Z" fill="white" stroke="white" stroke-width="0.18"/>
<path fill-rule="evenodd" clip-rule="evenodd" d="M26.2161 29.9883H13.1289C13 29.9883 12.8945 29.8828 12.8945 29.754C12.8945 29.6251 13 29.5196 13.1289 29.5196H26.2161C26.345 29.5196 26.4505 29.6251 26.4505 29.754C26.4505 29.8828 26.345 29.9883 26.2161 29.9883Z" fill="white" stroke="white" stroke-width="0.18"/>
</g>
<defs>
<clipPath id="clip0_1_60026">
<rect width="20" height="20" fill="white" transform="translate(10 10)"/>
</clipPath>
</defs>
</svg>
