<svg width="40" height="40" viewBox="0 0 40 40" fill="none" xmlns="http://www.w3.org/2000/svg">
<rect x="2" y="2" width="36" height="36" rx="18" fill="#6B4892"/>
<rect x="2" y="2" width="36" height="36" rx="18" stroke="#F1EDF6" stroke-width="4"/>
<mask id="path-3-inside-1_984_14848" fill="white">
<path fill-rule="evenodd" clip-rule="evenodd" d="M16.7059 12.8H17.6471V12H14.8235V12.8H15.7647V13.6H14.7432C14.5494 13.1339 14.0264 12.8 13.4118 12.8C12.6321 12.8 12 13.3373 12 14C12 14.6628 12.6321 15.2 13.4118 15.2C14.0264 15.2 14.5494 14.8661 14.7432 14.4H15.7647V15.2332C14.4293 15.4236 13.4118 16.4108 13.4118 17.6V27.6C13.4118 27.8209 13.6224 28 13.8824 28H18.5882C18.8481 28 19.0588 27.8209 19.0588 27.6V17.6C19.0588 16.4108 18.0413 15.4236 16.7059 15.2332V14.4H19.0588V13.6H16.7059V12.8ZM16.2353 16C15.1957 16 14.3529 16.7164 14.3529 17.6V18.4H18.1176V17.6C18.1176 16.7164 17.2749 16 16.2353 16ZM14.3529 27.2V19.2H18.1176V27.2H14.3529ZM12.9412 14C12.9412 13.7791 13.1519 13.6 13.4118 13.6C13.6717 13.6 13.8824 13.7791 13.8824 14C13.8824 14.2209 13.6717 14.4 13.4118 14.4C13.1519 14.4 12.9412 14.2209 12.9412 14ZM20.9412 18.8C20.9412 17.9164 21.784 17.2 22.8235 17.2C23.8631 17.2 24.7059 17.9164 24.7059 18.8V21.2C24.7059 22.0836 23.8631 22.8 22.8235 22.8C21.784 22.8 20.9412 22.0836 20.9412 21.2V18.8ZM22.8235 18C22.3037 18 21.8824 18.3582 21.8824 18.8V21.2C21.8824 21.6418 22.3037 22 22.8235 22C23.3433 22 23.7647 21.6418 23.7647 21.2V18.8C23.7647 18.3582 23.3433 18 22.8235 18ZM26.5882 20.8H25.1765V20H26.5882C27.368 20 28 20.5372 28 21.2C28 21.8628 27.368 22.4 26.5882 22.4C26.3283 22.4 26.1176 22.5791 26.1176 22.8V23.2H28V24H25.6471C25.3872 24 25.1765 23.8209 25.1765 23.6V22.8C25.1765 22.1372 25.8085 21.6 26.5882 21.6C26.8481 21.6 27.0588 21.4209 27.0588 21.2C27.0588 20.9791 26.8481 20.8 26.5882 20.8Z"/>
</mask>
<path d="M16.7059 12.8V8.8H12.7059V12.8H16.7059ZM17.6471 12.8V16.8H21.6471V12.8H17.6471ZM17.6471 12H21.6471V8H17.6471V12ZM14.8235 12V8H10.8235V12H14.8235ZM14.8235 12.8H10.8235V16.8H14.8235V12.8ZM15.7647 12.8H19.7647V8.8H15.7647V12.8ZM15.7647 13.6V17.6H19.7647V13.6H15.7647ZM14.7432 13.6L11.0497 15.1357L12.0744 17.6H14.7432V13.6ZM14.7432 14.4V10.4H12.0744L11.0497 12.8643L14.7432 14.4ZM15.7647 14.4H19.7647V10.4H15.7647V14.4ZM15.7647 15.2332L16.3293 19.1932L19.7647 18.7033V15.2332H15.7647ZM16.7059 15.2332H12.7059V18.7033L16.1413 19.1932L16.7059 15.2332ZM16.7059 14.4V10.4H12.7059V14.4H16.7059ZM19.0588 14.4V18.4H23.0588V14.4H19.0588ZM19.0588 13.6H23.0588V9.6H19.0588V13.6ZM16.7059 13.6H12.7059V17.6H16.7059V13.6ZM14.3529 18.4H10.3529V22.4H14.3529V18.4ZM18.1176 18.4V22.4H22.1176V18.4H18.1176ZM14.3529 27.2H10.3529V31.2H14.3529V27.2ZM14.3529 19.2V15.2H10.3529V19.2H14.3529ZM18.1176 19.2H22.1176V15.2H18.1176V19.2ZM18.1176 27.2V31.2H22.1176V27.2H18.1176ZM25.1765 20.8H21.1765V24.8H25.1765V20.8ZM25.1765 20V16H21.1765V20H25.1765ZM26.1176 23.2H22.1176V27.2H26.1176V23.2ZM28 23.2H32V19.2H28V23.2ZM28 24V28H32V24H28ZM16.7059 16.8H17.6471V8.8H16.7059V16.8ZM21.6471 12.8V12H13.6471V12.8H21.6471ZM17.6471 8H14.8235V16H17.6471V8ZM10.8235 12V12.8H18.8235V12H10.8235ZM14.8235 16.8H15.7647V8.8H14.8235V16.8ZM11.7647 12.8V13.6H19.7647V12.8H11.7647ZM15.7647 9.6H14.7432V17.6H15.7647V9.6ZM18.4367 12.0643C17.528 9.87897 15.3812 8.8 13.4118 8.8V16.8C12.6717 16.8 11.5708 16.3889 11.0497 15.1357L18.4367 12.0643ZM13.4118 8.8C11.0572 8.8 8 10.5432 8 14H16C16 15.0048 15.5108 15.7685 15.0041 16.1992C14.5059 16.6227 13.9303 16.8 13.4118 16.8V8.8ZM8 14C8 17.4568 11.0572 19.2 13.4118 19.2V11.2C13.9302 11.2 14.5058 11.3773 15.0041 11.8008C15.5109 12.2315 16 12.9952 16 14H8ZM13.4118 19.2C15.3812 19.2 17.528 18.1211 18.4367 15.9357L11.0497 12.8643C11.5708 11.6111 12.6717 11.2 13.4118 11.2V19.2ZM14.7432 18.4H15.7647V10.4H14.7432V18.4ZM11.7647 14.4V15.2332H19.7647V14.4H11.7647ZM15.2001 11.2732C12.4269 11.6687 9.41176 13.9248 9.41176 17.6H17.4118C17.4118 18.1969 17.1468 18.6407 16.9089 18.8774C16.6831 19.1021 16.4641 19.1739 16.3293 19.1932L15.2001 11.2732ZM9.41176 17.6V27.6H17.4118V17.6H9.41176ZM9.41176 27.6C9.41176 30.6149 12.0475 32 13.8824 32V24C15.1974 24 17.4118 25.0269 17.4118 27.6H9.41176ZM13.8824 32H18.5882V24H13.8824V32ZM18.5882 32C20.423 32 23.0588 30.6149 23.0588 27.6H15.0588C15.0588 25.0269 17.2732 24 18.5882 24V32ZM23.0588 27.6V17.6H15.0588V27.6H23.0588ZM23.0588 17.6C23.0588 13.9248 20.0437 11.6687 17.2705 11.2732L16.1413 19.1932C16.0065 19.1739 15.7875 19.1021 15.5616 18.8774C15.3238 18.6407 15.0588 18.1969 15.0588 17.6H23.0588ZM20.7059 15.2332V14.4H12.7059V15.2332H20.7059ZM16.7059 18.4H19.0588V10.4H16.7059V18.4ZM23.0588 14.4V13.6H15.0588V14.4H23.0588ZM19.0588 9.6H16.7059V17.6H19.0588V9.6ZM20.7059 13.6V12.8H12.7059V13.6H20.7059ZM16.2353 12C13.6208 12 10.3529 13.9223 10.3529 17.6H18.3529C18.3529 18.4944 17.9164 19.1581 17.4949 19.5164C17.0818 19.8675 16.6239 20 16.2353 20V12ZM10.3529 17.6V18.4H18.3529V17.6H10.3529ZM14.3529 22.4H18.1176V14.4H14.3529V22.4ZM22.1176 18.4V17.6H14.1176V18.4H22.1176ZM22.1176 17.6C22.1176 13.9223 18.8498 12 16.2353 12V20C15.8467 20 15.3888 19.8675 14.9757 19.5164C14.5542 19.1581 14.1176 18.4944 14.1176 17.6H22.1176ZM18.3529 27.2V19.2H10.3529V27.2H18.3529ZM14.3529 23.2H18.1176V15.2H14.3529V23.2ZM14.1176 19.2V27.2H22.1176V19.2H14.1176ZM18.1176 23.2H14.3529V31.2H18.1176V23.2ZM16.9412 14C16.9412 16.5731 14.7268 17.6 13.4118 17.6V9.6C11.577 9.6 8.94118 10.9851 8.94118 14H16.9412ZM13.4118 17.6C12.0967 17.6 9.88235 16.5731 9.88235 14H17.8824C17.8824 10.9851 15.2466 9.6 13.4118 9.6V17.6ZM9.88235 14C9.88235 11.4269 12.0967 10.4 13.4118 10.4V18.4C15.2466 18.4 17.8824 17.0149 17.8824 14H9.88235ZM13.4118 10.4C14.7268 10.4 16.9412 11.4269 16.9412 14H8.94118C8.94118 17.0149 11.5769 18.4 13.4118 18.4V10.4ZM24.9412 18.8C24.9412 19.6944 24.5047 20.3581 24.0831 20.7164C23.6701 21.0675 23.2121 21.2 22.8235 21.2V13.2C20.209 13.2 16.9412 15.1223 16.9412 18.8H24.9412ZM22.8235 21.2C22.435 21.2 21.977 21.0675 21.564 20.7164C21.1424 20.3581 20.7059 19.6944 20.7059 18.8H28.7059C28.7059 15.1223 25.438 13.2 22.8235 13.2V21.2ZM20.7059 18.8V21.2H28.7059V18.8H20.7059ZM20.7059 21.2C20.7059 20.3056 21.1424 19.6419 21.564 19.2836C21.977 18.9325 22.435 18.8 22.8235 18.8V26.8C25.438 26.8 28.7059 24.8777 28.7059 21.2H20.7059ZM22.8235 18.8C23.2121 18.8 23.6701 18.9325 24.0831 19.2836C24.5047 19.6419 24.9412 20.3056 24.9412 21.2H16.9412C16.9412 24.8777 20.209 26.8 22.8235 26.8V18.8ZM24.9412 21.2V18.8H16.9412V21.2H24.9412ZM22.8235 14C20.7288 14 17.8824 15.5641 17.8824 18.8H25.8824C25.8824 19.9152 25.3406 20.7789 24.7486 21.2821C24.1652 21.778 23.4719 22 22.8235 22V14ZM17.8824 18.8V21.2H25.8824V18.8H17.8824ZM17.8824 21.2C17.8824 24.4359 20.7288 26 22.8235 26V18C23.4719 18 24.1652 18.222 24.7486 18.7179C25.3406 19.2211 25.8824 20.0848 25.8824 21.2H17.8824ZM22.8235 26C24.9183 26 27.7647 24.4359 27.7647 21.2H19.7647C19.7647 20.0848 20.3065 19.2211 20.8985 18.7179C21.4819 18.222 22.1752 18 22.8235 18V26ZM27.7647 21.2V18.8H19.7647V21.2H27.7647ZM27.7647 18.8C27.7647 15.5641 24.9183 14 22.8235 14V22C22.1752 22 21.4819 21.778 20.8985 21.2821C20.3065 20.7789 19.7647 19.9152 19.7647 18.8H27.7647ZM26.5882 16.8H25.1765V24.8H26.5882V16.8ZM29.1765 20.8V20H21.1765V20.8H29.1765ZM25.1765 24H26.5882V16H25.1765V24ZM26.5882 24C26.0698 24 25.4942 23.8228 24.9959 23.3992C24.4891 22.9684 24 22.2047 24 21.2H32C32 17.7432 28.9429 16 26.5882 16V24ZM24 21.2C24 20.1953 24.4891 19.4316 24.9959 19.0008C25.4942 18.5772 26.0698 18.4 26.5882 18.4V26.4C28.9429 26.4 32 24.6568 32 21.2H24ZM26.5882 18.4C24.7534 18.4 22.1176 19.7851 22.1176 22.8H30.1176C30.1176 25.3731 27.9032 26.4 26.5882 26.4V18.4ZM22.1176 22.8V23.2H30.1176V22.8H22.1176ZM26.1176 27.2H28V19.2H26.1176V27.2ZM24 23.2V24H32V23.2H24ZM28 20H25.6471V28H28V20ZM25.6471 20C26.9621 20 29.1765 21.0269 29.1765 23.6H21.1765C21.1765 26.6149 23.8122 28 25.6471 28V20ZM29.1765 23.6V22.8H21.1765V23.6H29.1765ZM29.1765 22.8C29.1765 23.8047 28.6874 24.5684 28.1806 24.9992C27.6823 25.4228 27.1067 25.6 26.5882 25.6V17.6C24.2336 17.6 21.1765 19.3432 21.1765 22.8H29.1765ZM26.5882 25.6C28.4231 25.6 31.0588 24.2149 31.0588 21.2H23.0588C23.0588 18.6269 25.2732 17.6 26.5882 17.6V25.6ZM31.0588 21.2C31.0588 18.1851 28.4231 16.8 26.5882 16.8V24.8C25.2732 24.8 23.0588 23.7731 23.0588 21.2H31.0588Z" fill="white" mask="url(#path-3-inside-1_984_14848)"/>
</svg>
