<svg width="40" height="40" viewBox="0 0 40 40" fill="none" xmlns="http://www.w3.org/2000/svg">
<rect x="2" y="2" width="36" height="36" rx="18" fill="#6B4892"/>
<rect x="2" y="2" width="36" height="36" rx="18" stroke="#F1EDF6" stroke-width="4"/>
<mask id="path-2-outside-1_984_642" maskUnits="userSpaceOnUse" x="10.0352" y="10.8867" width="20" height="19" fill="black">
<rect fill="white" x="10.0352" y="10.8867" width="20" height="19"/>
<path d="M12.2266 11.1367C11.7969 11.2227 11.3828 11.543 11.1602 11.9688L11.0352 12.207V17.1289V22.0508L11.1484 22.2852C11.3359 22.6641 11.6992 22.9688 12.1211 23.1016C12.1758 23.1172 12.1875 23.168 12.1875 23.3477C12.1875 23.6523 12.2422 23.832 12.3984 24.0352L12.5273 24.2031L12.5508 25.1797C12.582 26.457 12.6719 26.8281 13.1055 27.4805C13.5664 28.168 14.2695 28.6484 15.0977 28.832C15.2891 28.875 16.2812 28.8867 20.4102 28.8867H25.4883L25.8203 28.7969C26.9531 28.4961 27.8125 27.6445 28.1328 26.5039L28.2227 26.1914L28.2344 21.8047L28.2461 17.4219L28.375 17.3672C28.5586 17.2891 28.7812 17.0547 28.8906 16.8203C28.9805 16.6289 28.9844 16.5859 28.9844 15.7539V14.8906L28.8633 14.7891C28.7617 14.7031 28.707 14.6875 28.4961 14.6875H28.2461L28.2344 13.9492C28.2227 13.2266 28.2188 13.207 28.1289 13.1094C28 12.9727 27.7695 12.9688 27.6367 13.1055C27.5391 13.1992 27.5391 13.207 27.5391 13.9453V14.6875H27.2617C27.0078 14.6875 26.9766 14.6953 26.8711 14.8008L26.7578 14.9141V15.7383C26.7578 16.4688 26.7656 16.582 26.8359 16.7734C26.9219 16.9922 27.168 17.2578 27.4141 17.3906L27.543 17.457L27.5273 21.7852C27.5156 26.6094 27.5312 26.2813 27.2422 26.8359C26.9922 27.3125 26.6289 27.6758 26.1602 27.9141C25.5977 28.2031 25.9844 28.1836 20.3906 28.1836C14.7656 28.1836 15.1797 28.2031 14.5898 27.8984C14.1953 27.6953 13.7305 27.2227 13.543 26.8359C13.3125 26.3594 13.2812 26.1797 13.2812 25.2656V24.4531H15.2734H17.2656L17.2891 24.5586C17.4688 25.3711 18.0039 25.8984 18.7773 26.0156C18.9609 26.0469 19.668 26.0547 20.8477 26.0469C22.4766 26.0313 22.6562 26.0234 22.832 25.957C23.4492 25.7305 23.9062 25.2031 24.0195 24.5938C24.0469 24.4375 24.0625 23.2344 24.0625 20.8945V17.4297L24.1836 17.3828C24.3438 17.3125 24.6172 17.043 24.6992 16.8633C24.8125 16.6289 24.8516 16.2578 24.8359 15.5742C24.8203 14.7539 24.7812 14.6875 24.2969 14.6875H24.0625V13.9688C24.0625 13.25 24.0625 13.2461 23.9609 13.1289C23.8281 12.9688 23.6016 12.957 23.457 13.1055C23.3594 13.1992 23.3594 13.207 23.3594 13.9375V14.6797L23.0625 14.6953C22.793 14.707 22.7539 14.7188 22.6719 14.8164C22.5781 14.9258 22.5781 14.9375 22.5781 15.7188C22.5781 16.3086 22.5938 16.5586 22.6367 16.707C22.7109 16.9492 22.9766 17.2617 23.1992 17.3633L23.3594 17.4336V20.8984C23.3594 24.7227 23.3672 24.5977 23.1133 24.9297C23.0352 25.0352 22.8984 25.1406 22.7539 25.2148L22.5234 25.332H20.6484H18.7695L18.5703 25.2266C18.3242 25.0977 18.1094 24.8555 18.0312 24.6172C17.9375 24.3477 17.9531 24.2305 18.0898 24.0703C18.2539 23.8828 18.3164 23.7227 18.3516 23.3906L18.3789 23.1172L18.582 23.0391C18.8242 22.9492 19.168 22.6484 19.3125 22.4023C19.5391 22.0156 19.5352 22.1992 19.5234 17.0273L19.5117 12.2852L19.3867 12.0234C19.1602 11.543 18.7578 11.2266 18.2461 11.1328C17.9844 11.0859 12.4766 11.0859 12.2266 11.1367ZM18.2266 11.8555C18.4297 11.9141 18.6328 12.082 18.7422 12.2813C18.8047 12.3945 18.8086 12.7773 18.8086 17.1289V21.8555L18.6992 22.0391C18.6289 22.1602 18.5273 22.2617 18.4062 22.332L18.2227 22.4414L15.3398 22.4531C13.3867 22.4609 12.4062 22.4492 12.3008 22.4219C12.1133 22.3711 11.8945 22.1836 11.793 21.9883C11.7227 21.8438 11.7188 21.7148 11.7188 17.1484C11.7188 13.0039 11.7266 12.4414 11.7773 12.3125C11.8828 12.0664 12.082 11.9023 12.3633 11.832C12.4297 11.8164 13.7305 11.8047 15.2578 11.8008C17.5977 11.7969 18.0625 11.8047 18.2266 11.8555ZM24.1016 15.9609V16.5313L23.9883 16.6445C23.8984 16.7344 23.8398 16.7578 23.7109 16.7578C23.3477 16.7578 23.2812 16.6289 23.2812 15.918V15.3906H23.6914H24.1016V15.9609ZM28.2812 15.9609V16.5313L28.168 16.6445C28.0781 16.7344 28.0195 16.7578 27.8906 16.7578C27.5273 16.7578 27.4609 16.6289 27.4609 15.918V15.3906H27.8711H28.2812V15.9609ZM17.6562 23.3008C17.6562 23.4844 17.5703 23.6445 17.4414 23.7031C17.3672 23.7383 16.7812 23.75 15.2305 23.75H13.1172L13.0039 23.6367C12.9102 23.543 12.8906 23.4883 12.8906 23.3438V23.1641H15.2734H17.6562V23.3008Z"/>
</mask>
<path d="M12.2266 11.1367C11.7969 11.2227 11.3828 11.543 11.1602 11.9688L11.0352 12.207V17.1289V22.0508L11.1484 22.2852C11.3359 22.6641 11.6992 22.9688 12.1211 23.1016C12.1758 23.1172 12.1875 23.168 12.1875 23.3477C12.1875 23.6523 12.2422 23.832 12.3984 24.0352L12.5273 24.2031L12.5508 25.1797C12.582 26.457 12.6719 26.8281 13.1055 27.4805C13.5664 28.168 14.2695 28.6484 15.0977 28.832C15.2891 28.875 16.2812 28.8867 20.4102 28.8867H25.4883L25.8203 28.7969C26.9531 28.4961 27.8125 27.6445 28.1328 26.5039L28.2227 26.1914L28.2344 21.8047L28.2461 17.4219L28.375 17.3672C28.5586 17.2891 28.7812 17.0547 28.8906 16.8203C28.9805 16.6289 28.9844 16.5859 28.9844 15.7539V14.8906L28.8633 14.7891C28.7617 14.7031 28.707 14.6875 28.4961 14.6875H28.2461L28.2344 13.9492C28.2227 13.2266 28.2188 13.207 28.1289 13.1094C28 12.9727 27.7695 12.9688 27.6367 13.1055C27.5391 13.1992 27.5391 13.207 27.5391 13.9453V14.6875H27.2617C27.0078 14.6875 26.9766 14.6953 26.8711 14.8008L26.7578 14.9141V15.7383C26.7578 16.4688 26.7656 16.582 26.8359 16.7734C26.9219 16.9922 27.168 17.2578 27.4141 17.3906L27.543 17.457L27.5273 21.7852C27.5156 26.6094 27.5312 26.2813 27.2422 26.8359C26.9922 27.3125 26.6289 27.6758 26.1602 27.9141C25.5977 28.2031 25.9844 28.1836 20.3906 28.1836C14.7656 28.1836 15.1797 28.2031 14.5898 27.8984C14.1953 27.6953 13.7305 27.2227 13.543 26.8359C13.3125 26.3594 13.2812 26.1797 13.2812 25.2656V24.4531H15.2734H17.2656L17.2891 24.5586C17.4688 25.3711 18.0039 25.8984 18.7773 26.0156C18.9609 26.0469 19.668 26.0547 20.8477 26.0469C22.4766 26.0313 22.6562 26.0234 22.832 25.957C23.4492 25.7305 23.9062 25.2031 24.0195 24.5938C24.0469 24.4375 24.0625 23.2344 24.0625 20.8945V17.4297L24.1836 17.3828C24.3438 17.3125 24.6172 17.043 24.6992 16.8633C24.8125 16.6289 24.8516 16.2578 24.8359 15.5742C24.8203 14.7539 24.7812 14.6875 24.2969 14.6875H24.0625V13.9688C24.0625 13.25 24.0625 13.2461 23.9609 13.1289C23.8281 12.9688 23.6016 12.957 23.457 13.1055C23.3594 13.1992 23.3594 13.207 23.3594 13.9375V14.6797L23.0625 14.6953C22.793 14.707 22.7539 14.7188 22.6719 14.8164C22.5781 14.9258 22.5781 14.9375 22.5781 15.7188C22.5781 16.3086 22.5938 16.5586 22.6367 16.707C22.7109 16.9492 22.9766 17.2617 23.1992 17.3633L23.3594 17.4336V20.8984C23.3594 24.7227 23.3672 24.5977 23.1133 24.9297C23.0352 25.0352 22.8984 25.1406 22.7539 25.2148L22.5234 25.332H20.6484H18.7695L18.5703 25.2266C18.3242 25.0977 18.1094 24.8555 18.0312 24.6172C17.9375 24.3477 17.9531 24.2305 18.0898 24.0703C18.2539 23.8828 18.3164 23.7227 18.3516 23.3906L18.3789 23.1172L18.582 23.0391C18.8242 22.9492 19.168 22.6484 19.3125 22.4023C19.5391 22.0156 19.5352 22.1992 19.5234 17.0273L19.5117 12.2852L19.3867 12.0234C19.1602 11.543 18.7578 11.2266 18.2461 11.1328C17.9844 11.0859 12.4766 11.0859 12.2266 11.1367ZM18.2266 11.8555C18.4297 11.9141 18.6328 12.082 18.7422 12.2813C18.8047 12.3945 18.8086 12.7773 18.8086 17.1289V21.8555L18.6992 22.0391C18.6289 22.1602 18.5273 22.2617 18.4062 22.332L18.2227 22.4414L15.3398 22.4531C13.3867 22.4609 12.4062 22.4492 12.3008 22.4219C12.1133 22.3711 11.8945 22.1836 11.793 21.9883C11.7227 21.8438 11.7188 21.7148 11.7188 17.1484C11.7188 13.0039 11.7266 12.4414 11.7773 12.3125C11.8828 12.0664 12.082 11.9023 12.3633 11.832C12.4297 11.8164 13.7305 11.8047 15.2578 11.8008C17.5977 11.7969 18.0625 11.8047 18.2266 11.8555ZM24.1016 15.9609V16.5313L23.9883 16.6445C23.8984 16.7344 23.8398 16.7578 23.7109 16.7578C23.3477 16.7578 23.2812 16.6289 23.2812 15.918V15.3906H23.6914H24.1016V15.9609ZM28.2812 15.9609V16.5313L28.168 16.6445C28.0781 16.7344 28.0195 16.7578 27.8906 16.7578C27.5273 16.7578 27.4609 16.6289 27.4609 15.918V15.3906H27.8711H28.2812V15.9609ZM17.6562 23.3008C17.6562 23.4844 17.5703 23.6445 17.4414 23.7031C17.3672 23.7383 16.7812 23.75 15.2305 23.75H13.1172L13.0039 23.6367C12.9102 23.543 12.8906 23.4883 12.8906 23.3438V23.1641H15.2734H17.6562V23.3008Z" fill="white"/>
<path d="M12.2266 11.1367C11.7969 11.2227 11.3828 11.543 11.1602 11.9688L11.0352 12.207V17.1289V22.0508L11.1484 22.2852C11.3359 22.6641 11.6992 22.9688 12.1211 23.1016C12.1758 23.1172 12.1875 23.168 12.1875 23.3477C12.1875 23.6523 12.2422 23.832 12.3984 24.0352L12.5273 24.2031L12.5508 25.1797C12.582 26.457 12.6719 26.8281 13.1055 27.4805C13.5664 28.168 14.2695 28.6484 15.0977 28.832C15.2891 28.875 16.2812 28.8867 20.4102 28.8867H25.4883L25.8203 28.7969C26.9531 28.4961 27.8125 27.6445 28.1328 26.5039L28.2227 26.1914L28.2344 21.8047L28.2461 17.4219L28.375 17.3672C28.5586 17.2891 28.7812 17.0547 28.8906 16.8203C28.9805 16.6289 28.9844 16.5859 28.9844 15.7539V14.8906L28.8633 14.7891C28.7617 14.7031 28.707 14.6875 28.4961 14.6875H28.2461L28.2344 13.9492C28.2227 13.2266 28.2188 13.207 28.1289 13.1094C28 12.9727 27.7695 12.9688 27.6367 13.1055C27.5391 13.1992 27.5391 13.207 27.5391 13.9453V14.6875H27.2617C27.0078 14.6875 26.9766 14.6953 26.8711 14.8008L26.7578 14.9141V15.7383C26.7578 16.4688 26.7656 16.582 26.8359 16.7734C26.9219 16.9922 27.168 17.2578 27.4141 17.3906L27.543 17.457L27.5273 21.7852C27.5156 26.6094 27.5312 26.2813 27.2422 26.8359C26.9922 27.3125 26.6289 27.6758 26.1602 27.9141C25.5977 28.2031 25.9844 28.1836 20.3906 28.1836C14.7656 28.1836 15.1797 28.2031 14.5898 27.8984C14.1953 27.6953 13.7305 27.2227 13.543 26.8359C13.3125 26.3594 13.2812 26.1797 13.2812 25.2656V24.4531H15.2734H17.2656L17.2891 24.5586C17.4688 25.3711 18.0039 25.8984 18.7773 26.0156C18.9609 26.0469 19.668 26.0547 20.8477 26.0469C22.4766 26.0313 22.6562 26.0234 22.832 25.957C23.4492 25.7305 23.9062 25.2031 24.0195 24.5938C24.0469 24.4375 24.0625 23.2344 24.0625 20.8945V17.4297L24.1836 17.3828C24.3438 17.3125 24.6172 17.043 24.6992 16.8633C24.8125 16.6289 24.8516 16.2578 24.8359 15.5742C24.8203 14.7539 24.7812 14.6875 24.2969 14.6875H24.0625V13.9688C24.0625 13.25 24.0625 13.2461 23.9609 13.1289C23.8281 12.9688 23.6016 12.957 23.457 13.1055C23.3594 13.1992 23.3594 13.207 23.3594 13.9375V14.6797L23.0625 14.6953C22.793 14.707 22.7539 14.7188 22.6719 14.8164C22.5781 14.9258 22.5781 14.9375 22.5781 15.7188C22.5781 16.3086 22.5938 16.5586 22.6367 16.707C22.7109 16.9492 22.9766 17.2617 23.1992 17.3633L23.3594 17.4336V20.8984C23.3594 24.7227 23.3672 24.5977 23.1133 24.9297C23.0352 25.0352 22.8984 25.1406 22.7539 25.2148L22.5234 25.332H20.6484H18.7695L18.5703 25.2266C18.3242 25.0977 18.1094 24.8555 18.0312 24.6172C17.9375 24.3477 17.9531 24.2305 18.0898 24.0703C18.2539 23.8828 18.3164 23.7227 18.3516 23.3906L18.3789 23.1172L18.582 23.0391C18.8242 22.9492 19.168 22.6484 19.3125 22.4023C19.5391 22.0156 19.5352 22.1992 19.5234 17.0273L19.5117 12.2852L19.3867 12.0234C19.1602 11.543 18.7578 11.2266 18.2461 11.1328C17.9844 11.0859 12.4766 11.0859 12.2266 11.1367ZM18.2266 11.8555C18.4297 11.9141 18.6328 12.082 18.7422 12.2813C18.8047 12.3945 18.8086 12.7773 18.8086 17.1289V21.8555L18.6992 22.0391C18.6289 22.1602 18.5273 22.2617 18.4062 22.332L18.2227 22.4414L15.3398 22.4531C13.3867 22.4609 12.4062 22.4492 12.3008 22.4219C12.1133 22.3711 11.8945 22.1836 11.793 21.9883C11.7227 21.8438 11.7188 21.7148 11.7188 17.1484C11.7188 13.0039 11.7266 12.4414 11.7773 12.3125C11.8828 12.0664 12.082 11.9023 12.3633 11.832C12.4297 11.8164 13.7305 11.8047 15.2578 11.8008C17.5977 11.7969 18.0625 11.8047 18.2266 11.8555ZM24.1016 15.9609V16.5313L23.9883 16.6445C23.8984 16.7344 23.8398 16.7578 23.7109 16.7578C23.3477 16.7578 23.2812 16.6289 23.2812 15.918V15.3906H23.6914H24.1016V15.9609ZM28.2812 15.9609V16.5313L28.168 16.6445C28.0781 16.7344 28.0195 16.7578 27.8906 16.7578C27.5273 16.7578 27.4609 16.6289 27.4609 15.918V15.3906H27.8711H28.2812V15.9609ZM17.6562 23.3008C17.6562 23.4844 17.5703 23.6445 17.4414 23.7031C17.3672 23.7383 16.7812 23.75 15.2305 23.75H13.1172L13.0039 23.6367C12.9102 23.543 12.8906 23.4883 12.8906 23.3438V23.1641H15.2734H17.6562V23.3008Z" stroke="white" stroke-width="0.2" mask="url(#path-2-outside-1_984_642)"/>
<path d="M12.8272 12.8789C12.7804 12.8867 12.7022 12.9375 12.6515 12.9922C12.5577 13.0898 12.5577 13.0977 12.546 14.1523C12.5304 15.3555 12.546 15.5195 12.6749 15.6484L12.7686 15.7422H15.253H17.7413L17.8546 15.6289L17.9679 15.5156V14.3359C17.9679 13.0039 17.96 12.9648 17.7022 12.8945C17.5655 12.8555 13.0186 12.8398 12.8272 12.8789ZM17.2647 14.3164V15.0391H15.2725H13.2804V14.3164V13.5938H15.2725H17.2647V14.3164Z" fill="white"/>
<path d="M12.793 17.1836C12.75 17.2031 12.6797 17.2578 12.6367 17.3047C12.5664 17.3828 12.5586 17.4453 12.5586 18.1094V18.8281L12.668 18.9336C12.7695 19.0391 12.793 19.043 13.2461 19.0586C13.5039 19.0664 13.7969 19.0586 13.8945 19.043C14.1211 19.0117 14.2578 18.8789 14.2578 18.7031C14.2578 18.4258 14.0664 18.3203 13.5703 18.3203H13.2891L13.2773 17.8516C13.2617 17.4141 13.2539 17.3789 13.1641 17.2891C13.0508 17.1797 12.9062 17.1367 12.793 17.1836Z" fill="white"/>
<path d="M17.4717 17.207C17.4053 17.2344 17.3311 17.293 17.3076 17.3398C17.2842 17.3828 17.2646 17.6172 17.2646 17.8633V18.3125L16.874 18.3281C16.5107 18.3398 16.4756 18.3516 16.3779 18.4492C16.2334 18.5898 16.2334 18.793 16.3779 18.9375C16.4834 19.0391 16.499 19.043 17.0029 19.0547C17.3115 19.0625 17.5889 19.0508 17.6865 19.0273C17.9404 18.957 17.9678 18.8711 17.9678 18.1055C17.9678 17.375 17.9365 17.2656 17.7295 17.1914C17.6592 17.168 17.6045 17.1484 17.6006 17.1484C17.5967 17.1523 17.542 17.1758 17.4717 17.207Z" fill="white"/>
</svg>
