<svg width="60" height="60" viewBox="0 0 60 60" fill="none" xmlns="http://www.w3.org/2000/svg">
<path d="M17.4636 36.8364C16.4091 35.0637 13.8364 35.0637 12.7818 36.8364L2.49999 54.0546C1.41817 55.8728 2.72726 58.1819 4.84544 58.1819H25.4C27.5182 58.1819 28.8273 55.8728 27.7454 54.0546L17.4636 36.8364ZM15.1273 55.5001C14.854 55.5001 14.5868 55.419 14.3596 55.2672C14.1323 55.1154 13.9552 54.8995 13.8506 54.647C13.746 54.3946 13.7187 54.1167 13.772 53.8487C13.8253 53.5806 13.9569 53.3344 14.1502 53.1412C14.3434 52.9479 14.5896 52.8163 14.8577 52.763C15.1257 52.7097 15.4036 52.737 15.6561 52.8416C15.9086 52.9462 16.1244 53.1233 16.2762 53.3506C16.428 53.5778 16.5091 53.845 16.5091 54.1182C16.5 54.8819 15.8818 55.5001 15.1273 55.5001ZM16.5727 49.7001C16.5364 50.4728 15.9 51.0819 15.1182 51.0819C14.3454 51.0819 13.7091 50.4728 13.6636 49.7001L13.1818 42.0455C13.1705 41.7854 13.212 41.5257 13.3037 41.282C13.3955 41.0383 13.5356 40.8157 13.7157 40.6276C13.8958 40.4396 14.1121 40.2899 14.3515 40.1877C14.591 40.0854 14.8487 40.0327 15.1091 40.0327C15.3695 40.0327 15.6271 40.0854 15.8666 40.1877C16.1061 40.2899 16.3224 40.4396 16.5024 40.6276C16.6825 40.8157 16.8227 41.0383 16.9144 41.282C17.0062 41.5257 17.0477 41.7854 17.0364 42.0455L16.5727 49.7001ZM31.1091 38.2273V44.2546H57.8818V38.2273H31.1091ZM37.6363 41.6728C37.7632 41.7998 37.8495 41.9615 37.8842 42.1376C37.9189 42.3137 37.9005 42.4961 37.8314 42.6618C37.7622 42.8274 37.6454 42.9687 37.4957 43.0678C37.3461 43.1669 37.1704 43.2192 36.9909 43.2183C36.7545 43.2183 36.5273 43.1273 36.3454 42.9546L35.9182 42.5273L35.4909 42.9546C35.3091 43.1364 35.0818 43.2183 34.8454 43.2183C34.6091 43.2183 34.3818 43.1273 34.2 42.9546C34.1157 42.8705 34.0488 42.7706 34.0032 42.6606C33.9576 42.5507 33.9341 42.4328 33.9341 42.3137C33.9341 42.1946 33.9576 42.0767 34.0032 41.9668C34.0488 41.8568 34.1157 41.7569 34.2 41.6728L34.6273 41.2455L34.2 40.8183C34.03 40.6483 33.9345 40.4177 33.9345 40.1773C33.9345 39.937 34.03 39.7064 34.2 39.5364C34.37 39.3665 34.6005 39.271 34.8409 39.271C35.0813 39.271 35.3118 39.3665 35.4818 39.5364L35.9091 39.9637L36.3363 39.5364C36.4205 39.4523 36.5204 39.3855 36.6304 39.34C36.7404 39.2944 36.8582 39.271 36.9773 39.271C37.0963 39.271 37.2141 39.2944 37.3241 39.34C37.4341 39.3855 37.534 39.4523 37.6182 39.5364C37.7023 39.6206 37.7691 39.7205 37.8146 39.8305C37.8602 39.9405 37.8836 40.0583 37.8836 40.1773C37.8836 40.2964 37.8602 40.4142 37.8146 40.5242C37.7691 40.6342 37.7023 40.7341 37.6182 40.8183L37.1909 41.2455L37.6363 41.6728ZM43.3545 41.6728C43.4814 41.7998 43.5677 41.9615 43.6024 42.1376C43.6371 42.3137 43.6187 42.4961 43.5495 42.6618C43.4804 42.8274 43.3636 42.9687 43.2139 43.0678C43.0643 43.1669 42.8885 43.2192 42.7091 43.2183C42.4727 43.2183 42.2454 43.1273 42.0636 42.9546L41.6363 42.5273L41.2091 42.9546C41.0273 43.1364 40.8 43.2183 40.5636 43.2183C40.3273 43.2183 40.1 43.1273 39.9182 42.9546C39.8339 42.8705 39.767 42.7706 39.7214 42.6606C39.6758 42.5507 39.6523 42.4328 39.6523 42.3137C39.6523 42.1946 39.6758 42.0767 39.7214 41.9668C39.767 41.8568 39.8339 41.7569 39.9182 41.6728L40.3454 41.2455L39.9182 40.8183C39.834 40.7341 39.7672 40.6342 39.7217 40.5242C39.6761 40.4142 39.6527 40.2964 39.6527 40.1773C39.6527 40.0583 39.6761 39.9405 39.7217 39.8305C39.7672 39.7205 39.834 39.6206 39.9182 39.5364C40.0023 39.4523 40.1022 39.3855 40.2122 39.34C40.3222 39.2944 40.44 39.271 40.5591 39.271C40.6781 39.271 40.796 39.2944 40.9059 39.34C41.0159 39.3855 41.1158 39.4523 41.2 39.5364L41.6273 39.9637L42.0545 39.5364C42.1387 39.4523 42.2386 39.3855 42.3486 39.34C42.4585 39.2944 42.5764 39.271 42.6954 39.271C42.8145 39.271 42.9323 39.2944 43.0423 39.34C43.1523 39.3855 43.2522 39.4523 43.3363 39.5364C43.4205 39.6206 43.4873 39.7205 43.5328 39.8305C43.5784 39.9405 43.6018 40.0583 43.6018 40.1773C43.6018 40.2964 43.5784 40.4142 43.5328 40.5242C43.4873 40.6342 43.4205 40.7341 43.3363 40.8183L42.9091 41.2455L43.3545 41.6728ZM49.0636 41.6728C49.1905 41.7998 49.2768 41.9615 49.3115 42.1376C49.3462 42.3137 49.3278 42.4961 49.2586 42.6618C49.1895 42.8274 49.0726 42.9687 48.923 43.0678C48.7734 43.1669 48.5976 43.2192 48.4182 43.2183C48.1818 43.2183 47.9545 43.1273 47.7727 42.9546L47.3454 42.5273L46.9182 42.9546C46.7363 43.1364 46.5091 43.2183 46.2727 43.2183C46.0364 43.2183 45.8091 43.1273 45.6273 42.9546C45.543 42.8705 45.4761 42.7706 45.4305 42.6606C45.3849 42.5507 45.3614 42.4328 45.3614 42.3137C45.3614 42.1946 45.3849 42.0767 45.4305 41.9668C45.4761 41.8568 45.543 41.7569 45.6273 41.6728L46.0545 41.2455L45.6273 40.8183C45.5431 40.7341 45.4763 40.6342 45.4308 40.5242C45.3852 40.4142 45.3618 40.2964 45.3618 40.1773C45.3618 40.0583 45.3852 39.9405 45.4308 39.8305C45.4763 39.7205 45.5431 39.6206 45.6273 39.5364C45.7114 39.4523 45.8113 39.3855 45.9213 39.34C46.0313 39.2944 46.1491 39.271 46.2682 39.271C46.3872 39.271 46.5051 39.2944 46.615 39.34C46.725 39.3855 46.8249 39.4523 46.9091 39.5364L47.3363 39.9637L47.7636 39.5364C47.8478 39.4523 47.9477 39.3855 48.0577 39.34C48.1676 39.2944 48.2855 39.271 48.4045 39.271C48.5236 39.271 48.6414 39.2944 48.7514 39.34C48.8614 39.3855 48.9613 39.4523 49.0454 39.5364C49.1296 39.6206 49.1964 39.7205 49.2419 39.8305C49.2875 39.9405 49.3109 40.0583 49.3109 40.1773C49.3109 40.2964 49.2875 40.4142 49.2419 40.5242C49.1964 40.6342 49.1296 40.7341 49.0454 40.8183L48.6182 41.2455L49.0636 41.6728ZM54.7818 41.6728C54.9087 41.7998 54.9949 41.9615 55.0297 42.1376C55.0644 42.3137 55.046 42.4961 54.9768 42.6618C54.9077 42.8274 54.7908 42.9687 54.6412 43.0678C54.4915 43.1669 54.3158 43.2192 54.1363 43.2183C53.9 43.2183 53.6727 43.1273 53.4909 42.9546L53.0636 42.5273L52.6363 42.9546C52.4545 43.1364 52.2273 43.2183 51.9909 43.2183C51.7545 43.2183 51.5273 43.1273 51.3454 42.9546C51.2612 42.8705 51.1943 42.7706 51.1487 42.6606C51.1031 42.5507 51.0796 42.4328 51.0796 42.3137C51.0796 42.1946 51.1031 42.0767 51.1487 41.9668C51.1943 41.8568 51.2612 41.7569 51.3454 41.6728L51.7727 41.2455L51.3454 40.8183C51.1755 40.6483 51.08 40.4177 51.08 40.1773C51.08 39.937 51.1755 39.7064 51.3454 39.5364C51.5154 39.3665 51.746 39.271 51.9864 39.271C52.2267 39.271 52.4573 39.3665 52.6273 39.5364L53.0545 39.9637L53.4818 39.5364C53.566 39.4523 53.6659 39.3855 53.7759 39.34C53.8858 39.2944 54.0037 39.271 54.1227 39.271C54.2417 39.271 54.3596 39.2944 54.4696 39.34C54.5795 39.3855 54.6795 39.4523 54.7636 39.5364C54.8478 39.6206 54.9146 39.7205 54.9601 39.8305C55.0056 39.9405 55.0291 40.0583 55.0291 40.1773C55.0291 40.2964 55.0056 40.4142 54.9601 40.5242C54.9146 40.6342 54.8478 40.7341 54.7636 40.8183L54.3363 41.2455L54.7818 41.6728ZM24.4818 23.1546V33.5455C24.4818 34.6273 25.3636 35.5092 26.4454 35.5092H39.4182C40.5 35.5092 41.3818 34.6273 41.3818 33.5455V23.1546C41.3818 22.0728 40.5 21.191 39.4182 21.191H26.4454C25.3545 21.191 24.4818 22.0728 24.4818 23.1546ZM32.9273 33.7273C32.4273 33.7273 32.0182 33.3182 32.0182 32.8182C32.0182 32.3182 32.4273 31.9092 32.9273 31.9092C33.4273 31.9092 33.8363 32.3182 33.8363 32.8182C33.8363 33.3182 33.4363 33.7273 32.9273 33.7273ZM31.0091 23.6728C31.6909 23.1001 32.5818 22.8637 33.4636 23.0182C34.6727 23.2273 35.6636 24.2182 35.8727 25.4273C35.9672 25.9561 35.9183 26.5006 35.7313 27.0042C35.5443 27.5077 35.2258 27.952 34.8091 28.291C34.5053 28.5378 34.261 28.8498 34.0942 29.2039C33.9274 29.558 33.8424 29.945 33.8454 30.3364C33.8454 30.8364 33.4363 31.2455 32.9363 31.2455C32.4363 31.2455 32.0273 30.8364 32.0273 30.3364C32.0273 28.9819 32.6273 27.7182 33.6727 26.8819C34.0091 26.6092 34.1636 26.1819 34.0909 25.7455C34.0091 25.2819 33.6182 24.891 33.1545 24.8092C32.9849 24.777 32.8102 24.7828 32.643 24.826C32.4758 24.8692 32.3202 24.9488 32.1873 25.059C32.0545 25.1693 31.9476 25.3076 31.8743 25.464C31.8011 25.6204 31.7633 25.791 31.7636 25.9637C31.7636 26.4637 31.3545 26.8728 30.8545 26.8728C30.3545 26.8728 29.9454 26.4637 29.9454 25.9637C29.9363 25.0728 30.3273 24.2455 31.0091 23.6728ZM39.4182 19.3728C39.4909 19.3728 39.5636 19.391 39.6363 19.391V17.391C39.6363 13.691 36.6273 10.6819 32.9273 10.6819C29.2273 10.6819 26.2182 13.691 26.2182 17.391V19.391C26.2909 19.391 26.3636 19.3728 26.4363 19.3728H28.0364V17.4001C28.0364 14.7001 30.2273 12.5092 32.9273 12.5092C35.6273 12.5092 37.8182 14.7001 37.8182 17.4001V19.3728H39.4182Z" fill="#D33C56"/>
<path d="M19.0273 35.909L19.7546 37.1272V9.09084H46.1091V36.409H49.7455V5.45448C49.7455 3.44539 48.1182 1.81812 46.1091 1.81812H19.7546C17.7455 1.81812 16.1182 3.44539 16.1182 5.45448V33.7999C17.3182 34.0727 18.3727 34.809 19.0273 35.909ZM26.6546 4.54539H39.2091C39.7091 4.54539 40.1182 4.95448 40.1182 5.45448C40.1182 5.95448 39.7091 6.36357 39.2091 6.36357H26.6546C26.1546 6.36357 25.7455 5.95448 25.7455 5.45448C25.7455 4.95448 26.1546 4.54539 26.6546 4.54539ZM46.1091 47.2727H25.8091L29.3 53.1272C29.7665 53.9 29.99 54.7951 29.9413 55.6964C29.8927 56.5978 29.5742 57.4637 29.0273 58.1818H46.1C48.1091 58.1818 49.7364 56.5545 49.7364 54.5454V46.0818H46.1V47.2727H46.1091ZM32.9273 54.5454C31.9273 54.5454 31.1091 53.7272 31.1091 52.7272C31.1091 51.7272 31.9273 50.909 32.9273 50.909C33.9273 50.909 34.7455 51.7272 34.7455 52.7272C34.7455 53.7272 33.9364 54.5454 32.9273 54.5454Z" fill="#D33C56"/>
</svg>
