<svg width="100" height="100" viewBox="0 0 100 100" fill="none" xmlns="http://www.w3.org/2000/svg">
<path d="M29.3199 27.5695C29.5885 27.8828 29.9686 28.0791 30.3796 28.1166C30.7905 28.1541 31.1999 28.0299 31.5207 27.7703C31.8921 27.4609 32.2712 27.1609 32.6582 26.8703C32.9804 26.6183 33.191 26.2501 33.2447 25.8447C33.2984 25.4392 33.191 25.0289 32.9456 24.7017C32.7001 24.3746 32.3362 24.1567 31.9319 24.0949C31.5276 24.033 31.1152 24.1322 30.7832 24.371C30.3541 24.6929 29.9332 25.0255 29.5207 25.3687C29.363 25.5 29.2327 25.6611 29.1373 25.8428C29.0418 26.0244 28.9831 26.2231 28.9645 26.4275C28.9458 26.6319 28.9676 26.8379 29.0286 27.0338C29.0896 27.2298 29.1886 27.4118 29.3199 27.5695ZM44.2004 21.6445C44.2981 21.6445 45.4473 21.4445 45.9285 21.3773C46.1332 21.3505 46.3305 21.2834 46.5091 21.1799C46.6876 21.0764 46.8439 20.9385 46.9689 20.7743C47.0939 20.61 47.1851 20.4227 47.2373 20.223C47.2895 20.0233 47.3015 19.8152 47.2729 19.6108C47.2442 19.4065 47.1753 19.2098 47.0701 19.0322C46.965 18.8545 46.8257 18.6995 46.6603 18.576C46.495 18.4526 46.3068 18.3631 46.1066 18.3127C45.9064 18.2624 45.6983 18.2522 45.4942 18.2828C44.9603 18.3578 44.4309 18.4458 43.9059 18.5468C43.5233 18.6194 43.1816 18.8321 42.9477 19.1435C42.7138 19.4548 42.6046 19.8422 42.6414 20.2299C42.6783 20.6175 42.8586 20.9775 43.1469 21.2391C43.4353 21.5008 43.811 21.6454 44.2004 21.6445ZM34.9559 78.2851C35.4293 78.5377 35.9098 78.7786 36.3973 79.0078C36.7729 79.1796 37.2009 79.1973 37.5895 79.0571C37.978 78.9168 38.2961 78.6299 38.4754 78.2578C38.6515 77.8828 38.6715 77.4533 38.531 77.0636C38.3905 76.6739 38.101 76.3559 37.7262 76.1796C37.2866 75.9729 36.8533 75.7557 36.4262 75.5281C36.0605 75.3331 35.6323 75.2914 35.2358 75.4121C34.8394 75.5328 34.5071 75.8061 34.3121 76.1718C34.1172 76.5375 34.0754 76.9657 34.1962 77.3622C34.3169 77.7586 34.5902 78.0901 34.9559 78.2851ZM20.8121 36.7882C20.5908 37.2768 20.3811 37.7721 20.1832 38.2742C20.0316 38.6598 20.0393 39.0898 20.2048 39.4697C20.3702 39.8496 20.6797 40.1482 21.0653 40.2999C21.4511 40.4467 21.8791 40.4367 22.2577 40.272C22.6363 40.1074 22.9354 39.8011 23.091 39.4187C23.2692 38.9666 23.4582 38.5203 23.6582 38.0796C23.743 37.8928 23.7902 37.691 23.797 37.4859C23.8038 37.2808 23.7702 37.0764 23.698 36.8843C23.6258 36.6922 23.5165 36.5162 23.3763 36.3663C23.2361 36.2165 23.0678 36.0957 22.8809 36.0109C22.694 35.9261 22.4923 35.8789 22.2872 35.8721C22.0821 35.8653 21.8776 35.8989 21.6855 35.9711C21.4934 36.0433 21.3174 36.1526 21.1676 36.2928C21.0177 36.433 20.8969 36.6014 20.8121 36.7882ZM43.1957 78.1015C42.7928 78.0044 42.3679 78.0714 42.0143 78.2876C41.6608 78.5039 41.4076 78.8517 41.3106 79.2546C41.2135 79.6575 41.2804 80.0825 41.4967 80.436C41.713 80.7896 42.0608 81.0427 42.4637 81.1398C42.9832 81.2648 44.2309 81.5046 44.3278 81.5046C44.7173 81.505 45.093 81.3598 45.3811 81.0975C45.6691 80.8352 45.8488 80.4748 45.8849 80.0869C45.921 79.699 45.8109 79.3116 45.5762 79.0007C45.3414 78.6897 44.999 78.4777 44.616 78.4062C44.1384 78.3161 43.6655 78.2145 43.1957 78.1015ZM24.3887 33.4124C24.726 33.6504 25.1429 33.7471 25.5506 33.682C25.9582 33.6169 26.3243 33.3952 26.5707 33.064C26.8551 32.6713 27.1488 32.2864 27.452 31.9093C27.7117 31.5864 27.8325 31.1735 27.7878 30.7615C27.7431 30.3495 27.5366 29.9722 27.2137 29.7125C26.8908 29.4527 26.4779 29.3319 26.0659 29.3766C25.6539 29.4213 25.2765 29.6278 25.0168 29.9507C24.6809 30.369 24.3554 30.7955 24.0403 31.2304C23.7971 31.566 23.6972 31.9844 23.7626 32.3936C23.8279 32.8028 24.0531 33.1693 24.3887 33.4124ZM53.5028 80.3093C53.49 80.1045 53.437 79.9041 53.3468 79.7198C53.2565 79.5355 53.1308 79.3707 52.9768 79.235C52.8229 79.0993 52.6436 78.9953 52.4494 78.929C52.2552 78.8626 52.0498 78.8353 51.8449 78.8484C51.3637 78.8796 50.8798 78.8981 50.3934 78.9039C49.979 78.9065 49.5826 79.0738 49.2915 79.3687C49.0004 79.6636 48.8383 80.0621 48.841 80.4765C48.8437 80.8909 49.0109 81.2873 49.3059 81.5784C49.6008 81.8695 49.9993 82.0315 50.4137 82.0289H50.4348C50.9744 82.0221 51.51 82.0018 52.0418 81.9679C52.2467 81.955 52.447 81.9018 52.6313 81.8115C52.8156 81.7211 52.9802 81.5953 53.1159 81.4413C53.2516 81.2873 53.3556 81.108 53.422 80.9138C53.4883 80.7196 53.5158 80.5142 53.5028 80.3093ZM36.9535 24.0062C37.6348 23.8152 38.3008 23.5731 38.9457 23.282C39.3206 23.1181 39.6163 22.8138 39.7692 22.4343C39.9221 22.0548 39.9201 21.6305 39.7636 21.2525C39.607 20.8745 39.3085 20.573 38.9321 20.4127C38.5557 20.2524 38.1314 20.2461 37.7504 20.3953C37.2546 20.6005 36.765 20.8177 36.2817 21.0468C35.9073 21.2244 35.6187 21.5434 35.4795 21.9337C35.3404 22.3241 35.3619 22.7537 35.5395 23.1281C35.6741 23.3883 35.8766 23.6074 36.1255 23.7619C36.3745 23.9165 36.6606 24.0009 36.9535 24.0062ZM31.816 74.4999C31.9467 74.3417 32.0448 74.1592 32.1049 73.9629C32.1651 73.7667 32.1859 73.5605 32.1663 73.3562C32.1467 73.1519 32.0871 72.9535 31.9908 72.7723C31.8945 72.591 31.7634 72.4305 31.6051 72.2999C31.2317 71.9916 30.8663 71.6739 30.509 71.3468C30.2029 71.0673 29.7982 70.9209 29.3841 70.9397C28.97 70.9585 28.5803 71.1411 28.3008 71.4472C28.0213 71.7533 27.8748 72.158 27.8937 72.5721C27.9125 72.9862 28.0951 73.3759 28.4012 73.6554C28.7975 74.0169 29.2025 74.3684 29.616 74.7101C29.9379 74.9683 30.3479 75.0909 30.7587 75.0516C31.1695 75.0124 31.5488 74.8145 31.816 74.4999ZM23.1332 60.6906C22.9551 60.2427 22.7877 59.789 22.6309 59.3296C22.5674 59.1321 22.4652 58.9493 22.3303 58.7917C22.1954 58.6341 22.0305 58.505 21.8451 58.4118C21.6598 58.3186 21.4578 58.2633 21.2508 58.249C21.0439 58.2348 20.8361 58.2619 20.6398 58.3287C20.4434 58.3956 20.2623 58.5009 20.1071 58.6384C19.9518 58.776 19.8255 58.9431 19.7355 59.1301C19.6455 59.317 19.5937 59.5199 19.5829 59.7271C19.5722 59.9342 19.6029 60.1415 19.6731 60.3367C19.846 60.846 20.0319 61.3494 20.2309 61.8468C20.3917 62.2257 20.6924 62.528 21.0705 62.6907C21.4486 62.8534 21.8749 62.864 22.2606 62.7203C22.6454 62.5668 22.9535 62.2667 23.1172 61.8861C23.2808 61.5055 23.2866 61.0755 23.1332 60.6906ZM24.1129 68.8703C24.3632 69.197 24.7299 69.4147 25.1366 69.478C25.5433 69.5413 25.9587 69.4454 26.2965 69.2101C26.6311 68.9658 26.8549 68.5986 26.9188 68.1892C26.9826 67.7799 26.8813 67.3619 26.6371 67.0273C26.3522 66.6367 26.0767 66.2387 25.8106 65.8335C25.5831 65.4871 25.2273 65.2452 24.8214 65.1611C24.4156 65.077 23.9929 65.1576 23.6465 65.3851C23.3001 65.6126 23.0582 65.9684 22.9741 66.3743C22.89 66.7801 22.9706 67.2027 23.1981 67.5492C23.4926 67.9976 23.7864 68.4468 24.1129 68.8703ZM18.2246 54.075C18.2856 54.4784 18.5019 54.842 18.8274 55.088C19.1529 55.334 19.5618 55.443 19.9665 55.3916C20.3713 55.3401 20.7399 55.1324 20.9935 54.8128C21.2472 54.4932 21.3657 54.0871 21.3239 53.6812C21.2634 53.2031 21.2147 52.7221 21.1778 52.2382C21.1661 52.0308 21.1133 51.8279 21.0223 51.6412C20.9313 51.4544 20.804 51.2877 20.6479 51.1508C20.4917 51.0138 20.3098 50.9094 20.1128 50.8436C19.9158 50.7778 19.7076 50.7519 19.5005 50.7675C19.2934 50.7831 19.0914 50.8398 18.9065 50.9344C18.7216 51.0289 18.5573 51.1594 18.4234 51.3181C18.2895 51.4769 18.1885 51.6608 18.1265 51.859C18.0645 52.0572 18.0426 52.2658 18.0621 52.4726C18.1022 53.0106 18.1564 53.5447 18.2246 54.075ZM80.5942 59.5124C80.7541 59.0005 80.9004 58.483 81.0332 57.9601C81.0878 57.7601 81.1021 57.5512 81.0751 57.3456C81.0482 57.14 80.9806 56.9419 80.8763 56.7627C80.772 56.5835 80.6331 56.4268 80.4676 56.3018C80.3022 56.1769 80.1135 56.0861 79.9126 56.0348C79.7118 55.9834 79.5027 55.9726 79.2975 56.0029C79.0924 56.0332 78.8954 56.104 78.7179 56.2112C78.5405 56.3185 78.3861 56.4599 78.2639 56.6274C78.1416 56.7948 78.0539 56.985 78.0059 57.1867C77.8861 57.6554 77.7543 58.12 77.6106 58.5804C77.5494 58.7763 77.5274 58.9824 77.5458 59.1868C77.5642 59.3912 77.6227 59.59 77.718 59.7718C77.8132 59.9536 77.9434 60.1148 78.1009 60.2463C78.2585 60.3778 78.4404 60.477 78.6363 60.5382C78.8323 60.5994 79.0383 60.6214 79.2427 60.603C79.4471 60.5846 79.6459 60.5261 79.8277 60.4308C80.0095 60.3356 80.1708 60.2054 80.3023 60.0479C80.4338 59.8903 80.533 59.7084 80.5942 59.5124ZM19.5692 47.7953C19.9799 47.842 20.3925 47.7257 20.7183 47.4714C21.0441 47.217 21.2571 46.8449 21.3113 46.4351C21.3707 45.9528 21.4418 45.4739 21.5246 44.9984C21.5636 44.7947 21.5617 44.5853 21.519 44.3824C21.4763 44.1795 21.3935 43.9871 21.2757 43.8164C21.1578 43.6458 21.0072 43.5003 20.8325 43.3885C20.6579 43.2767 20.4627 43.2008 20.2584 43.1651C20.0541 43.1295 19.8448 43.1349 19.6426 43.181C19.4404 43.2271 19.2494 43.313 19.0808 43.4337C18.9121 43.5544 18.7692 43.7074 18.6603 43.8839C18.5514 44.0604 18.4787 44.2568 18.4465 44.4617C18.3543 44.9882 18.2754 45.519 18.2098 46.0539C18.1592 46.465 18.274 46.8794 18.5289 47.206C18.7839 47.5325 19.158 47.7445 19.5692 47.7953ZM81.0028 41.9124C80.951 41.7139 80.8607 41.5274 80.737 41.3638C80.6132 41.2001 80.4584 41.0624 80.2814 40.9586C80.1045 40.8547 79.9088 40.7867 79.7055 40.7585C79.5023 40.7303 79.2955 40.7424 79.0969 40.7941C78.8983 40.8458 78.7119 40.9361 78.5482 41.0599C78.3845 41.1836 78.2468 41.3384 78.143 41.5154C78.0391 41.6924 77.9712 41.8881 77.943 42.0913C77.9147 42.2946 77.9268 42.5014 77.9785 42.6999C78.0999 43.1666 78.21 43.638 78.309 44.114C78.3993 44.5161 78.6423 44.8674 78.9868 45.0937C79.3313 45.3199 79.7502 45.4034 80.1551 45.3265C80.5607 45.2425 80.9164 45.0008 81.1439 44.6546C81.3714 44.3085 81.4522 43.8861 81.3684 43.4804C81.259 42.9528 81.1371 42.4302 81.0028 41.9124ZM74.3504 29.1859C74.0014 28.7791 73.6431 28.3812 73.2754 27.9921C72.989 27.6983 72.5985 27.5289 72.1883 27.5206C71.7781 27.5122 71.3811 27.6655 71.0829 27.9475C70.7848 28.2294 70.6095 28.6172 70.595 29.0273C70.5804 29.4373 70.7277 29.8367 71.0051 30.139C71.3379 30.4911 71.6621 30.8515 71.9778 31.2203C72.2504 31.5302 72.6333 31.7214 73.0448 31.7531C73.4564 31.7847 73.8641 31.6544 74.1809 31.3898C74.4955 31.1201 74.6901 30.7365 74.7219 30.3233C74.7537 29.9102 74.6201 29.5005 74.3504 29.1859ZM60.927 78.4937C60.7982 78.1002 60.5187 77.7737 60.1496 77.586C59.7806 77.3982 59.3521 77.3645 58.9582 77.4921C58.4999 77.6416 58.0363 77.7796 57.5676 77.9062C57.2012 78.0043 56.8829 78.2323 56.6723 78.5477C56.4616 78.8631 56.3728 79.2444 56.4226 79.6204C56.4723 79.9965 56.6571 80.3416 56.9425 80.5914C57.228 80.8412 57.5945 80.9786 57.9739 80.9781C58.1082 80.9781 59.4168 80.6296 59.9254 80.464C60.1206 80.4004 60.3013 80.299 60.4573 80.1656C60.6132 80.0322 60.7414 79.8693 60.8344 79.6864C60.9274 79.5034 60.9835 79.3039 60.9993 79.0992C61.0152 78.8946 60.9906 78.6888 60.927 78.4937ZM75.2863 35.9812C75.5207 36.4031 75.7447 36.8312 75.9582 37.2656C76.1451 37.6338 76.4685 37.9144 76.8593 38.0476C77.2501 38.1809 77.6775 38.1562 78.0504 37.9789C78.4223 37.7961 78.7064 37.4731 78.8402 37.0809C78.974 36.6887 78.9464 36.2594 78.7637 35.8875C78.5272 35.4057 78.2788 34.9309 78.0184 34.4632C77.9202 34.2811 77.7869 34.1202 77.6261 33.99C77.4653 33.8598 77.2802 33.7629 77.0816 33.7047C76.883 33.6466 76.6749 33.6285 76.4693 33.6515C76.2637 33.6745 76.0646 33.7381 75.8838 33.8386C75.7029 33.9391 75.5438 34.0746 75.4157 34.2371C75.2877 34.3996 75.1931 34.5859 75.1376 34.7852C75.0821 34.9845 75.0667 35.1929 75.0924 35.3982C75.1181 35.6035 75.1835 35.8017 75.2863 35.9812ZM78.9067 49.8757C78.9067 49.8757 78.8949 50.971 78.8715 51.4523C78.8509 51.866 78.9954 52.271 79.2733 52.5783C79.5513 52.8855 79.9398 53.0698 80.3535 53.0906C80.7458 53.105 81.1295 52.9733 81.4303 52.721C81.7311 52.4687 81.9276 52.1138 81.9817 51.7249C81.9863 51.6859 82.0324 49.8757 82.0324 49.8757C82.0324 49.4613 81.8678 49.0639 81.5748 48.7709C81.2818 48.4779 80.8843 48.3132 80.4699 48.3132C80.0555 48.3132 79.6581 48.4779 79.3651 48.7709C79.0721 49.0639 78.9067 49.4613 78.9067 49.8757ZM75.116 67.3234C75.4696 67.5369 75.8926 67.6035 76.2947 67.5089C76.6967 67.4142 77.0456 67.1659 77.2668 66.8171C77.5496 66.3609 77.821 65.8966 78.0809 65.4242C78.2805 65.0609 78.3277 64.6333 78.212 64.2353C78.0963 63.8373 77.8273 63.5015 77.4641 63.3019C77.1009 63.1023 76.6732 63.0551 76.2752 63.1708C75.8772 63.2864 75.5415 63.5555 75.3418 63.9187C75.1085 64.3437 74.8645 64.7617 74.6098 65.1726C74.5017 65.347 74.4291 65.5411 74.396 65.7436C74.363 65.9461 74.3702 66.1532 74.4172 66.3529C74.4642 66.5527 74.5501 66.7412 74.67 66.9077C74.7899 67.0742 74.9415 67.2155 75.116 67.3234ZM50.2582 19.4921C50.2462 19.697 50.2746 19.9023 50.3419 20.0962C50.4092 20.2901 50.5141 20.4688 50.6504 20.6222C50.7868 20.7756 50.9521 20.9006 51.1368 20.99C51.3215 21.0795 51.5221 21.1317 51.727 21.1437C52.2129 21.1723 52.6957 21.2127 53.1754 21.2648C53.2322 21.2709 53.2893 21.2741 53.3465 21.2742C53.7457 21.273 54.1293 21.1191 54.4187 20.8441C54.708 20.569 54.8811 20.1936 54.9023 19.795C54.9236 19.3964 54.7915 19.0047 54.5332 18.7004C54.2748 18.3961 53.9097 18.2022 53.5129 18.1585C52.9817 18.1013 52.4473 18.0565 51.9098 18.0242C51.4963 18.0007 51.0904 18.142 50.7808 18.4171C50.4713 18.6922 50.2834 19.0788 50.2582 19.4921ZM65.5035 74.4023C65.0962 74.6617 64.6822 74.9109 64.2613 75.1499C64.0829 75.2512 63.9261 75.3867 63.8 75.5486C63.6738 75.7105 63.5808 75.8956 63.5263 76.0935C63.4717 76.2913 63.4567 76.498 63.482 76.7016C63.5073 76.9053 63.5725 77.102 63.6738 77.2804C63.8825 77.6366 64.2219 77.8972 64.6198 78.0068C65.0178 78.1164 65.4428 78.0663 65.8043 77.8671C66.271 77.602 66.7301 77.3257 67.1817 77.0382C67.3573 76.9293 67.5097 76.7865 67.6298 76.6183C67.7499 76.45 67.8355 76.2596 67.8815 76.058C67.9275 75.8565 67.933 75.6478 67.8978 75.4441C67.8625 75.2403 67.7872 75.0457 67.6762 74.8713C67.5652 74.6969 67.4206 74.5462 67.251 74.4281C67.0813 74.31 66.8899 74.2267 66.6878 74.183C66.4857 74.1394 66.277 74.1363 66.0737 74.174C65.8704 74.2116 65.6766 74.2892 65.5035 74.4023ZM71.0817 69.7781C70.7494 70.1317 70.4087 70.477 70.0598 70.814C69.762 71.1019 69.5906 71.4962 69.5835 71.9104C69.5763 72.3245 69.7338 72.7246 70.0215 73.0226C70.3118 73.3163 70.7054 73.4848 71.1182 73.4921C71.5311 73.4994 71.9304 73.3449 72.2309 73.0617C72.6163 72.6898 72.9926 72.3085 73.3598 71.9179C73.6435 71.6158 73.7957 71.2134 73.7827 70.7991C73.7697 70.3848 73.5927 69.9927 73.2906 69.7089C72.9885 69.4252 72.5861 69.273 72.1718 69.286C71.7576 69.299 71.3654 69.476 71.0817 69.7781ZM58.8442 22.4703C59.3077 22.6192 59.766 22.7794 60.2192 22.9507C60.607 23.0923 61.0349 23.0765 61.4112 22.9065C61.7875 22.7365 62.0823 22.426 62.2324 22.0414C62.3051 21.8494 62.3392 21.6449 62.3328 21.4397C62.3265 21.2345 62.2797 21.0326 62.1953 20.8455C62.1108 20.6584 61.9903 20.4897 61.8407 20.3492C61.691 20.2087 61.5151 20.099 61.3231 20.0265C60.821 19.8369 60.3132 19.6598 59.7996 19.4953C59.6034 19.4291 59.3959 19.4025 59.1894 19.4172C58.9828 19.4319 58.7812 19.4875 58.5963 19.5808C58.4114 19.6741 58.2468 19.8033 58.1123 19.9607C57.9778 20.1182 57.8759 20.3008 57.8125 20.498C57.7492 20.6952 57.7257 20.903 57.7434 21.1094C57.7611 21.3157 57.8197 21.5165 57.9157 21.7C58.0117 21.8835 58.1432 22.0461 58.3026 22.1784C58.462 22.3106 58.6461 22.4098 58.8442 22.4703ZM65.4098 25.5374C65.8192 25.7963 66.222 26.0651 66.6184 26.3437C66.9589 26.5773 67.3772 26.6685 67.784 26.5978C68.1908 26.5272 68.5539 26.3003 68.7957 25.9656C68.914 25.7977 68.998 25.6082 69.0429 25.4079C69.0879 25.2075 69.0929 25.0003 69.0577 24.798C69.0225 24.5957 68.9478 24.4023 68.8378 24.2289C68.7279 24.0555 68.5848 23.9055 68.4168 23.7874C67.9778 23.4791 67.5309 23.1812 67.0762 22.8937C66.7256 22.6727 66.3016 22.6001 65.8974 22.6917C65.4933 22.7833 65.1421 23.0318 64.9211 23.3824C64.7001 23.733 64.6275 24.157 64.7191 24.5611C64.8108 24.9653 65.0592 25.3165 65.4098 25.5374ZM49.9723 9.37495C50.3864 9.37454 50.7834 9.20973 51.0761 8.91675C51.3688 8.62377 51.5332 8.22658 51.5332 7.81245V1.56245C51.5332 1.14826 51.3687 0.751028 51.0758 0.458149C50.7829 0.16527 50.3857 0.000732422 49.9715 0.000732422C49.5573 0.000732422 49.1601 0.16527 48.8672 0.458149C48.5743 0.751028 48.4098 1.14826 48.4098 1.56245V7.81245C48.4098 8.22685 48.5744 8.62428 48.8674 8.9173C49.1605 9.21033 49.5579 9.37495 49.9723 9.37495ZM48.4098 92.1874V98.4374C48.4098 98.8516 48.5743 99.2489 48.8672 99.5417C49.1601 99.8346 49.5573 99.9992 49.9715 99.9992C50.3857 99.9992 50.7829 99.8346 51.0758 99.5417C51.3687 99.2489 51.5332 98.8516 51.5332 98.4374V92.1874C51.5332 91.7733 51.3687 91.376 51.0758 91.0831C50.7829 90.7903 50.3857 90.6257 49.9715 90.6257C49.5573 90.6257 49.1601 90.7903 48.8672 91.0831C48.5743 91.376 48.4098 91.7733 48.4098 92.1874ZM37.5512 9.6562C37.6659 10.0515 37.929 10.3871 38.2854 10.593C38.6418 10.7989 39.064 10.859 39.4637 10.7609C39.8639 10.6536 40.205 10.3918 40.4122 10.033C40.6193 9.67418 40.6755 9.24781 40.5684 8.84761L39.7582 5.82886C39.7099 5.62565 39.6214 5.43419 39.4978 5.26581C39.3742 5.09743 39.2181 4.95555 39.0388 4.84857C38.8594 4.74158 38.6604 4.67166 38.4535 4.64295C38.2466 4.61424 38.0361 4.62731 37.8343 4.68141C37.6326 4.7355 37.4438 4.82951 37.279 4.95787C37.1142 5.08623 36.9769 5.24634 36.8751 5.42872C36.7733 5.6111 36.7091 5.81204 36.6864 6.01966C36.6636 6.22728 36.6827 6.43735 36.7426 6.63745L37.5512 9.6562ZM19.0551 21.275C19.3529 21.5584 19.7483 21.7165 20.1594 21.7165C20.5705 21.7165 20.9659 21.5584 21.2637 21.275C21.5566 20.9819 21.7212 20.5846 21.7212 20.1703C21.7212 19.7559 21.5566 19.3586 21.2637 19.0656L19.0551 16.8562C18.7596 16.5756 18.3663 16.4215 17.9588 16.4268C17.5514 16.4321 17.1621 16.5963 16.874 16.8845C16.586 17.1727 16.4219 17.562 16.4167 17.9694C16.4116 18.3769 16.5658 18.7702 16.8465 19.0656L19.0551 21.275ZM5.8262 39.782C5.8262 39.782 9.1137 40.6445 9.24807 40.6445C9.62711 40.6443 9.99315 40.5063 10.278 40.2562C10.5629 40.0062 10.7471 39.6611 10.7964 39.2853C10.8458 38.9095 10.7568 38.5285 10.5461 38.2134C10.3354 37.8984 10.0173 37.6706 9.6512 37.5726L6.63401 36.7632C6.23442 36.6583 5.80953 36.7159 5.4523 36.9234C5.09506 37.1309 4.83455 37.4715 4.72775 37.8706C4.62095 38.2697 4.67656 38.6948 4.88241 39.053C5.08826 39.4112 5.4276 39.6733 5.8262 39.782ZM10.7559 60.514C10.7031 60.3157 10.6117 60.1298 10.487 59.9669C10.3622 59.804 10.2066 59.6674 10.0289 59.5647C9.85124 59.4621 9.65507 59.3956 9.45163 59.3689C9.2482 59.3422 9.0415 59.356 8.84338 59.4093L5.8262 60.2179C5.426 60.3254 5.08488 60.5874 4.87786 60.9463C4.67084 61.3053 4.61488 61.7318 4.72229 62.132C4.83564 62.528 5.09832 62.8645 5.45496 63.0706C5.81159 63.2767 6.23432 63.3362 6.63401 63.2367L9.6512 62.4273C10.0514 62.3198 10.3925 62.0578 10.5995 61.6989C10.8066 61.3399 10.8625 60.9134 10.7551 60.5132L10.7559 60.514ZM16.8465 83.1437C17.1419 83.4319 17.5382 83.5932 17.9508 83.5932C18.3635 83.5932 18.7598 83.4319 19.0551 83.1437L21.2637 80.9343C21.5444 80.639 21.6986 80.2456 21.6935 79.8382C21.6883 79.4307 21.5242 79.0414 21.2362 78.7533C20.9481 78.4651 20.5588 78.3008 20.1514 78.2955C19.7439 78.2903 19.3506 78.4443 19.0551 78.7249L16.8465 80.9343C16.5536 81.2273 16.389 81.6247 16.389 82.039C16.389 82.4533 16.5536 82.8507 16.8465 83.1437ZM37.5512 90.3437L36.7426 93.3624C36.6852 93.5619 36.6681 93.7707 36.6923 93.9768C36.7165 94.1829 36.7815 94.3821 36.8836 94.5628C36.9857 94.7435 37.1227 94.902 37.2868 95.0291C37.4508 95.1562 37.6385 95.2493 37.839 95.3031C38.0394 95.3568 38.2485 95.3701 38.4542 95.342C38.6598 95.314 38.8577 95.2453 39.0365 95.1399C39.2153 95.0345 39.3712 94.8946 39.4953 94.7282C39.6193 94.5618 39.709 94.3724 39.759 94.171L40.5684 91.1523C40.6215 90.9542 40.635 90.7475 40.6083 90.5442C40.5815 90.3409 40.5149 90.1448 40.4124 89.9671C40.3099 89.7895 40.1733 89.6338 40.0106 89.5089C39.8479 89.3841 39.6622 89.2925 39.4641 89.2394C39.266 89.1863 39.0593 89.1728 38.856 89.1995C38.6526 89.2263 38.4566 89.2928 38.2789 89.3954C38.1013 89.4979 37.9456 89.6344 37.8207 89.7972C37.6959 89.9599 37.6043 90.1456 37.5512 90.3437ZM27.5379 14.246C27.7494 14.5998 28.0903 14.8574 28.4884 14.9641C28.8866 15.0709 29.3106 15.0184 29.6707 14.8179C30.0296 14.6107 30.2914 14.2694 30.3987 13.8692C30.5059 13.4689 30.4498 13.0424 30.2426 12.6835L27.1192 7.27026C27.02 7.08608 26.885 6.92367 26.7219 6.79267C26.5589 6.66166 26.3712 6.56473 26.17 6.50761C25.9688 6.45048 25.7581 6.43434 25.5506 6.46013C25.343 6.48592 25.1427 6.55312 24.9616 6.65775C24.7805 6.76237 24.6223 6.90229 24.4962 7.06922C24.3702 7.23614 24.279 7.42667 24.228 7.62951C24.1769 7.83235 24.1671 8.04336 24.1992 8.25005C24.2312 8.45674 24.3044 8.65489 24.4145 8.83276C24.4145 8.83276 27.5356 14.2421 27.5379 14.246ZM7.26604 27.1343L12.6754 30.2593C13.036 30.4579 13.4593 30.5092 13.8569 30.4026C14.2545 30.296 14.5954 30.0397 14.8082 29.6874C15.0155 29.3288 15.0719 28.9024 14.965 28.5022C14.858 28.1019 14.5965 27.7605 14.2379 27.5531L8.82776 24.4281C8.46939 24.2294 8.04732 24.1794 7.65247 24.2889C7.25761 24.3985 6.92159 24.6587 6.71678 25.0136C6.51197 25.3685 6.45477 25.7897 6.55751 26.1863C6.66025 26.583 6.9147 26.9235 7.26604 27.1343ZM1.56213 51.5624H7.80901C8.22341 51.5624 8.62084 51.3978 8.91386 51.1048C9.20689 50.8118 9.37151 50.4143 9.37151 49.9999C9.37151 49.5855 9.20689 49.1881 8.91386 48.8951C8.62084 48.6021 8.22341 48.4374 7.80901 48.4374H1.56213C1.14773 48.4374 0.750305 48.6021 0.457279 48.8951C0.164254 49.1881 -0.000366211 49.5855 -0.000366211 49.9999C-0.000366211 50.4143 0.164254 50.8118 0.457279 51.1048C0.750305 51.3978 1.14773 51.5624 1.56213 51.5624ZM24.9856 93.3015C25.3452 93.5041 25.77 93.5576 26.1687 93.4507C26.5674 93.3438 26.9083 93.0849 27.1184 92.7296L30.2426 87.3164C30.3526 87.1385 30.4259 86.9403 30.4579 86.7336C30.4899 86.5269 30.4801 86.3159 30.4291 86.1131C30.3781 85.9103 30.2869 85.7197 30.1608 85.5528C30.0348 85.3859 29.8765 85.246 29.6954 85.1413C29.5143 85.0367 29.3141 84.9695 29.1065 84.9437C28.8989 84.9179 28.6883 84.9341 28.4871 84.9912C28.2859 85.0483 28.0982 85.1453 27.9352 85.2763C27.7721 85.4073 27.637 85.5697 27.5379 85.7539L24.4145 91.1671C24.2072 91.5259 24.151 91.9523 24.258 92.3526C24.3651 92.7528 24.6268 93.0942 24.9856 93.3015ZM8.82854 75.5718L14.2379 72.4468C14.5893 72.236 14.8437 71.8955 14.9464 71.4988C15.0492 71.1022 14.992 70.681 14.7872 70.3261C14.5824 69.9712 14.2463 69.711 13.8515 69.6014C13.4566 69.4919 13.0346 69.5419 12.6762 69.7406L7.26682 72.8656C6.90796 73.0728 6.6461 73.4141 6.53885 73.8143C6.43161 74.2146 6.48776 74.6411 6.69495 74.9999C6.90575 75.3547 7.24682 75.6131 7.64541 75.7199C8.04401 75.8267 8.46857 75.7736 8.82854 75.5718ZM60.5371 10.7609C60.9369 10.859 61.359 10.7989 61.7155 10.593C62.0719 10.3871 62.3349 10.0515 62.4496 9.6562L63.2582 6.63745C63.3157 6.43804 63.3328 6.22918 63.3085 6.02308C63.2843 5.81698 63.2193 5.61777 63.1172 5.4371C63.0151 5.25642 62.8781 5.0979 62.7141 4.97079C62.55 4.84369 62.3623 4.75055 62.1619 4.69682C61.9614 4.64309 61.7523 4.62984 61.5467 4.65786C61.341 4.68587 61.1431 4.75458 60.9643 4.85998C60.7856 4.96537 60.6296 5.10534 60.5055 5.27169C60.3815 5.43805 60.2918 5.62746 60.2418 5.82886L59.4324 8.84761C59.3793 9.04582 59.3657 9.25257 59.3924 9.45604C59.4192 9.65951 59.4857 9.85572 59.5883 10.0335C59.6909 10.2112 59.8275 10.367 59.9903 10.4919C60.1531 10.6169 60.3389 10.7078 60.5371 10.7609ZM80.9457 21.275L83.1543 19.0656C83.435 18.7702 83.5892 18.3769 83.5841 17.9694C83.579 17.562 83.4149 17.1727 83.1268 16.8845C82.8387 16.5963 82.4494 16.4321 82.042 16.4268C81.6346 16.4215 81.2412 16.5756 80.9457 16.8562L78.7371 19.0656C78.4442 19.3586 78.2796 19.7559 78.2796 20.1703C78.2796 20.5846 78.4442 20.9819 78.7371 21.275C79.0349 21.5584 79.4303 21.7165 79.8414 21.7165C80.2526 21.7165 80.6479 21.5584 80.9457 21.275ZM90.3496 37.5718C89.9828 37.6692 89.6639 37.8969 89.4527 38.2122C89.2414 38.5275 89.1521 38.9089 89.2014 39.2852C89.2508 39.6616 89.4355 40.0071 89.721 40.2572C90.0064 40.5073 90.3732 40.645 90.7528 40.6445C90.8871 40.6445 94.1746 39.782 94.1746 39.782C94.5732 39.6733 94.9126 39.4112 95.1184 39.053C95.3243 38.6948 95.3799 38.2697 95.2731 37.8706C95.1663 37.4715 94.9058 37.1309 94.5485 36.9234C94.1913 36.7159 93.7664 36.6583 93.3668 36.7632L90.3496 37.5718ZM90.3496 62.4273L93.3668 63.2367C93.7665 63.3362 94.1892 63.2767 94.5459 63.0706C94.9025 62.8645 95.1652 62.528 95.2785 62.132C95.3859 61.7318 95.33 61.3053 95.123 60.9463C94.9159 60.5874 94.5748 60.3254 94.1746 60.2179L91.1574 59.4093C90.7607 59.3126 90.3419 59.3751 89.9907 59.5833C89.6394 59.7915 89.3837 60.1289 89.2781 60.5234C89.1725 60.9178 89.2255 61.3379 89.4258 61.6937C89.6261 62.0496 89.9577 62.3129 90.3496 62.4273ZM80.9457 83.1437C81.2411 83.4319 81.6374 83.5932 82.05 83.5932C82.4627 83.5932 82.859 83.4319 83.1543 83.1437C83.4472 82.8507 83.6118 82.4533 83.6118 82.039C83.6118 81.6247 83.4472 81.2273 83.1543 80.9343L80.9457 78.7249C80.6503 78.4443 80.2569 78.2903 79.8494 78.2955C79.442 78.3008 79.0527 78.4651 78.7647 78.7533C78.4766 79.0414 78.3125 79.4307 78.3073 79.8382C78.3022 80.2456 78.4564 80.639 78.7371 80.9343L80.9457 83.1437ZM60.2418 94.1718C60.2901 94.375 60.3786 94.5665 60.5022 94.7349C60.6258 94.9032 60.7819 95.0451 60.9613 95.1521C61.1407 95.2591 61.3397 95.329 61.5466 95.3577C61.7534 95.3864 61.964 95.3734 62.1657 95.3193C62.3674 95.2652 62.5563 95.1712 62.721 95.0428C62.8858 94.9144 63.0231 94.7543 63.1249 94.572C63.2267 94.3896 63.2909 94.1886 63.3137 93.981C63.3364 93.7734 63.3173 93.5633 63.2574 93.3632L62.4496 90.3445C62.3965 90.1464 62.3049 89.9606 62.1801 89.7979C62.0552 89.6352 61.8995 89.4987 61.7219 89.3962C61.5443 89.2936 61.3482 89.2271 61.1448 89.2003C60.9415 89.1735 60.7349 89.1871 60.5367 89.2402C60.3386 89.2933 60.1529 89.3849 59.9902 89.5097C59.8275 89.6346 59.691 89.7903 59.5884 89.9679C59.4859 90.1455 59.4193 90.3416 59.3926 90.545C59.3658 90.7483 59.3793 90.955 59.4324 91.1531L60.2418 94.1718ZM70.3301 14.8179C70.6902 15.0184 71.1143 15.0709 71.5124 14.9641C71.9105 14.8574 72.2514 14.5998 72.4629 14.246L75.5863 8.83276C75.6964 8.65489 75.7696 8.45674 75.8016 8.25005C75.8337 8.04336 75.8239 7.83235 75.7729 7.62951C75.7218 7.42667 75.6306 7.23614 75.5046 7.06922C75.3785 6.90229 75.2203 6.76237 75.0392 6.65775C74.8581 6.55312 74.6578 6.48592 74.4502 6.46013C74.2427 6.43434 74.0321 6.45048 73.8309 6.50761C73.6297 6.56473 73.442 6.66166 73.2789 6.79267C73.1159 6.92367 72.9808 7.08608 72.8817 7.27026L69.7582 12.6835C69.551 13.0424 69.4949 13.4689 69.6021 13.8692C69.7094 14.2694 69.9712 14.6107 70.3301 14.8179ZM87.3246 30.2593L92.734 27.1343C93.0853 26.9235 93.3398 26.583 93.4425 26.1863C93.5453 25.7897 93.4881 25.3685 93.2833 25.0136C93.0785 24.6587 92.7424 24.3985 92.3476 24.2889C91.9527 24.1794 91.5306 24.2294 91.1723 24.4281L85.7629 27.5531C85.404 27.7603 85.1422 28.1016 85.0349 28.5018C84.9277 28.9021 84.9838 29.3286 85.191 29.6874C85.4039 30.0397 85.7448 30.296 86.1423 30.4026C86.5399 30.5092 86.9641 30.4579 87.3246 30.2593ZM98.4379 48.4374H92.191C91.7766 48.4374 91.3792 48.6021 91.0862 48.8951C90.7932 49.1881 90.6285 49.5855 90.6285 49.9999C90.6285 50.4143 90.7932 50.8118 91.0862 51.1048C91.3792 51.3978 91.7766 51.5624 92.191 51.5624H98.4379C98.8523 51.5624 99.2497 51.3978 99.5428 51.1048C99.8358 50.8118 100 50.4143 100 49.9999C100 49.5855 99.8358 49.1881 99.5428 48.8951C99.2497 48.6021 98.8523 48.4374 98.4379 48.4374ZM72.8809 92.7296C72.98 92.9138 73.1151 93.0762 73.2781 93.2072C73.4412 93.3382 73.6289 93.4352 73.8301 93.4923C74.0313 93.5494 74.2419 93.5656 74.4495 93.5398C74.657 93.514 74.8573 93.4468 75.0384 93.3421C75.2195 93.2375 75.3778 93.0976 75.5038 92.9307C75.6298 92.7638 75.7211 92.5732 75.7721 92.3704C75.8231 92.1676 75.8329 91.9565 75.8009 91.7498C75.7688 91.5432 75.6956 91.345 75.5856 91.1671L72.4621 85.7539C72.363 85.5697 72.2279 85.4073 72.0649 85.2763C71.9018 85.1453 71.7141 85.0483 71.5129 84.9912C71.3117 84.9341 71.1011 84.9179 70.8935 84.9437C70.686 84.9695 70.4857 85.0367 70.3046 85.1413C70.1235 85.246 69.9652 85.3859 69.8392 85.5528C69.7132 85.7197 69.6219 85.9103 69.5709 86.1131C69.5199 86.3159 69.5101 86.5269 69.5422 86.7336C69.5742 86.9403 69.6474 87.1385 69.7574 87.3164L72.8809 92.7296ZM85.7621 72.4468L91.1715 75.5718C91.5314 75.7734 91.9558 75.8264 92.3542 75.7195C92.7526 75.6127 93.0935 75.3545 93.3043 74.9999C93.5116 74.6412 93.5678 74.2148 93.4607 73.8145C93.3536 73.4142 93.0919 73.0729 92.7332 72.8656L87.3238 69.7406C86.9652 69.5366 86.5404 69.4829 86.1422 69.591C85.744 69.6991 85.4047 69.9603 85.1984 70.3176C84.9921 70.6749 84.9355 71.0994 85.041 71.4983C85.1464 71.8972 85.4062 72.2382 85.7621 72.4468ZM41.2731 61.1515C41.9419 61.9091 42.8735 62.3844 43.8794 62.4814C44.8853 62.5784 45.8905 62.2899 46.6918 61.6742L65.9574 46.5281C66.6197 46.0119 67.0519 45.2556 67.1605 44.423C67.2692 43.5904 67.0455 42.7485 66.5379 42.0796L66.4153 41.9171C66.1495 41.5696 65.8172 41.2784 65.4377 41.0608C65.0581 40.8432 64.639 40.7034 64.2048 40.6496C63.7706 40.5959 63.3301 40.6292 62.9089 40.7477C62.4877 40.8662 62.0944 41.0675 61.752 41.3398L44.791 54.8562L40.3223 49.4148C39.761 48.7548 38.9621 48.3427 38.099 48.2678C37.2358 48.1929 36.3779 48.4613 35.7113 49.0148L35.5348 49.1624C35.2096 49.4311 34.9409 49.7616 34.7442 50.1347C34.5475 50.5079 34.4267 50.9163 34.3887 51.3364C34.3508 51.7565 34.3965 52.18 34.5232 52.5823C34.65 52.9846 34.8552 53.3579 35.127 53.6804L41.2731 61.1515Z" fill="#1C9D7A"/>
</svg>
