<svg width="137" height="40" viewBox="0 0 137 40" fill="none" xmlns="http://www.w3.org/2000/svg">
<path d="M40.7331 28.1826C39.3374 34.7633 26.4727 24.6486 24.3185 22.8816C24.1971 22.7902 24.2578 22.6074 24.4095 22.5769C27.1099 22.3941 42.1288 21.602 40.7331 28.1826Z" fill="#344054"/>
<path d="M29.0799 39.9121C35.6336 38.5107 25.5603 25.5931 23.8005 23.4301C23.7095 23.3082 23.5274 23.3691 23.4971 23.5215C23.315 26.2025 22.5565 41.2831 29.0799 39.9121Z" fill="#344054"/>
<path d="M38.5147 34.4259C39.2429 36.4062 37.2404 38.3865 35.3289 37.6248C34.7524 37.4116 34.2366 36.985 33.8118 36.1625L31.5059 30.8004C31.4452 30.6481 31.5969 30.4958 31.7486 30.5567L37.0887 32.8721C37.8472 33.3291 38.3023 33.847 38.5147 34.4259Z" fill="#344054"/>
<path d="M12.663 39.9121C6.10926 38.5107 16.1825 25.5931 17.9423 23.4301C18.0334 23.3082 18.2154 23.3691 18.2457 23.5215C18.4278 26.2025 19.1863 41.2831 12.663 39.9121Z" fill="#344054"/>
<path d="M1.00931 28.1826C2.40501 34.7633 15.2697 24.6486 17.4239 22.8816C17.5453 22.7902 17.4846 22.6074 17.3329 22.5769C14.6325 22.3941 -0.386382 21.602 1.00931 28.1826Z" fill="#344054"/>
<path d="M6.44215 37.6246C4.46997 38.3558 2.49779 36.3451 3.25632 34.4257C3.46871 33.8469 3.89348 33.3289 4.7127 32.9024L10.0528 30.587C10.2045 30.5261 10.3562 30.6784 10.2955 30.8307L7.98955 36.1927C7.53443 36.9849 7.01863 37.4114 6.44215 37.6246Z" fill="#344054"/>
<path d="M40.7331 11.8194C39.3374 5.23878 26.4727 15.3535 24.3185 17.1205C24.1971 17.2119 24.2578 17.3947 24.4095 17.4252C27.1099 17.5775 42.1288 18.3696 40.7331 11.8194Z" fill="#344054"/>
<path d="M29.0799 0.0915508C35.6336 1.49299 25.5603 14.4106 23.8005 16.5736C23.7095 16.6955 23.5274 16.6346 23.4971 16.4822C23.315 13.8012 22.5565 -1.30988 29.0799 0.0915508Z" fill="#344054"/>
<path d="M38.5147 5.57678C39.2429 3.59649 37.2404 1.6162 35.3289 2.37785C34.7524 2.59111 34.2366 3.01764 33.8118 3.84022L31.5059 9.20223C31.4452 9.35456 31.5969 9.50689 31.7486 9.44596L37.0887 7.13054C37.8472 6.67355 38.3023 6.15563 38.5147 5.57678Z" fill="#344054"/>
<path d="M12.663 0.123052C6.10926 1.52449 16.1825 14.4421 17.9423 16.6051C18.0334 16.727 18.2154 16.6661 18.2457 16.5137C18.4278 13.8327 19.1863 -1.24792 12.663 0.123052Z" fill="#344054"/>
<path d="M1.00931 11.8546C2.40501 5.27394 15.2697 15.3886 17.4239 17.1557C17.5453 17.2471 17.4846 17.4299 17.3329 17.4603C14.6325 17.6431 -0.386382 18.4048 1.00931 11.8546Z" fill="#344054"/>
<path d="M6.44215 2.37739C4.46997 1.64621 2.49779 3.65696 3.25632 5.57632C3.46871 6.15517 3.89348 6.67309 4.7127 7.09962L10.0528 9.41503C10.2045 9.47596 10.3562 9.32363 10.2955 9.1713L7.98955 3.80929C7.53443 3.04765 7.01863 2.59066 6.44215 2.37739Z" fill="#344054"/>
<path d="M132.784 30.0004V15.4549H136.204V30.0004H132.784ZM134.503 13.3905C133.962 13.3905 133.496 13.2106 133.105 12.8508C132.715 12.4846 132.52 12.0458 132.52 11.5345C132.52 11.0168 132.715 10.578 133.105 10.2182C133.496 9.85203 133.962 9.66895 134.503 9.66895C135.051 9.66895 135.517 9.85203 135.901 10.2182C136.292 10.578 136.487 11.0168 136.487 11.5345C136.487 12.0458 136.292 12.4846 135.901 12.8508C135.517 13.2106 135.051 13.3905 134.503 13.3905Z" fill="#344054"/>
<path d="M121.683 30.294C120.764 30.294 119.936 30.1299 119.199 29.8016C118.469 29.467 117.889 28.9746 117.461 28.3243C117.039 27.6741 116.828 26.8723 116.828 25.919C116.828 25.0983 116.979 24.4197 117.282 23.883C117.584 23.3464 117.996 22.9171 118.519 22.5952C119.042 22.2732 119.63 22.0301 120.285 21.866C120.947 21.6955 121.63 21.5724 122.335 21.4967C123.185 21.4083 123.875 21.3294 124.404 21.2599C124.933 21.1842 125.317 21.0705 125.556 20.919C125.802 20.7612 125.925 20.5181 125.925 20.1899V20.133C125.925 19.4197 125.714 18.8673 125.292 18.4759C124.87 18.0844 124.262 17.8887 123.469 17.8887C122.631 17.8887 121.967 18.0718 121.476 18.438C120.991 18.8041 120.663 19.2366 120.493 19.7353L117.3 19.2808C117.552 18.3969 117.968 17.6583 118.547 17.0649C119.127 16.4651 119.835 16.0169 120.673 15.7202C121.51 15.4171 122.436 15.2656 123.45 15.2656C124.149 15.2656 124.845 15.3477 125.538 15.5118C126.23 15.676 126.863 15.9474 127.436 16.3262C128.009 16.6987 128.469 17.2069 128.815 17.8509C129.168 18.4948 129.344 19.2997 129.344 20.2656V30.0005H126.057V28.0024H125.944C125.736 28.4064 125.443 28.7852 125.065 29.1387C124.694 29.4859 124.224 29.7669 123.658 29.9815C123.097 30.1899 122.439 30.294 121.683 30.294ZM122.571 27.7751C123.258 27.7751 123.853 27.6394 124.357 27.3679C124.861 27.0901 125.248 26.724 125.519 26.2694C125.796 25.8149 125.934 25.3193 125.934 24.7827V23.0687C125.827 23.157 125.645 23.2391 125.386 23.3149C125.134 23.3906 124.851 23.4569 124.536 23.5137C124.221 23.5705 123.91 23.6211 123.601 23.6652C123.292 23.7094 123.025 23.7473 122.798 23.7789C122.288 23.8483 121.831 23.962 121.428 24.1198C121.025 24.2776 120.707 24.4986 120.474 24.7827C120.241 25.0604 120.125 25.4203 120.125 25.8622C120.125 26.4935 120.355 26.9702 120.814 27.2921C121.274 27.6141 121.86 27.7751 122.571 27.7751Z" fill="#344054"/>
<path d="M111.899 30.2092C111.326 30.2092 110.834 30.0072 110.425 29.6032C110.016 29.1991 109.814 28.7067 109.82 28.1259C109.814 27.5577 110.016 27.0716 110.425 26.6676C110.834 26.2635 111.326 26.0615 111.899 26.0615C112.453 26.0615 112.935 26.2635 113.344 26.6676C113.76 27.0716 113.97 27.5577 113.977 28.1259C113.97 28.511 113.87 28.8614 113.674 29.1771C113.486 29.4927 113.234 29.7452 112.919 29.9346C112.61 30.1177 112.27 30.2092 111.899 30.2092Z" fill="#344054"/>
<path d="M108.335 15.4551L103.168 30.0005H99.3897L94.2227 15.4551H97.8689L101.203 26.26H101.355L104.698 15.4551H108.335Z" fill="#344054"/>
<path d="M86.4492 30.2846C84.9945 30.2846 83.7381 29.9815 82.6802 29.3755C81.6285 28.7631 80.8193 27.8982 80.2525 26.7808C79.6857 25.657 79.4023 24.3344 79.4023 22.813C79.4023 21.3168 79.6857 20.0036 80.2525 18.8736C80.8256 17.7372 81.6253 16.8534 82.6518 16.2221C83.6783 15.5844 84.8843 15.2656 86.2697 15.2656C87.164 15.2656 88.0078 15.4108 88.8013 15.7012C89.6011 15.9853 90.3064 16.4272 90.9173 17.027C91.5344 17.6267 92.0193 18.3906 92.372 19.3187C92.7246 20.2404 92.901 21.3389 92.901 22.6141V23.6652H81.0082V21.3546H89.6231C89.6168 20.6981 89.4751 20.1141 89.198 19.6027C88.921 19.0851 88.5337 18.6779 88.0362 18.3812C87.545 18.0844 86.9719 17.9361 86.317 17.9361C85.6179 17.9361 85.0039 18.1065 84.4749 18.4474C83.946 18.782 83.5335 19.224 83.2375 19.7732C82.9478 20.3161 82.7998 20.9127 82.7935 21.563V23.58C82.7935 24.426 82.9478 25.152 83.2564 25.758C83.565 26.3578 83.9963 26.8186 84.5505 27.1406C85.1047 27.4563 85.7533 27.6141 86.4964 27.6141C86.9939 27.6141 87.4442 27.5447 87.8472 27.4058C88.2503 27.2606 88.5998 27.0491 88.8958 26.7713C89.1918 26.4935 89.4153 26.1495 89.5665 25.7391L92.7593 26.099C92.5577 26.9449 92.1736 27.6835 91.6068 28.3149C91.0464 28.9399 90.3284 29.426 89.4531 29.7732C88.5777 30.1141 87.5765 30.2846 86.4492 30.2846Z" fill="#344054"/>
<path d="M70.6797 30.2846C69.225 30.2846 67.9686 29.9815 66.9106 29.3755C65.859 28.7631 65.0497 27.8982 64.483 26.7808C63.9162 25.657 63.6328 24.3344 63.6328 22.813C63.6328 21.3168 63.9162 20.0036 64.483 18.8736C65.056 17.7372 65.8558 16.8534 66.8823 16.2221C67.9088 15.5844 69.1148 15.2656 70.5002 15.2656C71.3944 15.2656 72.2383 15.4108 73.0318 15.7012C73.8316 15.9853 74.5369 16.4272 75.1477 17.027C75.7649 17.6267 76.2498 18.3906 76.6024 19.3187C76.9551 20.2404 77.1314 21.3389 77.1314 22.6141V23.6652H65.2387V21.3546H73.8536C73.8473 20.6981 73.7056 20.1141 73.4285 19.6027C73.1514 19.0851 72.7641 18.6779 72.2666 18.3812C71.7754 18.0844 71.2024 17.9361 70.5474 17.9361C69.8484 17.9361 69.2344 18.1065 68.7054 18.4474C68.1764 18.782 67.7639 19.224 67.468 19.7732C67.1783 20.3161 67.0303 20.9127 67.024 21.563V23.58C67.024 24.426 67.1783 25.152 67.4869 25.758C67.7954 26.3578 68.2268 26.8186 68.781 27.1406C69.3352 27.4563 69.9838 27.6141 70.7269 27.6141C71.2244 27.6141 71.6747 27.5447 72.0777 27.4058C72.4807 27.2606 72.8303 27.0491 73.1262 26.7713C73.4222 26.4935 73.6458 26.1495 73.7969 25.7391L76.9897 26.099C76.7882 26.9449 76.4041 27.6835 75.8373 28.3149C75.2768 28.9399 74.5589 29.426 73.6836 29.7732C72.8082 30.1141 71.8069 30.2846 70.6797 30.2846Z" fill="#344054"/>
<path d="M57.1295 10.6064H60.6057V24.2428C60.5994 25.4928 60.3349 26.5692 59.8122 27.472C59.2895 28.3684 58.559 29.0597 57.6207 29.5458C56.6887 30.0256 55.6023 30.2655 54.3617 30.2655C53.2282 30.2655 52.208 30.0635 51.3012 29.6595C50.4006 29.2491 49.6859 28.6431 49.1569 27.8413C48.6279 27.0395 48.3634 26.042 48.3634 24.8489H51.849C51.8553 25.3729 51.9687 25.8242 52.1891 26.203C52.4158 26.5818 52.7275 26.8722 53.1243 27.0742C53.521 27.2763 53.9776 27.3773 54.494 27.3773C55.0545 27.3773 55.5299 27.2605 55.9204 27.0269C56.3108 26.787 56.6068 26.4335 56.8083 25.9663C57.0161 25.4991 57.1232 24.9246 57.1295 24.2428V10.6064Z" fill="#344054"/>
</svg>
