<svg width="114" height="42" viewBox="0 0 114 42" fill="none" xmlns="http://www.w3.org/2000/svg">
<path d="M40.7962 28.7627C39.3659 35.479 26.182 25.1558 23.9744 23.3524C23.85 23.2591 23.9122 23.0725 24.0677 23.0414C26.835 22.8549 42.2265 22.0464 40.7962 28.7627Z" fill="url(#paint0_radial_352_4254)"/>
<path d="M28.8562 40.7357C35.5725 39.3053 25.2493 26.1215 23.4458 23.9138C23.3525 23.7894 23.166 23.8516 23.1349 24.0071C22.9483 26.7434 22.171 42.1349 28.8562 40.7357Z" fill="url(#paint1_radial_352_4254)"/>
<path d="M38.5288 35.1348C39.275 37.156 37.2228 39.1771 35.2639 38.3997C34.6731 38.1821 34.1445 37.7467 33.7092 36.9072L31.3461 31.4347C31.2839 31.2792 31.4394 31.1237 31.5948 31.1859L37.0674 33.5491C37.8447 34.0155 38.3111 34.5441 38.5288 35.1348Z" fill="#81CAA7"/>
<path d="M12.0357 40.7357C5.31937 39.3053 15.6426 26.1215 17.446 23.9138C17.5393 23.7894 17.7259 23.8516 17.7569 24.0071C17.9435 26.7434 18.7209 42.1349 12.0357 40.7357Z" fill="url(#paint2_radial_352_4254)"/>
<path d="M0.093612 28.7627C1.52393 35.479 14.7078 25.1558 16.9154 23.3524C17.0398 23.2591 16.9776 23.0725 16.8222 23.0414C14.0548 22.8549 -1.33671 22.0464 0.093612 28.7627Z" fill="url(#paint3_radial_352_4254)"/>
<path d="M5.65983 38.3999C3.63872 39.1461 1.61762 37.0939 2.39497 35.135C2.61262 34.5442 3.04794 34.0156 3.88747 33.5803L9.36001 31.2172C9.51548 31.155 9.67095 31.3104 9.60876 31.4659L7.24562 36.9385C6.77921 37.7469 6.25062 38.1822 5.65983 38.3999Z" fill="#EE8287"/>
<path d="M40.7962 12.063C39.3659 5.34671 26.182 15.6699 23.9744 17.4734C23.85 17.5666 23.9122 17.7532 24.0677 17.7843C26.835 17.9398 42.2265 18.7482 40.7962 12.063Z" fill="url(#paint4_radial_352_4254)"/>
<path d="M28.8562 0.093438C35.5725 1.52376 25.2493 14.7076 23.4458 16.9153C23.3525 17.0396 23.166 16.9775 23.1349 16.822C22.9483 14.0857 22.171 -1.33688 28.8562 0.093438Z" fill="url(#paint5_radial_352_4254)"/>
<path d="M38.5288 5.69108C39.275 3.66997 37.2228 1.64887 35.2639 2.42622C34.6731 2.64387 34.1445 3.07919 33.7092 3.91873L31.3461 9.39126C31.2839 9.54673 31.4394 9.70221 31.5948 9.64002L37.0674 7.27687C37.8447 6.81046 38.3111 6.28187 38.5288 5.69108Z" fill="#F7B97B"/>
<path d="M12.0357 0.124864C5.31937 1.55519 15.6426 14.739 17.446 16.9467C17.5393 17.0711 17.7259 17.0089 17.7569 16.8534C17.9435 14.1171 18.7209 -1.27436 12.0357 0.124864Z" fill="url(#paint6_radial_352_4254)"/>
<path d="M0.093612 12.0982C1.52393 5.38187 14.7078 15.7051 16.9154 17.5085C17.0398 17.6018 16.9776 17.7884 16.8222 17.8195C14.0548 18.006 -1.33671 18.7834 0.093612 12.0982Z" fill="url(#paint7_radial_352_4254)"/>
<path d="M5.65983 2.42646C3.63872 1.68021 1.61762 3.73241 2.39497 5.69133C2.61262 6.28211 3.04794 6.81071 3.88747 7.24603L9.36001 9.60917C9.51548 9.67136 9.67095 9.51589 9.60876 9.36042L7.24562 3.88788C6.77921 3.11053 6.25062 2.64412 5.65983 2.42646Z" fill="#B482BA"/>
<path d="M47.9474 13V4.27273H50.8963C51.581 4.27273 52.1406 4.39631 52.5753 4.64347C53.0128 4.88778 53.3366 5.21875 53.5469 5.63636C53.7571 6.05398 53.8622 6.51989 53.8622 7.03409C53.8622 7.5483 53.7571 8.01562 53.5469 8.43608C53.3395 8.85653 53.0185 9.19176 52.5838 9.44176C52.1491 9.68892 51.5923 9.8125 50.9134 9.8125H48.7997V8.875H50.8793C51.348 8.875 51.7244 8.79403 52.0085 8.6321C52.2926 8.47017 52.4986 8.25142 52.6264 7.97585C52.7571 7.69744 52.8224 7.38352 52.8224 7.03409C52.8224 6.68466 52.7571 6.37216 52.6264 6.09659C52.4986 5.82102 52.2912 5.60511 52.0043 5.44886C51.7173 5.28977 51.3366 5.21023 50.8622 5.21023H49.0043V13H47.9474ZM58.017 13.1364C57.4261 13.1364 56.9077 12.9957 56.4616 12.7145C56.0185 12.4332 55.6719 12.0398 55.4219 11.5341C55.1747 11.0284 55.0511 10.4375 55.0511 9.76136C55.0511 9.07955 55.1747 8.48437 55.4219 7.97585C55.6719 7.46733 56.0185 7.07244 56.4616 6.79119C56.9077 6.50994 57.4261 6.36932 58.017 6.36932C58.608 6.36932 59.125 6.50994 59.5682 6.79119C60.0142 7.07244 60.3608 7.46733 60.608 7.97585C60.858 8.48437 60.983 9.07955 60.983 9.76136C60.983 10.4375 60.858 11.0284 60.608 11.5341C60.3608 12.0398 60.0142 12.4332 59.5682 12.7145C59.125 12.9957 58.608 13.1364 58.017 13.1364ZM58.017 12.233C58.4659 12.233 58.8352 12.1179 59.125 11.8878C59.4148 11.6577 59.6293 11.3551 59.7685 10.9801C59.9077 10.6051 59.9773 10.1989 59.9773 9.76136C59.9773 9.32386 59.9077 8.91619 59.7685 8.53835C59.6293 8.16051 59.4148 7.85511 59.125 7.62216C58.8352 7.3892 58.4659 7.27273 58.017 7.27273C57.5682 7.27273 57.1989 7.3892 56.9091 7.62216C56.6193 7.85511 56.4048 8.16051 56.2656 8.53835C56.1264 8.91619 56.0568 9.32386 56.0568 9.76136C56.0568 10.1989 56.1264 10.6051 56.2656 10.9801C56.4048 11.3551 56.6193 11.6577 56.9091 11.8878C57.1989 12.1179 57.5682 12.233 58.017 12.233ZM63.7784 13L61.7841 6.45455H62.8409L64.2557 11.4659H64.3239L65.7216 6.45455H66.7955L68.1761 11.4489H68.2443L69.6591 6.45455H70.7159L68.7216 13H67.733L66.3011 7.97159H66.1989L64.767 13H63.7784ZM74.5671 13.1364C73.9364 13.1364 73.3924 12.9972 72.935 12.7188C72.4805 12.4375 72.1296 12.0455 71.8825 11.5426C71.6381 11.0369 71.516 10.4489 71.516 9.77841C71.516 9.10795 71.6381 8.51705 71.8825 8.00568C72.1296 7.49148 72.4734 7.09091 72.9137 6.80398C73.3569 6.5142 73.8739 6.36932 74.4648 6.36932C74.8058 6.36932 75.1424 6.42614 75.4748 6.53977C75.8072 6.65341 76.1097 6.83807 76.3825 7.09375C76.6552 7.34659 76.8725 7.68182 77.0344 8.09943C77.1964 8.51705 77.2773 9.03125 77.2773 9.64205V10.0682H72.2319V9.19886H76.2546C76.2546 8.82955 76.1808 8.5 76.033 8.21023C75.8881 7.92045 75.6808 7.69176 75.4109 7.52415C75.1438 7.35653 74.8285 7.27273 74.4648 7.27273C74.0643 7.27273 73.7177 7.37216 73.4251 7.57102C73.1353 7.76705 72.9123 8.02273 72.756 8.33807C72.5998 8.65341 72.5217 8.99148 72.5217 9.35227V9.93182C72.5217 10.4261 72.6069 10.8452 72.7773 11.1889C72.9506 11.5298 73.1907 11.7898 73.4975 11.9688C73.8043 12.1449 74.1609 12.233 74.5671 12.233C74.8313 12.233 75.07 12.196 75.283 12.1222C75.4989 12.0455 75.685 11.9318 75.8413 11.7812C75.9975 11.6278 76.1183 11.4375 76.2035 11.2102L77.1751 11.483C77.0728 11.8125 76.9009 12.1023 76.6594 12.3523C76.418 12.5994 76.1197 12.7926 75.7646 12.9318C75.4094 13.0682 75.0103 13.1364 74.5671 13.1364ZM78.8072 13V6.45455H79.7788V7.44318H79.8469C79.9663 7.11932 80.1822 6.85653 80.4947 6.65483C80.8072 6.45312 81.1594 6.35227 81.5515 6.35227C81.6254 6.35227 81.7177 6.35369 81.8285 6.35653C81.9393 6.35937 82.0231 6.36364 82.0799 6.36932V7.39205C82.0458 7.38352 81.9677 7.37074 81.8455 7.35369C81.7262 7.33381 81.5998 7.32386 81.4663 7.32386C81.1481 7.32386 80.864 7.39062 80.614 7.52415C80.3668 7.65483 80.1708 7.83665 80.0259 8.0696C79.8839 8.29972 79.8129 8.5625 79.8129 8.85795V13H78.8072ZM85.8171 13.1364C85.1864 13.1364 84.6424 12.9972 84.185 12.7188C83.7305 12.4375 83.3796 12.0455 83.1325 11.5426C82.8881 11.0369 82.766 10.4489 82.766 9.77841C82.766 9.10795 82.8881 8.51705 83.1325 8.00568C83.3796 7.49148 83.7234 7.09091 84.1637 6.80398C84.6069 6.5142 85.1239 6.36932 85.7148 6.36932C86.0558 6.36932 86.3924 6.42614 86.7248 6.53977C87.0572 6.65341 87.3597 6.83807 87.6325 7.09375C87.9052 7.34659 88.1225 7.68182 88.2844 8.09943C88.4464 8.51705 88.5273 9.03125 88.5273 9.64205V10.0682H83.4819V9.19886H87.5046C87.5046 8.82955 87.4308 8.5 87.283 8.21023C87.1381 7.92045 86.9308 7.69176 86.6609 7.52415C86.3938 7.35653 86.0785 7.27273 85.7148 7.27273C85.3143 7.27273 84.9677 7.37216 84.6751 7.57102C84.3853 7.76705 84.1623 8.02273 84.006 8.33807C83.8498 8.65341 83.7717 8.99148 83.7717 9.35227V9.93182C83.7717 10.4261 83.8569 10.8452 84.0273 11.1889C84.2006 11.5298 84.4407 11.7898 84.7475 11.9688C85.0543 12.1449 85.4109 12.233 85.8171 12.233C86.0813 12.233 86.32 12.196 86.533 12.1222C86.7489 12.0455 86.935 11.9318 87.0913 11.7812C87.2475 11.6278 87.3683 11.4375 87.4535 11.2102L88.4251 11.483C88.3228 11.8125 88.1509 12.1023 87.9094 12.3523C87.668 12.5994 87.3697 12.7926 87.0146 12.9318C86.6594 13.0682 86.2603 13.1364 85.8171 13.1364ZM92.5288 13.1364C91.9833 13.1364 91.5018 12.9986 91.0842 12.723C90.6665 12.4446 90.3398 12.0526 90.104 11.5469C89.8683 11.0384 89.7504 10.4375 89.7504 9.74432C89.7504 9.05682 89.8683 8.46023 90.104 7.95455C90.3398 7.44886 90.668 7.05824 91.0884 6.78267C91.5089 6.5071 91.9947 6.36932 92.5458 6.36932C92.9719 6.36932 93.3086 6.44034 93.5558 6.58239C93.8058 6.72159 93.9961 6.88068 94.1268 7.05966C94.2603 7.2358 94.364 7.38068 94.4379 7.49432H94.5231V4.27273H95.5288V13H94.5572V11.9943H94.4379C94.364 12.1136 94.2589 12.2642 94.1225 12.446C93.9862 12.625 93.7915 12.7855 93.5387 12.9276C93.2859 13.0668 92.9492 13.1364 92.5288 13.1364ZM92.6651 12.233C93.0685 12.233 93.4094 12.1278 93.6879 11.9176C93.9663 11.7045 94.1779 11.4105 94.3228 11.0355C94.4677 10.6577 94.5401 10.2216 94.5401 9.72727C94.5401 9.23864 94.4691 8.81108 94.3271 8.4446C94.185 8.07528 93.9748 7.78835 93.6964 7.58381C93.418 7.37642 93.0742 7.27273 92.6651 7.27273C92.239 7.27273 91.8839 7.3821 91.5998 7.60085C91.3185 7.81676 91.1069 8.1108 90.9648 8.48295C90.8256 8.85227 90.756 9.26705 90.756 9.72727C90.756 10.1932 90.8271 10.6165 90.9691 10.9972C91.114 11.375 91.3271 11.6761 91.6083 11.9006C91.8924 12.1222 92.2447 12.233 92.6651 12.233ZM101.022 13V4.27273H102.027V7.49432H102.113C102.186 7.38068 102.289 7.2358 102.419 7.05966C102.553 6.88068 102.743 6.72159 102.99 6.58239C103.24 6.44034 103.578 6.36932 104.005 6.36932C104.556 6.36932 105.042 6.5071 105.462 6.78267C105.882 7.05824 106.211 7.44886 106.446 7.95455C106.682 8.46023 106.8 9.05682 106.8 9.74432C106.8 10.4375 106.682 11.0384 106.446 11.5469C106.211 12.0526 105.884 12.4446 105.466 12.723C105.049 12.9986 104.567 13.1364 104.022 13.1364C103.601 13.1364 103.265 13.0668 103.012 12.9276C102.759 12.7855 102.564 12.625 102.428 12.446C102.292 12.2642 102.186 12.1136 102.113 11.9943H101.993V13H101.022ZM102.01 9.72727C102.01 10.2216 102.083 10.6577 102.228 11.0355C102.373 11.4105 102.584 11.7045 102.863 11.9176C103.141 12.1278 103.482 12.233 103.885 12.233C104.306 12.233 104.657 12.1222 104.938 11.9006C105.222 11.6761 105.435 11.375 105.577 10.9972C105.722 10.6165 105.794 10.1932 105.794 9.72727C105.794 9.26705 105.723 8.85227 105.581 8.48295C105.442 8.1108 105.23 7.81676 104.946 7.60085C104.665 7.3821 104.311 7.27273 103.885 7.27273C103.476 7.27273 103.132 7.37642 102.854 7.58381C102.576 7.78835 102.365 8.07528 102.223 8.4446C102.081 8.81108 102.01 9.23864 102.01 9.72727ZM108.752 15.4545C108.581 15.4545 108.429 15.4403 108.296 15.4119C108.162 15.3864 108.07 15.3608 108.019 15.3352L108.275 14.4489C108.519 14.5114 108.735 14.5341 108.922 14.517C109.11 14.5 109.276 14.4162 109.421 14.2656C109.569 14.1179 109.703 13.8778 109.826 13.5455L110.013 13.0341L107.593 6.45455H108.684L110.49 11.6705H110.559L112.365 6.45455H113.456L110.678 13.9545C110.553 14.2926 110.398 14.5724 110.213 14.794C110.029 15.0185 109.814 15.1847 109.57 15.2926C109.328 15.4006 109.056 15.4545 108.752 15.4545Z" fill="#344054"/>
<path d="M51.776 38.175V38.4011C51.776 38.944 51.6856 39.4416 51.5499 39.8487C51.4142 40.2558 51.188 40.6177 50.9166 40.9343C50.6452 41.2057 50.2833 41.4319 49.8309 41.6129C49.3786 41.7938 48.881 41.839 48.3382 41.839H48.0667H46.8906V39.7582H47.6144C47.9763 39.7582 48.2477 39.713 48.5191 39.6677C48.7453 39.5773 48.9715 39.4868 49.1072 39.3058C49.2429 39.1701 49.3786 38.944 49.469 38.7178C49.5595 38.4916 49.5595 38.175 49.5595 37.8131V22.614H51.776V38.175ZM49.6047 20.2618V18H51.8213V20.2618H49.6047Z" fill="#344054"/>
<path d="M62.8984 33.6545C63.5317 33.2474 63.984 32.6594 64.3459 31.9356L66.472 32.6594C66.2006 33.2474 65.8839 33.7902 65.4768 34.2426C65.0697 34.695 64.6173 35.1021 64.1197 35.4187C63.6222 35.7354 63.0793 35.9615 62.4913 36.1425C61.9032 36.3234 61.2699 36.3687 60.5914 36.3687C59.6414 36.3687 58.7367 36.1877 57.9677 35.8711C57.1535 35.5544 56.475 35.0568 55.9321 34.4688C55.3441 33.8355 54.937 33.1117 54.6203 32.2522C54.3037 31.3928 54.168 30.4428 54.168 29.3572C54.168 28.2715 54.3037 27.3216 54.6203 26.4621C54.937 25.6027 55.3441 24.8789 55.9321 24.2456C56.475 23.6575 57.1535 23.1599 57.9677 22.8433C58.782 22.5266 59.6414 22.3457 60.5914 22.3457C61.6318 22.3457 62.5365 22.5267 63.3055 22.8885C64.0745 23.2504 64.753 23.748 65.2959 24.4265C65.8387 25.1051 66.2006 25.8741 66.472 26.824C66.7434 27.7739 66.8339 28.8144 66.7886 29.9905H64.5269V28.4977C64.4816 27.1859 64.0745 26.1455 63.4412 25.4217C62.7627 24.6979 61.858 24.3361 60.6819 24.3361C60.0486 24.3361 59.4605 24.4718 58.9629 24.6527C58.4653 24.8789 58.013 25.1955 57.6963 25.6479C57.3344 26.055 57.063 26.5978 56.8821 27.2311C56.7011 27.8644 56.6107 28.5429 56.6107 29.312C56.6107 30.081 56.7011 30.8047 56.8821 31.3928C57.063 32.0261 57.3344 32.5237 57.6963 32.976C58.0582 33.4284 58.4653 33.745 59.0082 33.9712C59.5057 34.1974 60.0938 34.3331 60.7271 34.3331C61.4961 34.2426 62.2651 34.0617 62.8984 33.6545ZM66.6982 29.9H55.9774L56.0226 28.1358H66.1553L66.6982 29.9Z" fill="#344054"/>
<path d="M76.9218 33.6545C77.5551 33.2474 78.0075 32.6594 78.3694 31.9356L80.4954 32.6594C80.224 33.2474 79.9074 33.7902 79.5002 34.2426C79.0931 34.695 78.6408 35.1021 78.1432 35.4187C77.6456 35.7354 77.1028 35.9615 76.5147 36.1425C75.9267 36.3234 75.2934 36.3687 74.6148 36.3687C73.6649 36.3687 72.7602 36.1877 71.9912 35.8711C71.1769 35.5544 70.4984 35.0568 69.9556 34.4688C69.3675 33.8355 68.9604 33.1117 68.6438 32.2522C68.3271 31.3928 68.1914 30.4428 68.1914 29.3572C68.1914 28.2715 68.3271 27.3216 68.6438 26.4621C68.9604 25.6027 69.3675 24.8789 69.9556 24.2456C70.4984 23.6575 71.1769 23.1599 71.9912 22.8433C72.8054 22.5266 73.6649 22.3457 74.6148 22.3457C75.6552 22.3457 76.5599 22.5267 77.3289 22.8885C78.0979 23.2504 78.7765 23.748 79.3193 24.4265C79.8621 25.1051 80.224 25.8741 80.4954 26.824C80.7668 27.7739 80.8573 28.8144 80.8121 29.9905H78.5503V28.4977C78.5051 27.1859 78.098 26.1455 77.4647 25.4217C76.7861 24.6979 75.8814 24.3361 74.7053 24.3361C74.072 24.3361 73.4839 24.4718 72.9864 24.6527C72.4888 24.8789 72.0364 25.1955 71.7198 25.6479C71.4031 26.1002 71.0865 26.5978 70.9055 27.2311C70.7246 27.8644 70.6341 28.5429 70.6341 29.312C70.6341 30.081 70.7246 30.8047 70.9055 31.3928C71.0865 32.0261 71.3579 32.5237 71.7198 32.976C72.0816 33.4284 72.4888 33.745 73.0316 33.9712C73.5292 34.1974 74.1172 34.3331 74.7505 34.3331C75.5648 34.2426 76.3338 34.0617 76.9218 33.6545ZM80.7668 29.9H70.0913L70.1365 28.1358H80.2692L80.7668 29.9Z" fill="#344054"/>
<path d="M86.1097 35.9558L81.2695 22.6113H83.4861L87.1954 33.1512L90.9047 22.6113H93.1212L88.281 35.9105H86.1097V35.9558Z" fill="#344054"/>
<path d="M92.2598 34.469C92.2598 33.6548 92.8931 33.0215 93.7073 33.0215C94.5215 33.0215 95.1548 33.6548 95.1548 34.469C95.1548 35.2833 94.5215 35.9165 93.7073 35.9165C92.8931 35.9618 92.2598 35.2833 92.2598 34.469Z" fill="#344054"/>
<path d="M107.326 23.6513C108.23 24.6012 108.683 26.0035 108.683 27.9034V35.9553H106.466V33.8745C106.014 34.6887 105.381 35.322 104.612 35.7291C103.843 36.1362 102.893 36.3624 101.807 36.3624C101.129 36.3624 100.495 36.272 99.9072 36.091C99.3643 35.9101 98.8668 35.6387 98.4596 35.322C98.0525 34.9601 97.7811 34.553 97.5549 34.1007C97.3288 33.6031 97.2383 33.0602 97.2383 32.4722C97.2383 31.7937 97.374 31.2056 97.6002 30.708C97.8263 30.2104 98.1882 29.8033 98.6858 29.4414C99.1382 29.0795 99.7262 28.8081 100.36 28.6272C100.993 28.4462 101.762 28.2653 102.621 28.1748L106.873 27.632L106.964 29.3509L102.847 29.8485C102.259 29.939 101.717 30.0295 101.264 30.1652C100.812 30.3009 100.45 30.4818 100.179 30.6628C99.9072 30.8889 99.681 31.1151 99.5453 31.3865C99.4096 31.6579 99.3643 31.9746 99.3643 32.3365C99.3643 33.0602 99.5905 33.6031 100.088 33.965C100.586 34.3268 101.264 34.5078 102.214 34.5078C102.712 34.5078 103.209 34.4173 103.662 34.2816C104.114 34.1459 104.476 33.9197 104.838 33.6483C105.2 33.3769 105.471 33.0602 105.697 32.6984C105.923 32.3365 106.104 31.9294 106.195 31.477C106.285 31.1604 106.376 30.7985 106.376 30.4366C106.376 30.0747 106.421 29.7128 106.421 29.4414V27.7225C106.421 27.1344 106.376 26.6368 106.24 26.1845C106.104 25.7773 105.923 25.4155 105.652 25.1441C105.381 24.8726 105.064 24.6465 104.657 24.5108C104.25 24.3751 103.752 24.3298 103.209 24.3298C102.259 24.3298 101.49 24.5108 100.948 24.8726C100.405 25.2345 99.9976 25.8226 99.7715 26.5916L97.7359 26.094C98.0525 24.8726 98.6858 23.9679 99.6358 23.2894C100.586 22.6561 101.762 22.3395 103.209 22.3395C105.064 22.249 106.421 22.7013 107.326 23.6513Z" fill="#344054"/>
<path d="M111.627 20.2618V18H113.843V20.2618H111.627ZM111.627 35.9584V22.614H113.843V35.9132H111.627V35.9584Z" fill="#344054"/>
<defs>
<radialGradient id="paint0_radial_352_4254" cx="0" cy="0" r="1" gradientUnits="userSpaceOnUse" gradientTransform="translate(21.7374 22.1955) scale(30.0083)">
<stop stop-color="#3CB788"/>
<stop offset="0.2472" stop-color="#31B186"/>
<stop offset="0.6515" stop-color="#189E82"/>
<stop offset="1" stop-color="#058A7D"/>
</radialGradient>
<radialGradient id="paint1_radial_352_4254" cx="0" cy="0" r="1" gradientUnits="userSpaceOnUse" gradientTransform="translate(21.7374 22.1973) scale(30.0083 30.0083)">
<stop stop-color="#3CB788"/>
<stop offset="0.2472" stop-color="#31B186"/>
<stop offset="0.6515" stop-color="#189E82"/>
<stop offset="1" stop-color="#058A7D"/>
</radialGradient>
<radialGradient id="paint2_radial_352_4254" cx="0" cy="0" r="1" gradientUnits="userSpaceOnUse" gradientTransform="translate(21.429 20.6486) scale(34.5409 34.5409)">
<stop stop-color="#ED474A"/>
<stop offset="0.1981" stop-color="#E5434B"/>
<stop offset="0.523" stop-color="#CC394F"/>
<stop offset="0.9322" stop-color="#A52955"/>
<stop offset="1" stop-color="#9E2756"/>
</radialGradient>
<radialGradient id="paint3_radial_352_4254" cx="0" cy="0" r="1" gradientUnits="userSpaceOnUse" gradientTransform="translate(21.4271 20.6469) scale(34.5409 34.5409)">
<stop stop-color="#ED474A"/>
<stop offset="0.1981" stop-color="#E5434B"/>
<stop offset="0.523" stop-color="#CC394F"/>
<stop offset="0.9322" stop-color="#A52955"/>
<stop offset="1" stop-color="#9E2756"/>
</radialGradient>
<radialGradient id="paint4_radial_352_4254" cx="0" cy="0" r="1" gradientUnits="userSpaceOnUse" gradientTransform="translate(21.5825 19.8703) scale(19.4973)">
<stop stop-color="#EEBC1C"/>
<stop offset="0.2916" stop-color="#EFB31D"/>
<stop offset="0.7685" stop-color="#F39A21"/>
<stop offset="1" stop-color="#F68C20"/>
</radialGradient>
<radialGradient id="paint5_radial_352_4254" cx="0" cy="0" r="1" gradientUnits="userSpaceOnUse" gradientTransform="translate(21.5825 19.8719) scale(19.4972 19.4973)">
<stop stop-color="#EEBC1C"/>
<stop offset="0.2916" stop-color="#EFB31D"/>
<stop offset="0.7685" stop-color="#F39A21"/>
<stop offset="1" stop-color="#F68C20"/>
</radialGradient>
<radialGradient id="paint6_radial_352_4254" cx="0" cy="0" r="1" gradientUnits="userSpaceOnUse" gradientTransform="translate(19.106 18.4784) scale(26.7423 26.7423)">
<stop stop-color="#8A52A0"/>
<stop offset="0.2637" stop-color="#82529F"/>
<stop offset="0.695" stop-color="#6850A1"/>
<stop offset="1" stop-color="#534FA1"/>
</radialGradient>
<radialGradient id="paint7_radial_352_4254" cx="0" cy="0" r="1" gradientUnits="userSpaceOnUse" gradientTransform="translate(19.104 18.4805) scale(26.7423 26.7423)">
<stop stop-color="#8A52A0"/>
<stop offset="0.2637" stop-color="#82529F"/>
<stop offset="0.695" stop-color="#6850A1"/>
<stop offset="1" stop-color="#534FA1"/>
</radialGradient>
</defs>
</svg>
