<svg width="230" height="197" viewBox="0 0 230 197" fill="none" xmlns="http://www.w3.org/2000/svg">
<path d="M217.128 180.263C217.406 179.434 217.547 178.566 217.548 177.692V83.3356C217.548 81.1876 216.693 79.1276 215.171 77.6085C213.649 76.0894 211.585 75.2356 209.432 75.2348H164.243V175.67C164.24 177.234 163.967 178.786 163.434 180.257H158.135C158.415 179.429 158.558 178.56 158.558 177.685V48.1008C158.558 45.9528 157.703 43.8928 156.181 42.3737C154.659 40.8546 152.595 40.0008 150.442 40H79.5486C78.4826 40 77.427 40.2096 76.4422 40.6167C75.4574 41.0238 74.5626 41.6206 73.809 42.3728C73.0554 43.1251 72.4576 44.0182 72.05 45.001C71.6423 45.9838 71.4327 47.0371 71.4331 48.1008V177.692C71.4357 178.566 71.5796 179.434 71.8591 180.263H66.5571C66.0257 178.792 65.752 177.24 65.748 175.676V75.2348H21.6463C20.5803 75.2348 19.5248 75.4443 18.5399 75.8515C17.5551 76.2586 16.6604 76.8554 15.9067 77.6076C15.1531 78.3599 14.5554 79.2529 14.1477 80.2358C13.7401 81.2186 13.5305 82.2719 13.5309 83.3356V177.692C13.533 178.566 13.6747 179.434 13.9507 180.263H0V197H230V180.263H217.128ZM37.8772 147.184H26.2312V135.564H37.8772V147.184ZM37.8772 126.803H26.2312V115.182H37.8772V126.803ZM37.8772 107.093H26.2312V95.4729H37.8772V107.093ZM56.0082 147.184H44.3622V135.564H56.0082V147.184ZM56.0082 126.803H44.3622V115.182H56.0082V126.803ZM56.0082 107.093H44.3622V95.4729H56.0082V107.093ZM133.056 179.722H98.8963V137.197H133.056V179.722ZM114.995 100.745C109.336 100.745 103.803 99.0703 99.0972 95.9327C94.3913 92.7952 90.7236 88.3356 88.5578 83.1181C86.3921 77.9005 85.8256 72.1593 86.9299 66.6205C88.0343 61.0817 90.76 55.994 94.7623 52.001C98.7645 48.0079 103.864 45.2887 109.415 44.1873C114.966 43.086 120.719 43.6518 125.948 45.8134C131.177 47.975 135.646 51.6352 138.79 56.3311C141.934 61.027 143.612 66.5477 143.611 72.1951C143.611 75.9446 142.871 79.6573 141.433 83.1214C139.995 86.5854 137.887 89.7329 135.229 92.384C132.572 95.0351 129.418 97.1381 125.946 98.5726C122.474 100.007 118.753 100.745 114.995 100.745ZM188.856 147.184H177.21V135.564H188.856V147.184ZM188.856 126.803H177.21V115.182H188.856V126.803ZM188.856 107.093H177.21V95.4729H188.856V107.093ZM206.984 147.184H195.368V135.564H207.014L206.984 147.184ZM206.984 126.803H195.368V115.182H207.014L206.984 126.803ZM206.984 107.093H195.368V95.4729H207.014L206.984 107.093ZM122.09 65.1096H133.05V79.2806H122.096V90.2223H107.894V79.2806H96.9349V65.1096H107.894V54.174H122.096L122.09 65.1096Z" fill="#DFF2EE"/>
<g clip-path="url(#clip0_1_41700)">
<path fill-rule="evenodd" clip-rule="evenodd" d="M152.605 121.238L153 118.958L149.639 118.061C149.565 117.851 146.724 118.271 146.821 118.018C146.62 118.162 146.595 118.327 146.489 118.601C145.929 120.039 145.461 122.325 147.402 122.859C149.038 123.308 150.859 122.629 152.123 121.628C152.296 121.493 152.455 121.342 152.605 121.238L152.605 121.238Z" fill="#A0BDED"/>
<path fill-rule="evenodd" clip-rule="evenodd" d="M132.664 134.087C132.425 134.29 132.571 134.271 132.134 134.271C130.162 134.271 128.354 134.21 126.353 134.21H120.453C119.415 134.21 118.549 134.148 117.564 134.148H111.663C110.625 134.148 109.759 134.087 108.774 134.087H102.873C102.179 134.087 100.317 134.154 99.764 134.07C99.764 134.07 99.6749 134.05 99.6062 134.04L91.1315 134.025C89.1461 134.025 87.3116 133.964 85.292 133.964C77.4691 133.964 69.7219 133.841 61.8725 133.841L50.3502 133.998C49.7601 134.08 49.6229 134.035 49.4996 134.622L49.1489 137.22C49.107 138.868 48.8838 139.633 49.0787 141.472C49.1304 141.96 49.1469 142.397 49.1984 142.826C49.2499 143.255 49.2485 143.861 49.7632 143.614C49.9195 143.288 49.7632 143.046 49.7632 142.692L49.8166 142.761C49.8434 142.797 49.8671 142.835 49.8872 142.875C50.6425 144.228 49.9018 143.983 53.3899 143.983H68.2036C71.5466 143.983 74.6935 143.921 78.0386 143.921C96.968 143.921 115.751 143.815 134.651 143.86C135.646 143.862 135.526 143.831 136.417 143.167L145.993 136.086C146.427 135.87 146.285 135.94 146.534 135.397L147.936 132.435C148.05 132.152 148.191 131.901 148.338 131.608C148.484 131.315 148.587 131.045 148.727 130.767L149.356 128.258C149.443 127.977 149.729 123.684 149.933 122.625C150.009 122.229 150.102 122.209 149.699 121.807C149.504 121.592 149.291 121.393 149.064 121.212C148.144 120.526 147.179 119.759 145.9 120.072C145.525 120.164 145.474 120.398 145.239 120.641L141.645 124.485C141.432 124.681 141.231 124.891 141.045 125.113L137.574 128.835L137.546 128.869L135.682 130.877C135.473 131.088 135.259 131.272 135.066 131.491L133.008 133.735C132.877 133.871 132.795 133.941 132.665 134.087L132.664 134.087Z" fill="#FFEEC2"/>
<path fill-rule="evenodd" clip-rule="evenodd" d="M133.235 138.091C132.659 138.354 133.253 139.166 133.828 138.97C134.15 138.859 133.927 138.555 133.896 138.354C133.857 138.097 133.727 137.867 133.235 138.091Z" fill="#4981A6"/>
<path fill-rule="evenodd" clip-rule="evenodd" d="M60.5509 144.658H125.975V166.455C114.956 166.455 104.128 166.394 93.1091 166.394H60.5509V144.658ZM128.37 151.123V144.658H132.916L129.538 149.522C129.329 149.817 128.581 150.982 128.37 151.123ZM54.5308 144.658H58.1552V151C58.1454 150.989 58.1313 150.956 58.1285 150.965C58.1256 150.975 58.1072 150.938 58.1022 150.93L54.5308 144.658ZM49 141.21V144.61C49.4428 144.61 51.5323 144.535 51.7449 144.658L51.9554 144.962C52.0272 145.085 52.0717 145.16 52.1557 145.314L53.3632 147.429C53.6208 147.906 53.8934 148.37 54.1649 148.842C55.1873 150.619 56.3393 152.751 57.3597 154.445L58.1549 155.886L58.1805 178.632C58.7657 178.57 59.9163 178.499 60.3967 178.771C60.4989 178.477 60.4281 171.35 60.4281 169.965C60.4281 169.76 60.43 169.555 60.4254 169.349C60.4254 169.314 60.4209 169.054 60.4233 169.038L60.5506 168.733C61.8399 168.729 63.1309 168.733 64.4207 168.733C65.8057 168.733 66.9786 168.795 68.3521 168.795H120.077C121.054 168.795 123.238 168.911 124.07 168.767L126.041 168.771C126.165 169.179 126.103 177.904 126.096 179C126.828 178.759 127.562 178.841 128.335 178.931C128.377 176.557 128.214 155.711 128.37 155.354L129.34 153.942C130.215 152.633 131.391 151.087 132.29 149.757L133.74 147.7C133.927 147.429 134.051 147.237 134.242 146.971L136.215 144.146C136.392 143.93 136.607 143.749 136.849 143.611L149.229 134.9C149.812 134.591 149.675 133.855 149.753 132.84C149.777 132.537 149.855 132.098 149.87 131.787C149.908 131.014 150.033 130.321 150.056 129.572L150.244 127.421C150.268 127.116 150.344 126.683 150.361 126.368C150.448 124.8 150.713 122.482 150.856 120.83C150.934 119.931 151.233 118.945 150.634 119.002C150.307 119.034 148.888 119.283 148.761 119.53C148.651 119.746 148.301 125.287 148.195 126.106C148.046 127.269 147.983 129.332 147.827 130.539C147.794 130.793 147.746 131.334 147.725 131.607C147.693 132.029 147.66 132.364 147.66 132.773C147.327 132.997 147.01 133.208 146.665 133.438L143.487 135.609C143.381 135.677 143.34 135.716 143.237 135.79C143.068 135.91 142.911 136.008 142.721 136.135L138.261 139.177C137.73 139.552 135.638 141.125 135.193 141.151C134.224 141.207 130.367 141.147 129.292 141.147C102.806 141.147 76.2849 141.195 49.8011 141.147L49.0441 141.19C49.0287 141.195 49.014 141.202 49 141.21L49 141.21Z" fill="#767285"/>
<path fill-rule="evenodd" clip-rule="evenodd" d="M148.338 133.06C148.086 133.17 147.951 133.438 148.017 133.697C148.059 133.955 148.433 134.07 148.738 133.956C149.235 133.769 148.983 132.745 148.338 133.06L148.338 133.06Z" fill="#727887"/>
<path fill-rule="evenodd" clip-rule="evenodd" d="M59.366 153.059C58.7937 153.303 58.9029 154.176 59.6211 153.968C60.2067 153.8 60.1072 152.743 59.366 153.059Z" fill="#737988"/>
<path fill-rule="evenodd" clip-rule="evenodd" d="M127.753 153L127.33 153.048C126.82 153.204 126.959 153.877 127.358 153.982C127.821 154.103 128.076 153.597 127.98 153.118L127.753 153H127.753Z" fill="#757B8A"/>
<path fill-rule="evenodd" clip-rule="evenodd" d="M52 144C51.7725 143.893 49.5377 143.958 49.064 143.958V141C49.0215 141.056 49.0292 141.004 49.0069 141.113L49 144L52 144Z" fill="#19202F"/>
<path fill-rule="evenodd" clip-rule="evenodd" d="M178.937 182.161C177.761 182.054 176.138 174 174.516 174C172.773 174 171.119 182.226 170.769 181.679L167.639 183.267C167.105 183.538 166.59 183.769 166.075 184.031C165.272 184.439 163.74 185.276 163.249 185.932C162.806 186.525 162.988 187.102 163.527 187.613C163.944 188.009 164.662 188.075 165.401 188.125C166.632 188.208 168.191 188.559 169.55 188.68L174.001 188.927C174.38 188.932 174.639 188.993 175.096 188.992C176.06 188.99 177.689 189.074 178.391 188.746C178.954 188.483 178.999 187.658 179 186.948C179.003 185.276 178.938 183.808 178.938 182.161L178.937 182.161Z" fill="#767285"/>
<path fill-rule="evenodd" clip-rule="evenodd" d="M153.487 183.309C153.284 183.059 154.442 173.959 153.809 173.757C153.02 173.507 152.293 173.251 151.491 173.004C150.87 172.812 144.796 180.488 144.308 180.21C143.216 180.459 142.137 180.766 141.076 181.129C140.908 181.189 140.767 181.219 140.597 181.276C139.327 181.701 138.314 181.896 136.978 182.473C136.509 182.675 135.682 183.065 136.127 183.739C136.312 184.018 137.117 184.611 137.454 184.791C137.995 185.093 138.578 185.311 139.184 185.439L142.167 186.082C144.377 186.52 146.636 187.244 148.927 187.703C149.252 187.769 149.592 187.823 149.927 187.892C150.275 187.952 150.628 187.988 150.981 188C151.618 187.931 151.953 187.001 152.278 186.349C152.364 186.176 152.418 186.105 152.487 185.932L153.487 183.308L153.487 183.309Z" fill="#767285"/>
<path fill-rule="evenodd" clip-rule="evenodd" d="M161 80.6751C161.004 80.9553 161.036 81.2345 161.095 81.5084C161.143 81.7792 161.173 82.0527 161.187 82.3272C161.227 82.8427 161.328 83.3518 161.488 83.8439C162.358 86.2504 164.731 89.7975 169.799 86.9329C170.183 87.1842 171.546 84.7259 171.494 85.4254L171.626 85.1221C172.884 85.1221 174.149 84.4213 174.66 83.4045C174.917 82.894 174.933 82.7813 175 82.0891L174.881 81.8056C174.395 81.7203 173.775 79.1669 173.205 79.1066C172.909 79.1199 172.614 79.1488 172.32 79.1933C172.342 79.1576 172.362 79.12 172.378 79.0811L170.631 79.0641C169.67 79.0334 169.008 78.9372 168.084 78.8314C167.185 78.7287 166.69 78.4948 165.943 78.238C164.864 77.8671 163.328 78.0509 162.07 78.0124C161.419 77.9923 161.5 80.5338 161 80.6751Z" fill="#FFDBC8"/>
<path fill-rule="evenodd" clip-rule="evenodd" d="M164.062 87.441C164.062 87.8218 164 87.9699 164 88.2991C164.248 88.7963 163.495 89.1714 166.654 88.9193L170 88.6317L169.915 88.0146L169.928 87.3329C168.888 87.6856 168.807 85.9901 167.285 86C165.61 86.0108 165.085 87.6781 164.062 87.4409L164.062 87.441Z" fill="#D4A48A"/>
<path fill-rule="evenodd" clip-rule="evenodd" d="M150 115.282C150.738 115.046 153.253 119.879 154.251 119.887C154.765 119.891 155.766 120.006 156.177 119.948L156.639 120C156.872 117.378 166.379 116.521 166.967 114.092C167.353 112.503 164.181 104.967 164.756 103.414C164.96 102.859 157.576 100.52 157.708 100C157.315 100.334 154.148 106.337 153.63 107.411C152.994 108.728 152.391 109.973 151.755 111.291C151.67 111.467 151.629 111.602 151.552 111.762L150 115.282L150 115.282Z" fill="#25A58E"/>
<path fill-rule="evenodd" clip-rule="evenodd" d="M176.998 129.978C176.998 129.289 176.872 128.732 176.818 128.097C176.765 127.476 176.668 126.766 176.592 126.189C176.26 123.652 175.969 121.291 175.52 118.792L175.004 116.131C174.978 115.828 175.027 115.839 175.364 115.43C175.582 115.136 175.756 114.813 175.881 114.469C176.014 114.081 176.103 113.679 176.145 113.272C176.201 112.738 176.588 111.163 176.393 110.654C176.584 110.573 176.48 110.782 176.519 110.109L176.635 108.397C176.635 107.878 176.695 107.507 176.695 106.933L176.697 103.21C176.688 102.897 176.632 102.836 176.633 102.482C176.638 99.9844 175.993 98.3282 175.53 96.1518C175.273 94.9403 175.244 93.8031 174.322 92.8566C173.352 91.861 171.471 91.6213 169.92 91.2568C170.009 90.8568 170.05 90.4472 170.041 90.0372C170.04 89.4742 170.128 89.1905 169.725 89L163.931 89.3071C163.309 89.2995 163.501 89.3846 163.337 90.8413C163.198 92.0721 163.555 91.6866 162.182 92.3004C161.801 92.4712 161.784 92.471 161.569 92.7805L160.458 94.4045C160.162 94.8497 159.916 95.2545 159.654 95.7289L158.868 97.1325C158.682 97.5097 157.631 99.7003 157.509 100.102C157.375 100.613 157.064 101.271 156.857 101.817C156.214 103.55 155.663 105.315 155.204 107.107C154.609 109.499 153.997 112.367 153.763 114.95L153.231 119.083L152.854 121.329C152.795 121.774 152.777 122.224 152.8 122.672C152.803 123.164 152.738 123.474 152.739 124.013V125.416L152.676 126.818C152.675 127.782 152.648 128.597 152.62 129.567C152.611 129.868 152.564 129.871 152.555 130.173C152.548 130.414 152.562 130.667 152.56 130.909C152.555 131.239 152.503 131.269 152.495 131.576L152.009 140.31C151.977 140.74 151.98 140.607 152.914 140.794C153.291 140.869 153.768 140.969 154.13 141.021C154.785 141.025 155.97 141.291 156.677 141.387C157.542 141.505 158.386 141.616 159.261 141.711C160.97 141.898 162.953 142.167 164.68 141.862C165.31 141.901 166.72 141.687 167.408 141.608L172.813 140.848C173.486 140.734 174.838 140.389 175.423 140.38L177.853 139.818C178.055 139.747 177.994 139.756 177.982 139.565C177.913 138.487 177.706 137.406 177.661 136.336C177.629 135.571 177.408 134.087 177.357 133.165L176.997 129.978H176.998Z" fill="#057369"/>
<path fill-rule="evenodd" clip-rule="evenodd" d="M144 179.924C144.485 180.195 145.664 180.515 146.282 180.701C147.08 180.943 147.804 181.191 148.59 181.435C149.22 181.631 152.939 182.697 153.141 182.939C153.329 182.973 153.519 182.993 153.71 183C153.847 182.852 153.941 182.67 153.983 182.474C154.049 182.245 154.093 182.06 154.152 181.848L155.177 178.031C155.816 175.536 156.587 172.976 157.231 170.463L160.693 157.747C160.901 156.945 161.126 156.051 161.372 155.239C161.496 154.83 161.588 154.433 161.704 153.977L164.824 142.537C164.849 142.298 164.908 142.064 165 141.841C163.222 142.147 161.182 141.877 159.425 141.691C158.524 141.595 157.656 141.483 156.765 141.366C156.038 141.271 154.819 141.004 154.145 141L151.616 150.736C151.373 151.546 151.214 152.385 150.979 153.163L150.344 155.592C150.169 156.379 149.911 157.199 149.701 158.013C149.483 158.863 149.281 159.6 149.067 160.443L146.838 168.938C146.397 170.676 145.592 173.423 145.251 175.01C145.064 175.878 144 179.448 144 179.925L144 179.924Z" fill="#25A58E"/>
<path fill-rule="evenodd" clip-rule="evenodd" d="M165.168 141.478C165.081 141.7 165.024 141.933 165 142.171C165.197 142.949 165.998 148.508 166.163 149.517L169.294 169.779C169.342 170.137 169.383 170.371 169.44 170.723C169.476 171.056 169.529 171.387 169.601 171.713L169.961 174.081C170.067 174.897 170.211 175.697 170.339 176.551L171.086 181.504C171.428 182.04 170.991 181.959 172.691 181.959C174.272 181.959 177.902 181.87 179.049 181.975C179.603 182.018 179.669 182.031 180 181.804C180 180.917 179.819 180.083 179.764 179.249C179.709 178.405 179.602 177.573 179.514 176.708C179.433 175.914 179.325 174.992 179.238 174.195L178.99 171.713C178.984 171.37 178.895 171.018 178.874 170.678C178.853 170.351 178.826 170.016 178.78 169.681C178.451 167.298 178.279 164.138 177.955 161.77L176.921 151.887C176.784 150.542 176.67 149.208 176.512 147.928L176.01 142.971C175.98 142.681 175.92 142.313 175.901 141.989C175.86 141.311 175.723 140.728 175.723 140C175.147 140.009 173.819 140.353 173.159 140.466L167.849 141.224C167.173 141.304 165.787 141.517 165.168 141.478Z" fill="#057369"/>
<path fill-rule="evenodd" clip-rule="evenodd" d="M159.181 79.2032C159.43 79.1082 159.795 79.8849 160.25 79.9221C161.273 80.0058 162.635 79.5277 163.334 79.5436C165.096 79.5833 165.871 80.0729 167.266 80.425C169.595 81.0128 170.788 80.7545 173.444 80.8676C174.514 80.913 174.961 80.4061 175.35 81C175.705 80.5902 176.447 78.9724 176.696 78.4159C177.306 77.0598 176.973 75.7645 175.916 74.6797L174.589 73.3991C173.351 72.4496 173.399 72.5672 172.153 71.8248C170.941 71.175 169.66 70.6591 168.333 70.2864C163.322 68.8894 157.612 72.8031 158.021 77.6923C158.098 78.6156 158.215 78.6465 159.181 79.2032L159.181 79.2032Z" fill="#057369"/>
<path fill-rule="evenodd" clip-rule="evenodd" d="M165.846 83.041C165.568 83.1401 163.94 83.1062 163.497 83.119C162.681 83.1417 162.003 83.0826 161.308 83.2798C161.111 83.4166 160.997 83.6375 161.003 83.8707C160.955 84.4643 161.524 85.3883 161.847 85.8024C162.39 86.4964 163.103 87.0518 163.922 87.4198C164.929 87.6643 165.191 88.0106 166.84 87.9997C168.338 87.9897 168.673 87.672 169.697 87.3084C170.127 87.0763 170.494 86.7486 170.765 86.3526C170.967 86.0572 171.297 85.2665 171.268 84.802C171.415 82.8794 170.676 83.6755 172.312 81.7113C172.656 81.2975 172.734 81.0547 173 81.0625C172.38 80.9429 171.146 81.0341 170.438 81.0213L172.176 81.0377C171.98 81.3529 171.756 81.6519 171.508 81.9315C171.267 82.2108 171.05 82.5075 170.857 82.819L165.846 83.041Z" fill="#DFE5FE"/>
<path fill-rule="evenodd" clip-rule="evenodd" d="M149.307 114.307C149.144 114.419 149.071 114.442 148.913 114.566C148.547 114.833 148.22 115.154 147.941 115.517C147.7 115.831 147.021 116.799 147.056 117.233C146.98 117.429 146.981 117.649 147.061 117.844C147.185 117.872 147.132 117.872 147.254 117.816C147.183 118.068 147.254 117.987 147.504 117.966C147.358 118.264 147.237 118.441 147.362 118.836C147.468 119.171 147.686 119.364 148.008 119.249C148.106 119.36 147.972 119.229 148.084 119.338C148.114 119.368 148.147 119.396 148.182 119.421C148.144 119.983 148.753 120.101 149.263 119.924C149.634 119.756 149.982 119.537 150.299 119.275C151.235 118.603 151.334 118.521 152.634 118.135L154 117.965C153.957 117.454 153.943 116.675 153.871 116.18C153.753 115.38 153.859 115.027 153.857 114.298C153.516 114.128 152.966 114.257 152.694 114.059C152.299 114.115 151.343 114.005 150.851 114.001C149.896 113.992 150.013 114.081 149.307 114.307L149.307 114.307Z" fill="#C7DDFF"/>
<path fill-rule="evenodd" clip-rule="evenodd" d="M159 79.2036C158.996 79.5933 159.135 79.9696 159.389 80.254C159.692 80.5169 160.122 80.5453 160.455 80.3241C160.95 80.1753 160.899 80.0587 161.545 80.0798C162.794 80.1202 164.318 79.9275 165.389 80.3167C166.131 80.5864 166.622 80.832 167.513 80.9401C168.43 81.051 169.088 81.152 170.041 81.1843C170.747 81.1981 171.977 81.0987 172.596 81.2292C173.162 81.2924 173.748 81.4217 174.23 81.5113L174.348 81.809C174.463 81.9082 174.415 81.8274 174.454 82C174.608 81.8918 174.57 81.9556 174.657 81.7455C174.789 81.6621 174.855 81.6567 175 81.5542V81.1101C174.615 80.48 174.484 80.3058 173.425 80.2574C170.796 80.1374 169.271 80.8124 166.966 80.1885C165.586 79.8164 165.107 79.1026 163.364 79.0602C162.365 79.0362 159.801 78.8761 159 79.2036Z" fill="#25A58E"/>
<path fill-rule="evenodd" clip-rule="evenodd" d="M154.044 115.229C154.046 116.014 153.935 116.394 154.058 117.257C154.134 117.789 154.149 118.628 154.194 119.179C154.325 119.558 154.327 120.08 154.791 120.102C155.361 120.129 155.538 119.79 155.932 120.118C156.572 120.614 157.33 120.908 158.119 120.966C160.656 121.275 162.407 119.389 161.918 118.983C161.384 118.54 161.137 120.442 158.632 120.372C156.728 120.318 156.29 119.51 155.967 119.368C155.683 119.243 155.242 119.43 154.923 119.459C154.45 118.399 154.411 117.088 154.425 115.81C155.462 115.844 154.88 115.549 155.575 114.361C156.794 112.277 158.879 113.483 159.322 113.296C159.435 113.248 159.41 113.223 159.485 113.155C159.812 112.853 160.754 112.756 161.145 112.496C161.263 111.762 160.724 112.019 160.293 112.165C159.717 112.359 159.551 112.339 159.233 112.682C158.01 112.508 157.22 112.239 156.124 112.896C155.299 113.389 154.996 114.099 154.604 115.175C154.301 115.157 154.279 115.111 154.044 115.229L154.044 115.229Z" fill="#26A68F"/>
<path fill-rule="evenodd" clip-rule="evenodd" d="M169.249 110.258C168.513 110.173 168.522 110.302 168.629 109.292C168.723 108.411 168.897 108.168 168.504 108.002C167.696 107.927 168.34 109.782 167.784 110.052L164.693 111.026C164.428 111.109 163.188 111.473 163.079 111.596C162.841 111.864 163.187 112.047 163.512 111.989C163.798 111.92 164.08 111.835 164.355 111.735C165.469 111.367 166.526 111.018 167.655 110.67C168.2 110.502 168.001 110.686 168.514 110.739C168.837 110.754 169.156 110.813 169.46 110.913C170.367 111.228 170.568 111.755 170.895 111.472C171.271 111.168 170.535 110.802 170.327 110.687C169.928 110.465 169.642 110.438 169.249 110.258L169.249 110.258Z" fill="#26A68F"/>
<path fill-rule="evenodd" clip-rule="evenodd" d="M168.31 104.993C168.49 104.613 168.424 103.68 168.442 103.102C168.493 101.514 168.555 99.9472 168.972 98.5296C169.154 97.9099 168.408 97.0118 168.117 101.272L168 104.363C167.998 104.81 167.998 105.043 168.31 104.993H168.31Z" fill="#26A68F"/>
<path fill-rule="evenodd" clip-rule="evenodd" d="M155.013 151.88C155.795 152.242 159.461 151.727 158.952 151.096C158.753 150.85 158.344 151.143 158.13 151.223C156.377 151.877 154.844 151.163 155.013 151.88Z" fill="#087D68"/>
<path fill-rule="evenodd" clip-rule="evenodd" d="M165.982 83.955C166.04 83.3522 165.963 82.337 165.707 82.0121C165.707 82.0121 165.198 81.8675 165.115 82.5762C165.059 83.0474 165.021 83.5227 165 84L165.982 83.955V83.955Z" fill="#D4A58B"/>
<path fill-rule="evenodd" clip-rule="evenodd" d="M167.272 81.0519C167.055 81.17 167.054 81.2176 167.024 81.5321C167 81.7806 166.994 82.0302 167.007 82.2794C167.033 82.6681 167.327 83.2877 167.74 82.8494C168.007 82.5658 168.027 82.0888 167.98 81.6711C167.938 81.2831 167.644 80.8483 167.272 81.0519Z" fill="#162036"/>
<path fill-rule="evenodd" clip-rule="evenodd" d="M162.267 81.0111C161.913 81.4724 161.777 83.3001 162.723 82.9575C163.056 82.837 163.019 82.1243 162.963 81.7414C162.898 81.2959 162.804 80.9309 162.267 81.0111L162.267 81.0111Z" fill="#162036"/>
<path fill-rule="evenodd" clip-rule="evenodd" d="M165.338 118.039C165.067 118.117 164.327 118.267 164.157 118.408C163.826 118.684 164.025 119.134 164.688 118.962C165.085 118.886 165.472 118.76 165.841 118.588C166.183 118.319 165.954 117.863 165.338 118.039Z" fill="#29A791"/>
<path fill-rule="evenodd" clip-rule="evenodd" d="M168.015 105.578C168.015 106.775 167.825 107.074 168.789 106.986C169.056 106.66 169.085 105.388 168.786 105.02C168.066 104.942 168.015 105.086 168.015 105.578Z" fill="#26A68F"/>
<path fill-rule="evenodd" clip-rule="evenodd" d="M172.043 84C172.237 83.9583 172.188 83.8231 172.257 83.5306C172.294 83.3151 172.374 83.1226 172.488 82.9811C172.746 83.204 172.699 83.7274 172.952 83.7049C173.045 83.202 172.699 82.9441 172.632 82.6668C172.814 82.335 173.062 82.3488 172.986 82.0487C172.761 81.6867 171.785 83.4417 172.043 84V84Z" fill="#D7A88E"/>
<path fill-rule="evenodd" clip-rule="evenodd" d="M153.144 152.107C152.635 152.718 153.618 153.211 153.875 152.908C154.324 152.377 153.445 151.745 153.144 152.107Z" fill="#0C826C"/>
<path fill-rule="evenodd" clip-rule="evenodd" d="M177 130C177 129.29 176.878 128.717 176.825 128.062C176.774 127.422 176.679 126.691 176.606 126.096C176.282 123.482 176 121.049 175.563 118.474L175.06 115.732C175.035 115.42 175.083 115.431 175.411 115.009C174.698 114.91 173.637 115.621 172.791 115.964C172.477 116.056 172.168 116.167 171.865 116.295C170.516 117.057 166.255 117.665 166.109 117.818C165.818 118.123 166.158 118.345 166.567 118.295C166.908 118.254 167.273 118.183 167.623 118.117C168.311 117.988 168.948 117.832 169.61 117.656C170.21 117.497 170.978 117.205 171.527 117.118C172.277 118.258 172.339 117.891 173.4 119.779C174.82 122.307 175.795 125.237 176.541 128.114C176.64 128.495 176.88 129.755 177 130H177Z" fill="#25A58E"/>
<path fill-rule="evenodd" clip-rule="evenodd" d="M170.013 153.88C170.795 154.242 174.461 153.727 173.952 153.097C173.753 152.85 173.344 153.143 173.131 153.223C171.376 153.877 169.843 153.163 170.013 153.88Z" fill="#25A58E"/>
<path fill-rule="evenodd" clip-rule="evenodd" d="M167.144 153.107C166.635 153.719 167.618 154.211 167.875 153.908C168.324 153.378 167.445 152.745 167.144 153.107Z" fill="#25A58E"/>
<path fill-rule="evenodd" clip-rule="evenodd" d="M148 119.845C148.111 119.945 147.959 119.827 148.086 119.925C148.12 119.952 148.157 119.977 148.197 120C148.476 119.703 148.692 119.424 148.952 119.156C149.692 118.362 150.651 117.727 151.748 117.302C152.015 117.196 151.946 117.298 152 117.073C151.818 116.969 151.881 116.952 151.346 117.184C151.131 117.277 150.924 117.378 150.733 117.478C149.827 117.948 148.322 119.159 148 119.845L148 119.845Z" fill="#85A8E0"/>
<path fill-rule="evenodd" clip-rule="evenodd" d="M147.031 117.821C146.946 118.073 147.031 117.992 147.332 117.971C147.654 117.251 149.341 115.836 150.504 115.376C150.734 115.286 150.95 115.286 151 115.043C150.545 114.765 148.925 115.927 148.711 116.085C148.073 116.604 147.509 117.187 147.031 117.821Z" fill="#85A8E0"/>
<path fill-rule="evenodd" clip-rule="evenodd" d="M125.634 178.142C125.496 178.209 125.392 178.226 125.224 178.293C124.577 178.555 123.982 178.932 123.469 179.408C121.514 181.369 121.51 184.554 123.459 186.522C125.408 188.489 128.573 188.493 130.528 186.532C131.35 185.707 131.861 184.62 131.973 183.457C132.24 180.902 130.484 178.647 128.061 178.079L128.025 178.091C127.242 177.999 126.498 177.916 125.757 178.162L125.634 178.142L125.634 178.142Z" fill="#767285"/>
<path fill-rule="evenodd" clip-rule="evenodd" d="M55.1695 179.771C54.8076 180.209 54.5238 180.706 54.3309 181.241C53.8348 182.711 53.9048 183.701 54.4854 185.102C54.8266 185.855 55.3561 186.507 56.0225 186.994C58.2214 188.656 61.345 188.212 62.9992 186.004C64.2644 184.314 64.3364 182.008 63.179 180.242C61.3572 177.511 57.2533 177.182 55.1695 179.771L55.1695 179.771Z" fill="#767285"/>
<path fill-rule="evenodd" clip-rule="evenodd" d="M55.0486 183.074C55.3655 184.98 57.1679 186.269 59.0742 185.952C60.9805 185.635 62.269 183.833 61.9521 181.926C61.636 180.025 59.8427 178.737 57.9407 179.046C56.0351 179.352 54.7386 181.145 55.0448 183.051C55.046 183.058 55.0472 183.066 55.0486 183.074Z" fill="#868D9C"/>
<path fill-rule="evenodd" clip-rule="evenodd" d="M126.029 179.044C124.259 179.325 122.701 180.913 123.049 183.087C123.394 185.013 125.218 186.292 127.121 185.942C128.958 185.605 130.21 183.871 129.971 181.998C129.695 180.245 128.066 178.72 126.029 179.044Z" fill="#868D9C"/>
<path fill-rule="evenodd" clip-rule="evenodd" d="M132 134.166C132.003 134.687 132.365 137.441 132.95 136.939C133.135 136.737 132.751 135.934 132.668 135.629C132.513 135.1 132.453 134.549 132.49 134C132.269 134.184 132.404 134.166 132 134.166Z" fill="#487FA4"/>
</g>
<path d="M115.506 0C112.191 0.00160443 109.012 1.32633 106.667 3.68327C104.322 6.04021 103.003 9.23666 103 12.5707C103 19.2379 114.286 34.9573 114.768 35.624C114.852 35.7404 114.962 35.8352 115.089 35.9006C115.216 35.9659 115.357 36 115.5 36C115.643 36 115.784 35.9659 115.911 35.9006C116.038 35.8352 116.148 35.7404 116.232 35.624C116.711 34.9573 128 19.2288 128 12.5707C127.995 9.23925 126.678 6.04556 124.336 3.68932C121.994 1.33307 118.819 0.00641238 115.506 0Z" fill="#767285"/>
<path d="M115.494 20C116.977 20.0012 118.427 19.5627 119.661 18.74C120.895 17.9173 121.857 16.7473 122.426 15.3778C122.995 14.0084 123.145 12.5009 122.858 11.0461C122.57 9.59127 121.858 8.25431 120.811 7.20421C119.764 6.1541 118.429 5.438 116.975 5.14641C115.521 4.85482 114.013 5.00083 112.642 5.56599C111.271 6.13114 110.098 7.09007 109.272 8.32157C108.446 9.55308 108.003 11.0019 108 12.4848C107.997 13.4697 108.189 14.4455 108.563 15.3564C108.938 16.2672 109.488 17.0953 110.183 17.7933C110.878 18.4913 111.704 19.0454 112.613 19.424C113.522 19.8027 114.497 19.9984 115.482 20" fill="#F5F5F5"/>
<path d="M120 8.94192V17.0518C120 17.3016 119.903 17.5412 119.729 17.7178C119.555 17.8945 119.32 17.9937 119.075 17.9937C118.829 17.9937 118.594 17.8945 118.42 17.7178C118.247 17.5412 118.149 17.3016 118.149 17.0518V13.9498H112.851V17.0581C112.851 17.3079 112.753 17.5475 112.58 17.7241C112.406 17.9008 112.171 18 111.925 18C111.68 18 111.445 17.9008 111.271 17.7241C111.097 17.5475 111 17.3079 111 17.0581V8.94192C111 8.6921 111.097 8.45252 111.271 8.27588C111.445 8.09924 111.68 8 111.925 8C112.171 8 112.406 8.09924 112.58 8.27588C112.753 8.45252 112.851 8.6921 112.851 8.94192V12.0659H118.146V8.95761C118.146 8.7078 118.244 8.46822 118.417 8.29158C118.591 8.11493 118.826 8.0157 119.072 8.0157C119.317 8.0157 119.552 8.11493 119.726 8.29158C119.899 8.46822 119.997 8.7078 119.997 8.95761L120 8.94192Z" fill="#9C9C9B"/>
<defs>
<clipPath id="clip0_1_41700">
<rect width="131" height="119" fill="white" transform="translate(49 70)"/>
</clipPath>
</defs>
</svg>
