<svg version="1.1" preserveAspectRatio="none" xmlns="http://www.w3.org/2000/svg" width="500" height="500" viewBox="0 0 500 500"><rect width="100%" height="100%" fill="#F7F4F2" fill-opacity="1"/><svg viewBox="145.9096 179.3934 352.5687 291.0275" width="333" height="274.8745350906079" x="83.5px" y="112.5627px" xmlns="http://www.w3.org/2000/svg" xmlns:xlink="http://www.w3.org/1999/xlink" preserveAspectRatio="none"><defs></defs><style>.companyName {fill:#161616;fill-opacity:1;}.icon1 {fill:#161616;fill-opacity:1;}.icon2 {fill:#E5B7D2;fill-opacity:1;}.icon3 {fill:#848282;fill-opacity:1;}.icon3-str {stroke:#848282;stroke-opacity:1;}</style><g opacity="1" transform="rotate(0 145.9096 350.4209)">
<svg width="352.5687" height="120" x="145.9096" y="350.4209" version="1.1" preserveAspectRatio="none" viewBox="-3.4375 -28.9453 120.4493 40.9961">
  <g transform="matrix(1 0 0 1 0 0)" class="companyName"><path id="id-D6z1nYkh7" d="M31.09-7.21L31.09-7.21L31.25-6.46Q31.25-6.00 30.76-5.35L30.76-5.35Q29.47-3.67 26.63-1.49Q23.79 0.68 22.44 0.68Q21.09 0.68 20.33-0.11Q19.57-0.90 19.57-1.91L19.57-1.91Q19.57-3.13 22.11-7.27L22.11-7.27Q25.92-13.42 31.84-21.64L31.84-21.64Q30.59-20.35 25.20-14.69L25.20-14.69Q13.26-2.19 11.25-0.53L11.25-0.53Q10.92-0.25 10.28-0.25Q9.65-0.25 8.95-0.77Q8.24-1.29 8.24-1.93L8.24-1.93L8.24-2.03Q8.32-2.85 12.01-10.06Q15.70-17.27 18.20-21.52L18.20-21.52Q14.51-17.46 10.74-12.46L10.74-12.46Q3.57-2.97 0.25 3.71L0.25 3.71Q-0.04 4.34-0.47 4.34Q-0.90 4.34-1.72 4.12L-1.72 4.12Q-3.44 3.65-3.44 2.48L-3.44 2.48Q-3.44 1.78-0.57-2.55Q2.30-6.88 6.09-12.00Q9.88-17.13 13.95-21.88L13.95-21.88Q19.55-28.44 21.15-28.44L21.15-28.44Q21.41-28.44 21.64-28.31Q21.88-28.18 21.93-28.18Q21.99-28.18 22.05-28.24L22.05-28.24Q22.30-28.55 23.06-28.55Q23.81-28.55 24.52-28.26Q25.23-27.97 25.23-27.60L25.23-27.60Q25.23-27.36 23.28-23.87L23.28-23.87Q16.74-12.27 14.49-7.93L14.49-7.93Q16.64-10.53 20.63-14.82Q24.63-19.12 29.02-23.40L29.02-23.40Q34.75-28.95 35.86-28.95L35.86-28.95Q36.31-28.95 36.99-28.75L36.99-28.75Q38.20-28.40 39.32-28.40L39.32-28.40Q39.63-28.34 39.85-28.13Q40.08-27.93 40.08-27.71Q40.08-27.50 39.96-27.36L39.96-27.36Q33.61-18.93 29.26-12.48Q24.90-6.04 23.89-3.77L23.89-3.77Q25.94-4.20 30-8.67L30-8.67Q30.18-8.91 30.25-8.98Q30.33-9.06 30.39-9.14L30.39-9.14Q30.72-9.53 30.90-8.65L30.90-8.65Q30.98-8.14 31.01-7.94Q31.04-7.73 31.06-7.51Q31.09-7.29 31.09-7.21Z M44.81-4.34Q45.82-4.98 46.11-5.22Q46.41-5.47 46.80-5.80Q47.19-6.13 47.44-6.13L47.44-6.13Q47.83-6.13 47.83-5.24Q47.83-4.36 46.96-3.33Q46.09-2.30 44.80-1.59Q43.52-0.88 42.05-0.35L42.05-0.35Q39.14 0.72 37.10 0.72Q35.06 0.72 33.42-0.62Q31.78-1.95 31.78-4.11Q31.78-6.27 32.85-8.43Q33.93-10.59 35.62-12.22Q37.30-13.85 39.54-14.86Q41.78-15.88 43.96-15.88L43.96-15.88Q45.02-15.88 45.86-15.27Q46.70-14.67 46.70-13.61Q46.70-12.56 45.65-11.08Q44.61-9.61 43.54-9.61L43.54-9.61Q42.29-9.61 42.29-10.80L42.29-10.80Q42.29-11.11 42.87-11.91Q43.46-12.71 43.46-13.00Q43.46-13.28 43.24-13.28L43.24-13.28Q42.17-13.28 40.94-12.54Q39.71-11.80 38.70-10.98Q37.70-10.16 36.80-9.14L36.80-9.14Q34.84-6.93 34.84-4.55L34.84-4.55Q34.84-3.59 35.46-2.90Q36.07-2.21 37.53-2.21Q38.98-2.21 40.45-2.55Q41.91-2.89 42.86-3.29Q43.81-3.69 44.81-4.34Z M57.19-20.80L57.56-20.78L57.91-20.82Q58.20-20.82 58.38-20.31Q58.55-19.80 58.55-19.63Q58.55-19.45 58.16-18.96L58.16-18.96L52.60-10.49Q55.53-13.42 58.55-14.77L58.55-14.77Q59.73-15.27 60.67-15.27Q61.62-15.27 62.20-14.66Q62.77-14.04 62.77-13.13Q62.77-12.21 62.27-10.86Q61.76-9.51 60.89-7.99Q60.02-6.46 58.78-4.92Q57.54-3.38 56.18-2.13Q54.82-0.88 53.22-0.10Q51.62 0.68 50.41 0.68L50.41 0.68Q47.97 0.68 47.97-1.56L47.97-1.56Q45.68 1.93 42.70 6.72Q39.71 11.50 39.49 11.78Q39.28 12.05 39.13 12.05Q38.98 12.05 38.68 11.88Q38.38 11.70 38.05 11.29Q37.71 10.88 37.71 10.10Q37.70 9.32 38.16 8.52L38.16 8.52Q40.80 4.12 48.33-8.02Q55.86-20.16 56.48-20.57L56.48-20.57Q56.84-20.80 57.19-20.80L57.19-20.80ZM59.28-11.80L59.28-11.80Q59.28-12.21 58.89-12.21L58.89-12.21Q57.83-12.21 54.42-8.96Q51.02-5.72 49.00-3.05L49.00-3.05Q49.51-2.42 50.51-2.42Q51.50-2.42 53.09-3.50Q54.67-4.57 56.02-6.04Q57.36-7.52 58.32-9.14Q59.28-10.76 59.28-11.80Z M77.25-14.84L77.25-14.84Q78.73-14.84 78.73-13.83L78.73-13.83Q78.73-13.28 78.48-13.03Q78.22-12.77 77.39-11.34Q76.56-9.90 75.56-7.67Q74.55-5.43 74.26-3.85L74.26-3.85Q74.20-3.65 74.20-3.30L74.20-3.30Q74.20-2.23 74.79-2.23Q75.37-2.23 76.17-2.78Q76.97-3.34 77.60-3.97Q78.22-4.61 78.82-5.27Q79.41-5.94 79.53-6.04Q79.65-6.13 79.88-6.13L79.88-6.13Q80.25-6.13 80.33-5.57Q80.41-5 80.41-4.39Q80.41-3.79 80.29-3.55L80.29-3.55Q79.73-2.44 77.80-0.88Q75.88 0.68 74.31 0.68Q72.73 0.68 71.99-0.27Q71.25-1.23 71.25-2.39Q71.25-3.55 71.64-4.43L71.64-4.43Q70.02-2.32 67.92-0.86Q65.82 0.61 64.49 0.61Q63.16 0.61 62.32-0.20L62.32-0.20Q61.25-1.19 61.25-2.96Q61.25-4.73 62.04-6.51Q62.83-8.30 64.12-9.78Q65.41-11.25 66.95-12.46L66.95-12.46Q70.20-15 72.93-15L72.93-15Q73.98-15 74.65-14.65Q75.31-14.30 75.49-13.77L75.49-13.77Q75.96-14.47 76.28-14.66Q76.60-14.84 77.25-14.84ZM74.65-12.68L74.65-12.68Q71.31-12.68 67.73-8.96L67.73-8.96Q66.46-7.64 65.40-5.78Q64.34-3.93 64.34-3.24Q64.34-2.56 64.73-2.56L64.73-2.56Q65.27-2.56 67.77-4.72Q70.27-6.88 71.09-7.89L71.09-7.89Q71.99-9.02 74.65-12.68Z M85.84-11.88L85.02-10.64Q89.63-15.88 92.87-15.88L92.87-15.88Q93.67-15.88 94.19-15.40Q94.71-14.92 94.71-14.16Q94.71-13.40 93.62-11.61Q92.54-9.82 91.62-8.59L91.62-8.59Q91.13-7.97 90.52-7.97Q89.90-7.97 89.56-8.42Q89.22-8.87 89.22-9.47L89.22-9.47Q89.22-10.82 90.66-12.52L90.66-12.52L90.63-12.56Q89.98-12.50 87.43-10.02Q84.88-7.54 83.10-5.58Q81.31-3.61 79.22-0.80L79.22-0.80Q78.61 0.04 78.19 0.04Q77.77 0.04 77.08-0.22Q76.39-0.49 76.24-0.61Q76.09-0.72 76.09-1.00Q76.09-1.27 76.25-1.63Q76.41-1.99 76.83-2.66Q77.25-3.32 78.10-4.80Q78.95-6.29 80.74-9.30Q82.54-12.30 82.89-12.93L82.89-12.93Q83.63-14.22 84.10-14.80L84.10-14.80Q84.98-15.92 87.07-15.92L87.07-15.92Q87.54-15.92 87.54-15.33L87.54-15.33Q87.54-14.41 85.84-11.88L85.84-11.88Z M105.12-25.04L106.04-25.16L106.84-24.96Q107.01-24.96 107.15-24.79Q107.29-24.61 107.29-24.45Q107.29-24.30 106.88-23.61Q106.46-22.93 105.91-22.06Q105.35-21.19 105.31-21.11L105.31-21.11Q106.84-21.23 107.47-21.23Q108.11-21.23 108.34-21.14Q108.57-21.05 108.88-20.65Q109.18-20.25 109.43-20.05Q109.69-19.84 109.69-19.43Q109.69-19.02 109.19-18.74Q108.69-18.46 108.13-18.40L108.13-18.40Q103.59-17.95 103.13-17.93L103.13-17.93Q101.54-15.51 98.70-10.38Q95.86-5.25 95.68-3.96L95.68-3.96Q95.61-3.38 95.61-3.01L95.61-3.01Q95.61-2.25 96.41-2.25Q97.21-2.25 98.18-2.86Q99.16-3.48 99.98-4.20L99.98-4.20Q102.17-6.15 102.32-6.15L102.32-6.15Q102.83-6.15 102.83-4.39L102.83-4.39Q102.83-3.44 101.95-2.68L101.95-2.68Q99.98-0.98 98.63-0.12Q97.29 0.74 95.94 0.74L95.94 0.74Q95.64 0.74 95.39 0.68L95.39 0.68Q93.83 0.39 93.10-0.46Q92.36-1.31 92.37-2.75Q92.38-4.20 93.23-6.26Q94.08-8.32 95.37-10.64L95.37-10.64Q97.48-14.43 99.59-17.75L99.59-17.75L98.85-17.66Q96.58-17.40 96.21-17.40L96.21-17.40L96.04-17.40Q95.47-17.40 94.94-17.63Q94.41-17.85 94.41-18.18Q94.41-18.52 94.70-18.83Q94.98-19.14 95.04-19.32L95.04-19.32Q95.18-19.75 96.06-20.27Q96.95-20.80 97.40-20.83Q97.85-20.86 98.27-20.88Q98.69-20.90 99.21-20.92Q99.73-20.94 100-20.96L100-20.96L101.76-21.04Q103.40-23.50 104.01-24.20Q104.63-24.90 104.73-24.97Q104.82-25.04 105.12-25.04L105.12-25.04Z M103.34-3.91L103.34-3.91L103.32-3.59Q103.32-3.11 103.69-2.75Q104.06-2.40 104.38-2.40L104.38-2.40Q106.72-2.40 108.53-3.11Q110.33-3.81 110.33-4.51L110.33-4.51Q110.33-4.84 109.68-5.09Q109.02-5.33 107.47-5.69Q105.92-6.05 105.21-6.26Q104.51-6.46 104.10-6.64Q103.69-6.82 103.26-7.13L103.26-7.13Q102.34-7.77 102.34-9.05Q102.34-10.33 103.29-11.59Q104.24-12.85 105.66-13.75Q107.09-14.65 108.73-15.33L108.73-15.33Q111.97-16.68 114.18-16.68L114.18-16.68Q116.35-16.68 116.86-15.74L116.86-15.74Q117.01-15.41 117.01-15L117.01-15L117.01-14.86Q117.01-13.83 116.57-13.24Q116.13-12.66 115.19-12.19Q114.24-11.72 113.68-11.72Q113.13-11.72 112.98-11.80Q112.83-11.88 112.73-12.00Q112.64-12.13 112.49-12.19Q112.34-12.25 112.34-12.48Q112.34-12.71 112.54-12.96Q112.73-13.20 112.81-13.48L112.81-13.48Q111.52-13.42 110.12-12.88Q108.71-12.34 107.71-11.68Q106.70-11.02 106.04-10.41Q105.37-9.80 105.37-9.52Q105.37-9.24 106.27-9.06L106.27-9.06Q110.31-8.26 111.58-7.68Q112.85-7.09 113.34-6.35Q113.83-5.61 113.83-5L113.83-5Q113.83-3.75 112.83-2.64Q111.84-1.52 110.37-0.82L110.37-0.82Q107.23 0.72 104.89 0.72Q102.56 0.72 101.67 0.01Q100.78-0.70 100.78-1.68Q100.78-2.66 101.28-3.49Q101.78-4.32 102.56-4.32Q103.34-4.32 103.34-3.91Z"/></g>
</svg>
</g><g opacity="1" transform="rotate(0 251.6802 179.3934)">
<svg width="141.0275" height="141.0275" x="251.6802" y="179.3934" version="1.1" preserveAspectRatio="none" viewBox="7.5 7.5 85 85">
  <g transform="matrix(1 0 0 1 0 0)" class="icon1"><path d="M77.664,32.943l7.692-7.692L74.749,14.645l-7.692,7.692c-2.912-1.799-6.13-3.147-9.557-3.957V7.5h-15v10.88   c-3.427,0.81-6.645,2.157-9.557,3.957l-7.692-7.692L14.645,25.251v0l7.692,7.692c-1.799,2.912-3.147,6.13-3.957,9.557H7.5v15h10.88   c0.81,3.427,2.157,6.645,3.957,9.557l11.192-11.192C32.875,54.029,32.5,52.06,32.5,50c0-9.665,7.835-17.5,17.5-17.5   c3.328,0,6.428,0.946,9.077,2.559c0.505,0.336,0.495,1.092-0.038,1.4l-9.073,5.238l0.037,8.299l7.169,4.182l9.073-5.238   c0.538-0.311,1.208,0.067,1.236,0.683C67.484,49.75,67.5,49.873,67.5,50c0,9.665-7.835,17.5-17.5,17.5   c-2.06,0-4.029-0.375-5.865-1.029L32.943,77.664c2.912,1.799,6.13,3.147,9.557,3.957V92.5h15V81.62   c3.427-0.81,6.645-2.157,9.557-3.957l7.692,7.692l10.607-10.607l-7.692-7.692c1.799-2.912,3.147-6.13,3.957-9.557H92.5v-15H81.62   C80.81,39.073,79.463,35.855,77.664,32.943z"></path></g>
</svg>
</g></svg></svg>